<svg width="321" height="234" viewBox="0 0 321 234" fill="none" xmlns="http://www.w3.org/2000/svg">
<path d="M69.0771 145.508C70.6234 143.392 72.0475 139.079 73.3496 132.568C74.6517 125.977 75.3027 117.025 75.3027 105.713C75.3027 100.586 74.611 96.6797 73.2275 93.9941C71.8441 91.2272 69.8503 89.3962 67.2461 88.501C68.7109 88.0941 69.9723 87.1582 71.0303 85.6934C72.0882 84.2285 72.9834 82.4381 73.7158 80.3223C74.4482 78.2064 74.9772 75.887 75.3027 73.3643C75.6283 70.7601 75.791 68.1152 75.791 65.4297C75.791 58.431 75.1807 52.2461 73.96 46.875C72.8206 41.4225 71.193 37.5163 69.0771 35.1562H70.0537C72.8206 35.1562 75.8724 34.5459 79.209 33.3252C82.627 32.1045 86.0856 30.5176 89.585 28.5645C93.0843 26.5299 96.5023 24.292 99.8389 21.8506C103.175 19.3278 106.146 16.7643 108.75 14.1602C111.436 11.556 113.592 9.0332 115.22 6.5918C116.929 4.06901 117.865 1.87174 118.027 0C119.329 0.732422 121.323 1.50553 124.009 2.31934C126.776 3.05176 130.031 3.78418 133.774 4.5166C137.599 5.16764 141.831 5.69661 146.47 6.10352C151.19 6.51042 156.113 6.71387 161.24 6.71387C166.367 6.71387 171.25 6.51042 175.889 6.10352C180.609 5.69661 184.84 5.16764 188.584 4.5166C192.409 3.78418 195.664 3.05176 198.35 2.31934C201.117 1.50553 203.151 0.732422 204.453 0C204.616 1.87174 205.511 4.06901 207.139 6.5918C208.848 9.0332 211.004 11.556 213.608 14.1602C216.294 16.7643 219.305 19.3278 222.642 21.8506C225.978 24.292 229.396 26.5299 232.896 28.5645C236.395 30.5176 239.813 32.1045 243.149 33.3252C246.567 34.5459 249.66 35.1562 252.427 35.1562H253.403C251.287 37.5163 249.619 41.4225 248.398 46.875C247.259 52.2461 246.689 58.431 246.689 65.4297C246.689 68.1152 246.852 70.7601 247.178 73.3643C247.503 75.887 248.032 78.2064 248.765 80.3223C249.497 82.4381 250.392 84.2285 251.45 85.6934C252.508 87.1582 253.77 88.0941 255.234 88.501C252.63 89.3962 250.636 91.2272 249.253 93.9941C247.869 96.6797 247.178 100.586 247.178 105.713C247.178 117.025 247.829 125.977 249.131 132.568C250.433 139.079 251.857 143.392 253.403 145.508C249.009 145.996 244.207 147.38 238.999 149.658C233.791 151.937 228.826 154.744 224.106 158.081C219.468 161.418 215.399 165.08 211.899 169.067C208.4 172.974 206.162 176.839 205.186 180.664C203.883 179.932 201.808 179.24 198.96 178.589C196.193 177.938 192.856 177.368 188.95 176.88C185.125 176.31 180.812 175.903 176.011 175.659C171.291 175.334 166.367 175.171 161.24 175.171C156.113 175.171 151.149 175.334 146.348 175.659C141.628 175.903 137.314 176.31 133.408 176.88C129.583 177.368 126.247 177.938 123.398 178.589C120.632 179.24 118.597 179.932 117.295 180.664C116.318 176.839 114.08 172.974 110.581 169.067C107.082 165.08 102.972 161.418 98.252 158.081C93.6133 154.744 88.6898 151.937 83.4814 149.658C78.2731 147.38 73.4717 145.996 69.0771 145.508ZM161.24 151.367C165.798 151.367 170.029 150.594 173.936 149.048C177.923 147.42 181.341 144.45 184.189 140.137C187.119 135.742 189.398 129.761 191.025 122.192C192.734 114.543 193.589 104.655 193.589 92.5293C193.589 83.0078 193.141 74.8698 192.246 68.1152C191.432 61.3607 190.252 55.7048 188.706 51.1475C187.241 46.5088 185.451 42.8467 183.335 40.1611C181.3 37.3942 179.062 35.319 176.621 33.9355C174.261 32.4707 171.779 31.5348 169.175 31.1279C166.571 30.721 163.926 30.5176 161.24 30.5176C158.555 30.5176 155.91 30.721 153.306 31.1279C150.701 31.5348 148.179 32.4707 145.737 33.9355C143.377 35.319 141.139 37.3942 139.023 40.1611C136.989 42.8467 135.199 46.5088 133.652 51.1475C132.188 55.7048 131.007 61.3607 130.112 68.1152C129.299 74.8698 128.892 83.0078 128.892 92.5293C128.892 104.655 129.705 114.543 131.333 122.192C133.042 129.761 135.321 135.742 138.169 140.137C141.099 144.45 144.517 147.42 148.423 149.048C152.41 150.594 156.683 151.367 161.24 151.367Z" fill="#101357"/>
<g filter="url(#filter0_d)">
<rect x="3.24609" y="190" width="44" height="13" fill="#101357"/>
</g>
<g filter="url(#filter1_d)">
<path d="M4 211H47V224H13C8.02944 224 4 219.971 4 215V211Z" fill="#101357"/>
</g>
<g filter="url(#filter2_d)">
<rect x="275" y="190" width="43" height="13" fill="#101357"/>
</g>
<g filter="url(#filter3_d)">
<path d="M275 209H318V215C318 219.971 313.971 224 309 224H275V209Z" fill="#101357"/>
</g>
<path d="M89.75 211.85C89.75 213.917 89.4333 215.767 88.8 217.4C88.1667 219 87.2667 220.35 86.1 221.45C84.9667 222.55 83.6 223.383 82 223.95C80.4 224.517 78.6167 224.8 76.65 224.8C74.6833 224.8 72.9 224.5 71.3 223.9C69.7 223.3 68.3167 222.45 67.15 221.35C66.0167 220.217 65.1333 218.85 64.5 217.25C63.8667 215.65 63.55 213.85 63.55 211.85C63.55 209.883 63.8667 208.1 64.5 206.5C65.1333 204.9 66.0167 203.55 67.15 202.45C68.3167 201.317 69.7 200.45 71.3 199.85C72.9 199.25 74.6833 198.95 76.65 198.95C78.6167 198.95 80.4 199.267 82 199.9C83.6 200.5 84.9667 201.367 86.1 202.5C87.2667 203.6 88.1667 204.95 88.8 206.55C89.4333 208.15 89.75 209.917 89.75 211.85ZM72.25 211.85C72.25 213.883 72.6333 215.45 73.4 216.55C74.2 217.617 75.3 218.15 76.7 218.15C78.1 218.15 79.1667 217.6 79.9 216.5C80.6667 215.4 81.05 213.85 81.05 211.85C81.05 209.85 80.6667 208.317 79.9 207.25C79.1333 206.15 78.05 205.6 76.65 205.6C75.25 205.6 74.1667 206.15 73.4 207.25C72.6333 208.317 72.25 209.85 72.25 211.85ZM102.397 223.95C102.064 224.05 101.53 224.15 100.797 224.25C100.097 224.35 99.3635 224.4 98.5969 224.4C97.8635 224.4 97.1969 224.35 96.5969 224.25C96.0302 224.15 95.5469 223.95 95.1469 223.65C94.7469 223.35 94.4302 222.95 94.1969 222.45C93.9969 221.917 93.8969 221.233 93.8969 220.4V205.4C93.8969 204.633 94.0302 203.983 94.2969 203.45C94.5969 202.883 95.0135 202.383 95.5469 201.95C96.0802 201.517 96.7302 201.133 97.4969 200.8C98.2969 200.433 99.1469 200.117 100.047 199.85C100.947 199.583 101.88 199.383 102.847 199.25C103.814 199.083 104.78 199 105.747 199C107.347 199 108.614 199.317 109.547 199.95C110.48 200.55 110.947 201.55 110.947 202.95C110.947 203.417 110.88 203.883 110.747 204.35C110.614 204.783 110.447 205.183 110.247 205.55C109.547 205.55 108.83 205.583 108.097 205.65C107.364 205.717 106.647 205.817 105.947 205.95C105.247 206.083 104.58 206.233 103.947 206.4C103.347 206.533 102.83 206.7 102.397 206.9V223.95ZM125.718 198.95C127.618 198.95 129.334 199.2 130.868 199.7C132.434 200.167 133.751 200.783 134.818 201.55C135.484 202.017 136.001 202.533 136.368 203.1C136.768 203.667 136.968 204.4 136.968 205.3V222.8C136.968 224.567 136.634 226.083 135.968 227.35C135.301 228.65 134.384 229.717 133.218 230.55C132.084 231.417 130.734 232.05 129.168 232.45C127.634 232.85 125.984 233.05 124.218 233.05C121.184 233.05 118.801 232.633 117.068 231.8C115.334 231 114.468 229.683 114.468 227.85C114.468 227.083 114.618 226.4 114.918 225.8C115.251 225.233 115.618 224.8 116.018 224.5C116.984 225.033 118.068 225.483 119.268 225.85C120.501 226.217 121.768 226.4 123.068 226.4C124.868 226.4 126.301 226.1 127.368 225.5C128.434 224.9 128.968 223.933 128.968 222.6V221.8C127.601 222.4 125.934 222.7 123.968 222.7C122.468 222.7 121.034 222.483 119.668 222.05C118.334 221.583 117.151 220.883 116.118 219.95C115.118 218.983 114.301 217.75 113.668 216.25C113.068 214.75 112.768 212.967 112.768 210.9C112.768 208.867 113.084 207.1 113.718 205.6C114.384 204.1 115.284 202.867 116.418 201.9C117.584 200.9 118.951 200.167 120.518 199.7C122.118 199.2 123.851 198.95 125.718 198.95ZM128.818 206.2C128.584 206.067 128.234 205.933 127.768 205.8C127.334 205.667 126.784 205.6 126.118 205.6C124.484 205.6 123.251 206.067 122.418 207C121.618 207.9 121.218 209.2 121.218 210.9C121.218 212.833 121.618 214.233 122.418 215.1C123.251 215.933 124.301 216.35 125.568 216.35C126.934 216.35 128.018 216.033 128.818 215.4V206.2ZM152.637 218.6C153.203 218.6 153.82 218.55 154.487 218.45C155.187 218.317 155.703 218.15 156.037 217.95V213.95L152.437 214.25C151.503 214.317 150.737 214.517 150.137 214.85C149.537 215.183 149.237 215.683 149.237 216.35C149.237 217.017 149.487 217.567 149.987 218C150.52 218.4 151.403 218.6 152.637 218.6ZM152.237 198.95C154.037 198.95 155.67 199.133 157.137 199.5C158.637 199.867 159.903 200.433 160.937 201.2C162.003 201.933 162.82 202.883 163.387 204.05C163.953 205.183 164.237 206.533 164.237 208.1V219.3C164.237 220.167 163.987 220.883 163.487 221.45C163.02 221.983 162.453 222.45 161.787 222.85C159.62 224.15 156.57 224.8 152.637 224.8C150.87 224.8 149.27 224.633 147.837 224.3C146.437 223.967 145.22 223.467 144.187 222.8C143.187 222.133 142.403 221.283 141.837 220.25C141.303 219.217 141.037 218.017 141.037 216.65C141.037 214.35 141.72 212.583 143.087 211.35C144.453 210.117 146.57 209.35 149.437 209.05L155.987 208.35V208C155.987 207.033 155.553 206.35 154.687 205.95C153.853 205.517 152.637 205.3 151.037 205.3C149.77 205.3 148.537 205.433 147.337 205.7C146.137 205.967 145.053 206.3 144.087 206.7C143.653 206.4 143.287 205.95 142.987 205.35C142.687 204.717 142.537 204.067 142.537 203.4C142.537 202.533 142.737 201.85 143.137 201.35C143.57 200.817 144.22 200.367 145.087 200C146.053 199.633 147.187 199.367 148.487 199.2C149.82 199.033 151.07 198.95 152.237 198.95ZM184.834 208.6C184.834 207.567 184.534 206.817 183.934 206.35C183.367 205.85 182.584 205.6 181.584 205.6C180.917 205.6 180.251 205.683 179.584 205.85C178.951 206.017 178.401 206.267 177.934 206.6V223.95C177.601 224.05 177.067 224.15 176.334 224.25C175.634 224.35 174.901 224.4 174.134 224.4C173.401 224.4 172.734 224.35 172.134 224.25C171.567 224.15 171.084 223.95 170.684 223.65C170.284 223.35 169.967 222.95 169.734 222.45C169.534 221.917 169.434 221.233 169.434 220.4V205.4C169.434 204.5 169.617 203.767 169.984 203.2C170.384 202.633 170.917 202.117 171.584 201.65C172.717 200.85 174.134 200.2 175.834 199.7C177.567 199.2 179.484 198.95 181.584 198.95C185.351 198.95 188.251 199.783 190.284 201.45C192.317 203.083 193.334 205.367 193.334 208.3V223.95C193.001 224.05 192.467 224.15 191.734 224.25C191.034 224.35 190.301 224.4 189.534 224.4C188.801 224.4 188.134 224.35 187.534 224.25C186.967 224.15 186.484 223.95 186.084 223.65C185.684 223.35 185.367 222.95 185.134 222.45C184.934 221.917 184.834 221.233 184.834 220.4V208.6ZM198.384 192.95C198.384 191.683 198.801 190.617 199.634 189.75C200.501 188.883 201.634 188.45 203.034 188.45C204.434 188.45 205.551 188.883 206.384 189.75C207.251 190.617 207.684 191.683 207.684 192.95C207.684 194.217 207.251 195.283 206.384 196.15C205.551 197.017 204.434 197.45 203.034 197.45C201.634 197.45 200.501 197.017 199.634 196.15C198.801 195.283 198.384 194.217 198.384 192.95ZM207.284 223.95C206.918 224.017 206.368 224.1 205.634 224.2C204.934 224.333 204.218 224.4 203.484 224.4C202.751 224.4 202.084 224.35 201.484 224.25C200.918 224.15 200.434 223.95 200.034 223.65C199.634 223.35 199.318 222.95 199.084 222.45C198.884 221.917 198.784 221.233 198.784 220.4V200.05C199.151 199.983 199.684 199.9 200.384 199.8C201.118 199.667 201.851 199.6 202.584 199.6C203.318 199.6 203.968 199.65 204.534 199.75C205.134 199.85 205.634 200.05 206.034 200.35C206.434 200.65 206.734 201.067 206.934 201.6C207.168 202.1 207.284 202.767 207.284 203.6V223.95ZM213.546 224C213.012 223.533 212.579 222.983 212.246 222.35C211.946 221.717 211.796 221 211.796 220.2C211.796 219.533 211.946 218.883 212.246 218.25C212.579 217.583 212.979 216.967 213.446 216.4L222.046 206.3H212.846C212.646 205.933 212.446 205.467 212.246 204.9C212.079 204.333 211.996 203.717 211.996 203.05C211.996 201.883 212.246 201.05 212.746 200.55C213.279 200.017 213.979 199.75 214.846 199.75H230.596C231.129 200.217 231.546 200.767 231.846 201.4C232.179 202.033 232.346 202.75 232.346 203.55C232.346 204.217 232.179 204.883 231.846 205.55C231.546 206.183 231.162 206.783 230.696 207.35L222.296 217.45H232.096C232.296 217.817 232.479 218.283 232.646 218.85C232.846 219.417 232.946 220.033 232.946 220.7C232.946 221.867 232.679 222.717 232.146 223.25C231.646 223.75 230.962 224 230.096 224H213.546ZM249.13 224.8C247.163 224.8 245.33 224.533 243.63 224C241.963 223.433 240.496 222.6 239.23 221.5C237.996 220.4 237.013 219.017 236.28 217.35C235.58 215.683 235.23 213.733 235.23 211.5C235.23 209.3 235.58 207.417 236.28 205.85C237.013 204.25 237.963 202.95 239.13 201.95C240.296 200.917 241.63 200.167 243.13 199.7C244.63 199.2 246.163 198.95 247.73 198.95C249.496 198.95 251.096 199.217 252.53 199.75C253.996 200.283 255.246 201.017 256.28 201.95C257.346 202.883 258.163 204 258.73 205.3C259.33 206.6 259.63 208.017 259.63 209.55C259.63 210.683 259.313 211.55 258.68 212.15C258.046 212.75 257.163 213.133 256.03 213.3L243.68 215.15C244.046 216.25 244.796 217.083 245.93 217.65C247.063 218.183 248.363 218.45 249.83 218.45C251.196 218.45 252.48 218.283 253.68 217.95C254.913 217.583 255.913 217.167 256.68 216.7C257.213 217.033 257.663 217.5 258.03 218.1C258.396 218.7 258.58 219.333 258.58 220C258.58 221.5 257.88 222.617 256.48 223.35C255.413 223.917 254.213 224.3 252.88 224.5C251.546 224.7 250.296 224.8 249.13 224.8ZM247.73 205.15C246.93 205.15 246.23 205.283 245.63 205.55C245.063 205.817 244.596 206.167 244.23 206.6C243.863 207 243.58 207.467 243.38 208C243.213 208.5 243.113 209.017 243.08 209.55L251.63 208.15C251.53 207.483 251.163 206.817 250.53 206.15C249.896 205.483 248.963 205.15 247.73 205.15Z" fill="#101357"/>
<defs>
<filter id="filter0_d" x="0.246094" y="189" width="50" height="19" filterUnits="userSpaceOnUse" color-interpolation-filters="sRGB">
<feFlood flood-opacity="0" result="BackgroundImageFix"/>
<feColorMatrix in="SourceAlpha" type="matrix" values="0 0 0 0 0 0 0 0 0 0 0 0 0 0 0 0 0 0 127 0"/>
<feOffset dy="2"/>
<feGaussianBlur stdDeviation="1.5"/>
<feColorMatrix type="matrix" values="0 0 0 0 0.275 0 0 0 0 0.104958 0 0 0 0 0.0320833 0 0 0 0.84 0"/>
<feBlend mode="normal" in2="BackgroundImageFix" result="effect1_dropShadow"/>
<feBlend mode="normal" in="SourceGraphic" in2="effect1_dropShadow" result="shape"/>
</filter>
<filter id="filter1_d" x="1" y="210" width="49" height="19" filterUnits="userSpaceOnUse" color-interpolation-filters="sRGB">
<feFlood flood-opacity="0" result="BackgroundImageFix"/>
<feColorMatrix in="SourceAlpha" type="matrix" values="0 0 0 0 0 0 0 0 0 0 0 0 0 0 0 0 0 0 127 0"/>
<feOffset dy="2"/>
<feGaussianBlur stdDeviation="1.5"/>
<feColorMatrix type="matrix" values="0 0 0 0 0.275 0 0 0 0 0.104958 0 0 0 0 0.0320833 0 0 0 0.84 0"/>
<feBlend mode="normal" in2="BackgroundImageFix" result="effect1_dropShadow"/>
<feBlend mode="normal" in="SourceGraphic" in2="effect1_dropShadow" result="shape"/>
</filter>
<filter id="filter2_d" x="272" y="189" width="49" height="19" filterUnits="userSpaceOnUse" color-interpolation-filters="sRGB">
<feFlood flood-opacity="0" result="BackgroundImageFix"/>
<feColorMatrix in="SourceAlpha" type="matrix" values="0 0 0 0 0 0 0 0 0 0 0 0 0 0 0 0 0 0 127 0"/>
<feOffset dy="2"/>
<feGaussianBlur stdDeviation="1.5"/>
<feColorMatrix type="matrix" values="0 0 0 0 0.275 0 0 0 0 0.104958 0 0 0 0 0.0320833 0 0 0 0.84 0"/>
<feBlend mode="normal" in2="BackgroundImageFix" result="effect1_dropShadow"/>
<feBlend mode="normal" in="SourceGraphic" in2="effect1_dropShadow" result="shape"/>
</filter>
<filter id="filter3_d" x="272" y="208" width="49" height="21" filterUnits="userSpaceOnUse" color-interpolation-filters="sRGB">
<feFlood flood-opacity="0" result="BackgroundImageFix"/>
<feColorMatrix in="SourceAlpha" type="matrix" values="0 0 0 0 0 0 0 0 0 0 0 0 0 0 0 0 0 0 127 0"/>
<feOffset dy="2"/>
<feGaussianBlur stdDeviation="1.5"/>
<feColorMatrix type="matrix" values="0 0 0 0 0.275 0 0 0 0 0.104958 0 0 0 0 0.0320833 0 0 0 0.84 0"/>
<feBlend mode="normal" in2="BackgroundImageFix" result="effect1_dropShadow"/>
<feBlend mode="normal" in="SourceGraphic" in2="effect1_dropShadow" result="shape"/>
</filter>
</defs>
</svg>
