<svg width="321" height="235" viewBox="0 0 321 235" fill="none" xmlns="http://www.w3.org/2000/svg">
<path d="M69.0771 145.508C70.6234 143.392 72.0475 139.079 73.3496 132.568C74.6517 125.977 75.3027 117.025 75.3027 105.713C75.3027 100.586 74.611 96.6797 73.2275 93.9941C71.8441 91.2272 69.8503 89.3962 67.2461 88.501C68.7109 88.0941 69.9723 87.1582 71.0303 85.6934C72.0882 84.2285 72.9834 82.4382 73.7158 80.3223C74.4482 78.2064 74.9772 75.887 75.3027 73.3643C75.6283 70.7601 75.791 68.1152 75.791 65.4297C75.791 58.431 75.1807 52.2461 73.96 46.875C72.8206 41.4225 71.193 37.5163 69.0771 35.1562H70.0537C72.8206 35.1562 75.8724 34.5459 79.209 33.3252C82.627 32.1045 86.0856 30.5176 89.585 28.5645C93.0843 26.5299 96.5023 24.292 99.8389 21.8506C103.175 19.3278 106.146 16.7643 108.75 14.1602C111.436 11.556 113.592 9.0332 115.22 6.5918C116.929 4.06901 117.865 1.87174 118.027 0C119.329 0.732422 121.323 1.50553 124.009 2.31934C126.776 3.05176 130.031 3.78418 133.774 4.5166C137.599 5.16764 141.831 5.69661 146.47 6.10352C151.19 6.51042 156.113 6.71387 161.24 6.71387C166.367 6.71387 171.25 6.51042 175.889 6.10352C180.609 5.69661 184.84 5.16764 188.584 4.5166C192.409 3.78418 195.664 3.05176 198.35 2.31934C201.117 1.50553 203.151 0.732422 204.453 0C204.616 1.87174 205.511 4.06901 207.139 6.5918C208.848 9.0332 211.004 11.556 213.608 14.1602C216.294 16.7643 219.305 19.3278 222.642 21.8506C225.978 24.292 229.396 26.5299 232.896 28.5645C236.395 30.5176 239.813 32.1045 243.149 33.3252C246.567 34.5459 249.66 35.1562 252.427 35.1562H253.403C251.287 37.5163 249.619 41.4225 248.398 46.875C247.259 52.2461 246.689 58.431 246.689 65.4297C246.689 68.1152 246.852 70.7601 247.178 73.3643C247.503 75.887 248.032 78.2064 248.765 80.3223C249.497 82.4382 250.392 84.2285 251.45 85.6934C252.508 87.1582 253.77 88.0941 255.234 88.501C252.63 89.3962 250.636 91.2272 249.253 93.9941C247.869 96.6797 247.178 100.586 247.178 105.713C247.178 117.025 247.829 125.977 249.131 132.568C250.433 139.079 251.857 143.392 253.403 145.508C249.009 145.996 244.207 147.38 238.999 149.658C233.791 151.937 228.826 154.744 224.106 158.081C219.468 161.418 215.399 165.08 211.899 169.067C208.4 172.974 206.162 176.839 205.186 180.664C203.883 179.932 201.808 179.24 198.96 178.589C196.193 177.938 192.856 177.368 188.95 176.88C185.125 176.31 180.812 175.903 176.011 175.659C171.291 175.334 166.367 175.171 161.24 175.171C156.113 175.171 151.149 175.334 146.348 175.659C141.628 175.903 137.314 176.31 133.408 176.88C129.583 177.368 126.247 177.938 123.398 178.589C120.632 179.24 118.597 179.932 117.295 180.664C116.318 176.839 114.08 172.974 110.581 169.067C107.082 165.08 102.972 161.418 98.252 158.081C93.6133 154.744 88.6898 151.937 83.4814 149.658C78.2731 147.38 73.4717 145.996 69.0771 145.508ZM161.24 151.367C165.798 151.367 170.029 150.594 173.936 149.048C177.923 147.42 181.341 144.45 184.189 140.137C187.119 135.742 189.398 129.761 191.025 122.192C192.734 114.543 193.589 104.655 193.589 92.5293C193.589 83.0078 193.141 74.8698 192.246 68.1152C191.432 61.3607 190.252 55.7048 188.706 51.1475C187.241 46.5088 185.451 42.8467 183.335 40.1611C181.3 37.3942 179.062 35.319 176.621 33.9355C174.261 32.4707 171.779 31.5348 169.175 31.1279C166.571 30.721 163.926 30.5176 161.24 30.5176C158.555 30.5176 155.91 30.721 153.306 31.1279C150.701 31.5348 148.179 32.4707 145.737 33.9355C143.377 35.319 141.139 37.3942 139.023 40.1611C136.989 42.8467 135.199 46.5088 133.652 51.1475C132.188 55.7048 131.007 61.3607 130.112 68.1152C129.299 74.8698 128.892 83.0078 128.892 92.5293C128.892 104.655 129.705 114.543 131.333 122.192C133.042 129.761 135.321 135.742 138.169 140.137C141.099 144.45 144.517 147.42 148.423 149.048C152.41 150.594 156.683 151.367 161.24 151.367Z" fill="#195E4B"/>
<g filter="url(#filter0_d)">
<rect x="3.24609" y="190" width="44" height="13" fill="white"/>
</g>
<g filter="url(#filter1_d)">
<path d="M4 211H47V224H13C8.02944 224 4 219.971 4 215V211Z" fill="white"/>
</g>
<g filter="url(#filter2_d)">
<rect x="275" y="190" width="43" height="13" fill="white"/>
</g>
<g filter="url(#filter3_d)">
<path d="M275 209H318V215C318 219.971 313.971 224 309 224H275V209Z" fill="white"/>
</g>
<g filter="url(#filter4_d)">
<path d="M92.75 212.039C92.75 213.628 92.4701 215.073 91.9102 216.375C91.3633 217.677 90.6016 218.79 89.625 219.715C88.6615 220.639 87.5286 221.355 86.2266 221.863C84.9245 222.358 83.5312 222.605 82.0469 222.605C80.5365 222.605 79.1237 222.352 77.8086 221.844C76.5065 221.336 75.3737 220.62 74.4102 219.695C73.4466 218.771 72.6849 217.664 72.125 216.375C71.5651 215.073 71.2852 213.628 71.2852 212.039C71.2852 210.438 71.5651 208.986 72.125 207.684C72.6849 206.368 73.4466 205.249 74.4102 204.324C75.3737 203.387 76.5065 202.664 77.8086 202.156C79.1237 201.648 80.5365 201.395 82.0469 201.395C83.5443 201.395 84.944 201.648 86.2461 202.156C87.5482 202.664 88.681 203.387 89.6445 204.324C90.6081 205.249 91.3633 206.368 91.9102 207.684C92.4701 208.986 92.75 210.438 92.75 212.039ZM76.1094 212C76.1094 213.107 76.194 214.174 76.3633 215.203C76.5326 216.232 76.8385 217.143 77.2812 217.938C77.737 218.719 78.3424 219.344 79.0977 219.812C79.8659 220.281 80.849 220.516 82.0469 220.516C83.2318 220.516 84.2018 220.281 84.957 219.812C85.7253 219.344 86.3242 218.719 86.7539 217.938C87.1966 217.143 87.5026 216.232 87.6719 215.203C87.8411 214.174 87.9258 213.107 87.9258 212C87.9258 210.893 87.8411 209.826 87.6719 208.797C87.5026 207.768 87.1966 206.863 86.7539 206.082C86.3242 205.288 85.7253 204.656 84.957 204.188C84.2018 203.719 83.2318 203.484 82.0469 203.484C80.849 203.484 79.8659 203.719 79.0977 204.188C78.3424 204.656 77.737 205.288 77.2812 206.082C76.8385 206.863 76.5326 207.768 76.3633 208.797C76.194 209.826 76.1094 210.893 76.1094 212ZM96.3438 202.527C96.6172 202.41 97.0013 202.299 97.4961 202.195C97.9909 202.091 98.5312 202.007 99.1172 201.941C99.7161 201.876 100.322 201.824 100.934 201.785C101.559 201.746 102.125 201.727 102.633 201.727C102.906 201.727 103.147 201.733 103.355 201.746C103.564 201.759 103.74 201.798 103.883 201.863C104.026 201.928 104.13 202.033 104.195 202.176C104.273 202.306 104.312 202.501 104.312 202.762V207.449L106.793 203.914C107.418 203.055 108.108 202.423 108.863 202.02C109.632 201.603 110.497 201.395 111.461 201.395C111.63 201.395 111.845 201.408 112.105 201.434C112.379 201.447 112.639 201.492 112.887 201.57C113.147 201.648 113.368 201.759 113.551 201.902C113.733 202.046 113.824 202.241 113.824 202.488C113.824 202.553 113.824 202.605 113.824 202.645C113.824 202.684 113.811 202.736 113.785 202.801L112.945 205.555C112.451 205.398 112.001 205.288 111.598 205.223C111.207 205.158 110.842 205.125 110.504 205.125C109.801 205.125 109.13 205.327 108.492 205.73C107.854 206.121 107.268 206.59 106.734 207.137C106.201 207.671 105.725 208.217 105.309 208.777C104.905 209.324 104.573 209.747 104.312 210.047V216.121C104.312 216.928 104.332 217.638 104.371 218.25C104.41 218.862 104.456 219.396 104.508 219.852C104.573 220.307 104.638 220.691 104.703 221.004C104.768 221.303 104.82 221.544 104.859 221.727C104.677 221.831 104.469 221.922 104.234 222C104.013 222.065 103.772 222.124 103.512 222.176C103.264 222.241 103.01 222.286 102.75 222.312C102.503 222.339 102.275 222.352 102.066 222.352C101.728 222.352 101.422 222.319 101.148 222.254C100.875 222.202 100.634 222.104 100.426 221.961C100.217 221.818 100.055 221.629 99.9375 221.395C99.8333 221.147 99.7812 220.841 99.7812 220.477V203.992H96.3438V202.527ZM120.855 208.875C120.855 210.62 121.233 211.987 121.988 212.977C122.743 213.953 123.909 214.441 125.484 214.441C127.06 214.441 128.225 213.953 128.98 212.977C129.749 211.987 130.133 210.62 130.133 208.875C130.133 207.13 129.755 205.776 129 204.812C128.245 203.849 127.073 203.367 125.484 203.367C123.909 203.367 122.743 203.849 121.988 204.812C121.233 205.776 120.855 207.13 120.855 208.875ZM118.102 224.637C118.583 225.366 119.104 226.01 119.664 226.57C120.237 227.143 120.868 227.625 121.559 228.016C122.249 228.406 123.004 228.699 123.824 228.895C124.658 229.103 125.562 229.207 126.539 229.207C127.047 229.207 127.62 229.168 128.258 229.09C128.909 229.012 129.521 228.862 130.094 228.641C130.667 228.419 131.148 228.107 131.539 227.703C131.93 227.312 132.125 226.798 132.125 226.16C132.125 225.652 131.904 225.249 131.461 224.949C131.031 224.65 130.458 224.402 129.742 224.207C129.039 224.012 128.232 223.855 127.32 223.738C126.409 223.621 125.478 223.491 124.527 223.348C123.577 223.204 122.646 223.029 121.734 222.82C120.823 222.612 120.009 222.332 119.293 221.98C118.59 221.616 118.017 221.154 117.574 220.594C117.145 220.034 116.93 219.331 116.93 218.484C116.93 217.964 117.027 217.527 117.223 217.176C117.418 216.811 117.665 216.505 117.965 216.258C118.264 216.01 118.59 215.796 118.941 215.613C119.293 215.431 119.625 215.255 119.938 215.086C118.792 214.435 117.887 213.589 117.223 212.547C116.572 211.492 116.246 210.268 116.246 208.875C116.246 207.716 116.48 206.674 116.949 205.75C117.418 204.826 118.069 204.044 118.902 203.406C119.736 202.755 120.712 202.26 121.832 201.922C122.952 201.57 124.169 201.395 125.484 201.395C127.138 201.395 128.635 201.674 129.977 202.234C131.318 202.781 132.398 203.556 133.219 204.559L134.371 203.113C134.801 202.592 135.185 202.169 135.523 201.844C135.875 201.505 136.207 201.245 136.52 201.062C136.832 200.88 137.138 200.757 137.438 200.691C137.75 200.626 138.089 200.594 138.453 200.594C138.622 200.594 138.811 200.62 139.02 200.672C139.241 200.711 139.443 200.783 139.625 200.887C139.807 200.991 139.964 201.128 140.094 201.297C140.224 201.453 140.289 201.648 140.289 201.883V204.52C139.391 204.52 138.629 204.526 138.004 204.539C137.379 204.552 136.839 204.611 136.383 204.715C135.927 204.806 135.517 204.956 135.152 205.164C134.801 205.372 134.449 205.665 134.098 206.043C134.293 206.486 134.443 206.935 134.547 207.391C134.664 207.846 134.723 208.354 134.723 208.914C134.723 210.073 134.488 211.115 134.02 212.039C133.551 212.951 132.9 213.732 132.066 214.383C131.246 215.034 130.27 215.535 129.137 215.887C128.017 216.225 126.799 216.395 125.484 216.395C124.781 216.395 124.111 216.349 123.473 216.258C122.848 216.167 122.242 216.03 121.656 215.848C121.161 216.108 120.771 216.388 120.484 216.688C120.198 216.974 120.055 217.267 120.055 217.566C120.055 218.087 120.283 218.491 120.738 218.777C121.207 219.051 121.819 219.266 122.574 219.422C123.342 219.578 124.215 219.695 125.191 219.773C126.168 219.852 127.158 219.949 128.16 220.066C129.176 220.184 130.172 220.34 131.148 220.535C132.125 220.73 132.991 221.03 133.746 221.434C134.514 221.824 135.126 222.339 135.582 222.977C136.051 223.615 136.285 224.435 136.285 225.438C136.285 226.479 135.992 227.384 135.406 228.152C134.82 228.934 134.046 229.578 133.082 230.086C132.118 230.594 131.018 230.971 129.781 231.219C128.544 231.479 127.275 231.609 125.973 231.609C125.061 231.609 124.143 231.551 123.219 231.434C122.307 231.316 121.422 231.154 120.562 230.945C119.703 230.737 118.902 230.483 118.16 230.184C117.418 229.897 116.773 229.578 116.227 229.227C115.68 228.888 115.243 228.523 114.918 228.133C114.605 227.742 114.449 227.339 114.449 226.922C114.449 226.727 114.514 226.544 114.645 226.375C114.788 226.206 115.003 226.03 115.289 225.848C115.589 225.678 115.966 225.49 116.422 225.281C116.891 225.086 117.451 224.871 118.102 224.637ZM155.406 220.281C155.406 220.281 155.315 220.34 155.133 220.457C154.964 220.561 154.723 220.698 154.41 220.867C154.111 221.036 153.753 221.225 153.336 221.434C152.932 221.629 152.483 221.818 151.988 222C151.507 222.169 150.999 222.312 150.465 222.43C149.944 222.547 149.417 222.605 148.883 222.605C148.036 222.605 147.229 222.488 146.461 222.254C145.693 222.033 145.016 221.681 144.43 221.199C143.857 220.717 143.395 220.112 143.043 219.383C142.704 218.654 142.535 217.781 142.535 216.766C142.535 215.646 142.783 214.695 143.277 213.914C143.785 213.133 144.482 212.501 145.367 212.02C146.266 211.525 147.333 211.173 148.57 210.965C149.807 210.743 151.168 210.633 152.652 210.633H155.406V209.168C155.406 208.413 155.374 207.69 155.309 207C155.257 206.297 155.12 205.685 154.898 205.164C154.69 204.643 154.378 204.227 153.961 203.914C153.557 203.602 153.01 203.445 152.32 203.445C151.656 203.445 150.992 203.569 150.328 203.816C149.664 204.051 149.013 204.35 148.375 204.715C147.737 205.079 147.125 205.483 146.539 205.926C145.953 206.355 145.419 206.766 144.938 207.156L143.336 205.008C143.141 204.773 143.043 204.533 143.043 204.285C143.043 203.855 143.31 203.465 143.844 203.113C144.391 202.762 145.068 202.462 145.875 202.215C146.695 201.954 147.574 201.753 148.512 201.609C149.449 201.466 150.322 201.395 151.129 201.395C152.327 201.395 153.46 201.538 154.527 201.824C155.595 202.111 156.526 202.566 157.32 203.191C158.128 203.803 158.766 204.604 159.234 205.594C159.703 206.57 159.938 207.762 159.938 209.168V220.047H163.336V221.512C163.115 221.629 162.809 221.74 162.418 221.844C162.04 221.948 161.617 222.039 161.148 222.117C160.68 222.195 160.185 222.254 159.664 222.293C159.156 222.332 158.668 222.352 158.199 222.352C157.887 222.352 157.568 222.332 157.242 222.293C156.917 222.254 156.617 222.163 156.344 222.02C156.083 221.889 155.862 221.707 155.68 221.473C155.51 221.225 155.419 220.893 155.406 220.477V220.281ZM150.25 219.715C150.706 219.715 151.227 219.656 151.812 219.539C152.411 219.409 152.978 219.272 153.512 219.129C154.137 218.96 154.768 218.758 155.406 218.523V213.035H152.125C151.63 213.035 151.083 213.081 150.484 213.172C149.898 213.263 149.345 213.439 148.824 213.699C148.316 213.947 147.887 214.298 147.535 214.754C147.184 215.21 147.008 215.809 147.008 216.551C147.008 217.02 147.079 217.449 147.223 217.84C147.366 218.217 147.574 218.549 147.848 218.836C148.121 219.109 148.46 219.324 148.863 219.48C149.267 219.637 149.729 219.715 150.25 219.715ZM168.727 203.953H165.289V202.488C165.562 202.371 165.947 202.26 166.441 202.156C166.936 202.052 167.477 201.967 168.062 201.902C168.661 201.837 169.267 201.785 169.879 201.746C170.504 201.707 171.07 201.688 171.578 201.688C171.852 201.688 172.092 201.694 172.301 201.707C172.509 201.72 172.685 201.759 172.828 201.824C172.971 201.889 173.076 201.993 173.141 202.137C173.219 202.267 173.258 202.462 173.258 202.723V203.68C173.453 203.615 173.811 203.458 174.332 203.211C174.866 202.964 175.51 202.71 176.266 202.449C177.021 202.176 177.848 201.935 178.746 201.727C179.645 201.505 180.562 201.395 181.5 201.395C182.633 201.395 183.551 201.551 184.254 201.863C184.957 202.176 185.504 202.612 185.895 203.172C186.285 203.719 186.546 204.37 186.676 205.125C186.819 205.88 186.891 206.707 186.891 207.605V220.047H190.289V221.512C190.068 221.629 189.762 221.74 189.371 221.844C188.993 221.948 188.57 222.039 188.102 222.117C187.633 222.195 187.145 222.254 186.637 222.293C186.129 222.332 185.641 222.352 185.172 222.352C184.768 222.352 184.397 222.326 184.059 222.273C183.72 222.234 183.427 222.143 183.18 222C182.932 221.87 182.737 221.688 182.594 221.453C182.451 221.206 182.379 220.88 182.379 220.477V207.996C182.379 207.332 182.34 206.766 182.262 206.297C182.197 205.828 182.06 205.444 181.852 205.145C181.656 204.845 181.376 204.63 181.012 204.5C180.66 204.357 180.204 204.285 179.645 204.285C179.28 204.285 178.876 204.311 178.434 204.363C178.004 204.415 177.555 204.487 177.086 204.578C176.63 204.656 176.181 204.741 175.738 204.832C175.309 204.923 174.911 205.014 174.547 205.105C174.195 205.184 173.902 205.255 173.668 205.32C173.434 205.385 173.297 205.424 173.258 205.438V216.121C173.258 216.928 173.277 217.638 173.316 218.25C173.355 218.862 173.401 219.396 173.453 219.852C173.518 220.307 173.583 220.691 173.648 221.004C173.714 221.303 173.766 221.544 173.805 221.727C173.622 221.831 173.414 221.922 173.18 222C172.958 222.065 172.717 222.124 172.457 222.176C172.21 222.241 171.956 222.286 171.695 222.312C171.448 222.339 171.22 222.352 171.012 222.352C170.673 222.352 170.367 222.319 170.094 222.254C169.82 222.202 169.579 222.104 169.371 221.961C169.163 221.818 169 221.629 168.883 221.395C168.779 221.147 168.727 220.841 168.727 220.477V203.953ZM200.797 220.047H204.195V221.512C203.974 221.629 203.668 221.74 203.277 221.844C202.9 221.948 202.477 222.039 202.008 222.117C201.539 222.195 201.051 222.254 200.543 222.293C200.035 222.332 199.547 222.352 199.078 222.352C198.674 222.352 198.303 222.326 197.965 222.273C197.626 222.234 197.327 222.143 197.066 222C196.819 221.87 196.624 221.688 196.48 221.453C196.337 221.206 196.266 220.88 196.266 220.477V203.914H192.828V202.449C193.102 202.332 193.486 202.221 193.98 202.117C194.475 202.013 195.016 201.928 195.602 201.863C196.201 201.798 196.806 201.746 197.418 201.707C198.043 201.668 198.609 201.648 199.117 201.648C199.391 201.648 199.632 201.655 199.84 201.668C200.048 201.681 200.224 201.72 200.367 201.785C200.51 201.85 200.615 201.954 200.68 202.098C200.758 202.228 200.797 202.423 200.797 202.684V220.047ZM195.797 195.203C195.797 194.839 195.868 194.493 196.012 194.168C196.155 193.842 196.35 193.562 196.598 193.328C196.845 193.094 197.138 192.911 197.477 192.781C197.815 192.638 198.173 192.566 198.551 192.566C198.928 192.566 199.286 192.638 199.625 192.781C199.964 192.911 200.257 193.094 200.504 193.328C200.751 193.562 200.947 193.842 201.09 194.168C201.233 194.493 201.305 194.839 201.305 195.203C201.305 195.568 201.233 195.906 201.09 196.219C200.947 196.531 200.751 196.805 200.504 197.039C200.257 197.273 199.964 197.462 199.625 197.605C199.286 197.736 198.928 197.801 198.551 197.801C198.173 197.801 197.815 197.736 197.477 197.605C197.138 197.462 196.845 197.273 196.598 197.039C196.35 196.805 196.155 196.531 196.012 196.219C195.868 195.906 195.797 195.568 195.797 195.203ZM216.09 219.637C217.197 219.637 218.271 219.585 219.312 219.48C220.367 219.376 221.311 219.259 222.145 219.129C223.121 218.986 224.046 218.81 224.918 218.602L225.25 220.711V220.926C225.25 221.173 225.185 221.382 225.055 221.551C224.938 221.707 224.781 221.831 224.586 221.922C224.391 222.013 224.182 222.072 223.961 222.098C223.74 222.137 223.531 222.156 223.336 222.156L209.215 222C208.707 222 208.316 221.876 208.043 221.629C207.783 221.368 207.652 220.958 207.652 220.398V219.363L219.918 204.168C218.277 204.207 216.884 204.272 215.738 204.363C214.592 204.441 213.629 204.533 212.848 204.637C212.066 204.741 211.441 204.852 210.973 204.969C210.504 205.086 210.12 205.19 209.82 205.281C209.534 205.372 209.299 205.451 209.117 205.516C208.948 205.568 208.766 205.594 208.57 205.594L208.043 203.289C208.017 203.224 208.004 203.172 208.004 203.133C208.004 203.081 208.004 203.035 208.004 202.996C208.004 202.228 208.59 201.844 209.762 201.844C210.257 201.844 210.823 201.85 211.461 201.863C212.099 201.863 212.77 201.87 213.473 201.883C214.176 201.883 214.898 201.889 215.641 201.902C216.383 201.902 217.099 201.909 217.789 201.922C219.417 201.948 221.103 201.974 222.848 202C223.395 202.026 223.811 202.163 224.098 202.41C224.384 202.645 224.527 203.042 224.527 203.602V204.598L212.164 219.637H216.09ZM244.176 210.594C244.254 210.333 244.306 210.073 244.332 209.812C244.358 209.552 244.371 209.279 244.371 208.992C244.371 208.354 244.26 207.716 244.039 207.078C243.831 206.427 243.518 205.841 243.102 205.32C242.698 204.799 242.19 204.376 241.578 204.051C240.979 203.725 240.289 203.562 239.508 203.562C238.505 203.562 237.665 203.758 236.988 204.148C236.324 204.526 235.777 205.04 235.348 205.691C234.931 206.329 234.625 207.078 234.43 207.938C234.234 208.784 234.111 209.669 234.059 210.594H244.176ZM229.508 212C229.508 210.451 229.755 209.031 230.25 207.742C230.758 206.44 231.48 205.32 232.418 204.383C233.368 203.445 234.527 202.716 235.895 202.195C237.262 201.661 238.811 201.395 240.543 201.395C241.845 201.395 243.01 201.603 244.039 202.02C245.068 202.436 245.94 202.996 246.656 203.699C247.372 204.402 247.919 205.216 248.297 206.141C248.674 207.065 248.863 208.029 248.863 209.031C248.863 209.5 248.824 209.969 248.746 210.438C248.668 210.906 248.518 211.329 248.297 211.707C248.076 212.085 247.763 212.397 247.359 212.645C246.956 212.879 246.428 212.996 245.777 212.996H234.098C234.228 214.168 234.534 215.203 235.016 216.102C235.497 217 236.116 217.762 236.871 218.387C237.626 218.999 238.499 219.461 239.488 219.773C240.478 220.086 241.546 220.242 242.691 220.242C243.473 220.242 244.28 220.177 245.113 220.047C245.947 219.904 246.806 219.689 247.691 219.402L248.336 220.711C247.802 221.076 247.229 221.388 246.617 221.648C246.005 221.909 245.374 222.117 244.723 222.273C244.072 222.443 243.408 222.566 242.73 222.645C242.053 222.723 241.389 222.762 240.738 222.762C239.306 222.762 237.913 222.534 236.559 222.078C235.217 221.635 234.02 220.965 232.965 220.066C231.923 219.168 231.083 218.048 230.445 216.707C229.82 215.366 229.508 213.797 229.508 212Z" fill="#195E4B"/>
</g>
<defs>
<filter id="filter0_d" x="0.246094" y="189" width="50" height="19" filterUnits="userSpaceOnUse" color-interpolation-filters="sRGB">
<feFlood flood-opacity="0" result="BackgroundImageFix"/>
<feColorMatrix in="SourceAlpha" type="matrix" values="0 0 0 0 0 0 0 0 0 0 0 0 0 0 0 0 0 0 127 0"/>
<feOffset dy="2"/>
<feGaussianBlur stdDeviation="1.5"/>
<feColorMatrix type="matrix" values="0 0 0 0 0.275 0 0 0 0 0.104958 0 0 0 0 0.0320833 0 0 0 0.84 0"/>
<feBlend mode="normal" in2="BackgroundImageFix" result="effect1_dropShadow"/>
<feBlend mode="normal" in="SourceGraphic" in2="effect1_dropShadow" result="shape"/>
</filter>
<filter id="filter1_d" x="1" y="210" width="49" height="19" filterUnits="userSpaceOnUse" color-interpolation-filters="sRGB">
<feFlood flood-opacity="0" result="BackgroundImageFix"/>
<feColorMatrix in="SourceAlpha" type="matrix" values="0 0 0 0 0 0 0 0 0 0 0 0 0 0 0 0 0 0 127 0"/>
<feOffset dy="2"/>
<feGaussianBlur stdDeviation="1.5"/>
<feColorMatrix type="matrix" values="0 0 0 0 0.275 0 0 0 0 0.104958 0 0 0 0 0.0320833 0 0 0 0.84 0"/>
<feBlend mode="normal" in2="BackgroundImageFix" result="effect1_dropShadow"/>
<feBlend mode="normal" in="SourceGraphic" in2="effect1_dropShadow" result="shape"/>
</filter>
<filter id="filter2_d" x="272" y="189" width="49" height="19" filterUnits="userSpaceOnUse" color-interpolation-filters="sRGB">
<feFlood flood-opacity="0" result="BackgroundImageFix"/>
<feColorMatrix in="SourceAlpha" type="matrix" values="0 0 0 0 0 0 0 0 0 0 0 0 0 0 0 0 0 0 127 0"/>
<feOffset dy="2"/>
<feGaussianBlur stdDeviation="1.5"/>
<feColorMatrix type="matrix" values="0 0 0 0 0.275 0 0 0 0 0.104958 0 0 0 0 0.0320833 0 0 0 0.84 0"/>
<feBlend mode="normal" in2="BackgroundImageFix" result="effect1_dropShadow"/>
<feBlend mode="normal" in="SourceGraphic" in2="effect1_dropShadow" result="shape"/>
</filter>
<filter id="filter3_d" x="272" y="208" width="49" height="21" filterUnits="userSpaceOnUse" color-interpolation-filters="sRGB">
<feFlood flood-opacity="0" result="BackgroundImageFix"/>
<feColorMatrix in="SourceAlpha" type="matrix" values="0 0 0 0 0 0 0 0 0 0 0 0 0 0 0 0 0 0 127 0"/>
<feOffset dy="2"/>
<feGaussianBlur stdDeviation="1.5"/>
<feColorMatrix type="matrix" values="0 0 0 0 0.275 0 0 0 0 0.104958 0 0 0 0 0.0320833 0 0 0 0.84 0"/>
<feBlend mode="normal" in2="BackgroundImageFix" result="effect1_dropShadow"/>
<feBlend mode="normal" in="SourceGraphic" in2="effect1_dropShadow" result="shape"/>
</filter>
<filter id="filter4_d" x="70.2852" y="192.566" width="179.578" height="42.043" filterUnits="userSpaceOnUse" color-interpolation-filters="sRGB">
<feFlood flood-opacity="0" result="BackgroundImageFix"/>
<feColorMatrix in="SourceAlpha" type="matrix" values="0 0 0 0 0 0 0 0 0 0 0 0 0 0 0 0 0 0 127 0"/>
<feOffset dy="2"/>
<feGaussianBlur stdDeviation="0.5"/>
<feColorMatrix type="matrix" values="0 0 0 0 0.0229687 0 0 0 0 0.0875 0 0 0 0 0.0697305 0 0 0 0.71 0"/>
<feBlend mode="normal" in2="BackgroundImageFix" result="effect1_dropShadow"/>
<feBlend mode="normal" in="SourceGraphic" in2="effect1_dropShadow" result="shape"/>
</filter>
</defs>
</svg>
