<svg width="316" height="228" viewBox="0 0 316 228" fill="none" xmlns="http://www.w3.org/2000/svg">
<path d="M315.25 160.881V216C315.25 222.213 310.213 227.25 304 227.25H12C5.78679 227.25 0.75 222.213 0.75 216V160.782C0.75 153.953 6.78401 148.699 13.5476 149.639L160.203 170.008C161.397 170.173 162.608 170.169 163.8 169.995L302.374 149.749C309.162 148.757 315.25 154.02 315.25 160.881Z" fill="white" stroke="#F33501" stroke-width="1.5"/>
<path d="M66.0771 145.508C67.6234 143.392 69.0475 139.079 70.3496 132.568C71.6517 125.977 72.3027 117.025 72.3027 105.713C72.3027 100.586 71.611 96.6797 70.2275 93.9941C68.8441 91.2272 66.8503 89.3962 64.2461 88.501C65.7109 88.0941 66.9723 87.1582 68.0303 85.6934C69.0882 84.2285 69.9834 82.4382 70.7158 80.3223C71.4482 78.2064 71.9772 75.887 72.3027 73.3643C72.6283 70.7601 72.791 68.1152 72.791 65.4297C72.791 58.431 72.1807 52.2461 70.96 46.875C69.8206 41.4225 68.193 37.5163 66.0771 35.1562H67.0537C69.8206 35.1562 72.8724 34.5459 76.209 33.3252C79.627 32.1045 83.0856 30.5176 86.585 28.5645C90.0843 26.5299 93.5023 24.292 96.8389 21.8506C100.175 19.3278 103.146 16.7643 105.75 14.1602C108.436 11.556 110.592 9.0332 112.22 6.5918C113.929 4.06901 114.865 1.87174 115.027 0C116.329 0.732422 118.323 1.50553 121.009 2.31934C123.776 3.05176 127.031 3.78418 130.774 4.5166C134.599 5.16764 138.831 5.69661 143.47 6.10352C148.19 6.51042 153.113 6.71387 158.24 6.71387C163.367 6.71387 168.25 6.51042 172.889 6.10352C177.609 5.69661 181.84 5.16764 185.584 4.5166C189.409 3.78418 192.664 3.05176 195.35 2.31934C198.117 1.50553 200.151 0.732422 201.453 0C201.616 1.87174 202.511 4.06901 204.139 6.5918C205.848 9.0332 208.004 11.556 210.608 14.1602C213.294 16.7643 216.305 19.3278 219.642 21.8506C222.978 24.292 226.396 26.5299 229.896 28.5645C233.395 30.5176 236.813 32.1045 240.149 33.3252C243.567 34.5459 246.66 35.1562 249.427 35.1562H250.403C248.287 37.5163 246.619 41.4225 245.398 46.875C244.259 52.2461 243.689 58.431 243.689 65.4297C243.689 68.1152 243.852 70.7601 244.178 73.3643C244.503 75.887 245.032 78.2064 245.765 80.3223C246.497 82.4382 247.392 84.2285 248.45 85.6934C249.508 87.1582 250.77 88.0941 252.234 88.501C249.63 89.3962 247.636 91.2272 246.253 93.9941C244.869 96.6797 244.178 100.586 244.178 105.713C244.178 117.025 244.829 125.977 246.131 132.568C247.433 139.079 248.857 143.392 250.403 145.508C246.009 145.996 241.207 147.38 235.999 149.658C230.791 151.937 225.826 154.744 221.106 158.081C216.468 161.418 212.399 165.08 208.899 169.067C205.4 172.974 203.162 176.839 202.186 180.664C200.883 179.932 198.808 179.24 195.96 178.589C193.193 177.938 189.856 177.368 185.95 176.88C182.125 176.31 177.812 175.903 173.011 175.659C168.291 175.334 163.367 175.171 158.24 175.171C153.113 175.171 148.149 175.334 143.348 175.659C138.628 175.903 134.314 176.31 130.408 176.88C126.583 177.368 123.247 177.938 120.398 178.589C117.632 179.24 115.597 179.932 114.295 180.664C113.318 176.839 111.08 172.974 107.581 169.067C104.082 165.08 99.972 161.418 95.252 158.081C90.6133 154.744 85.6898 151.937 80.4814 149.658C75.2731 147.38 70.4717 145.996 66.0771 145.508ZM158.24 151.367C162.798 151.367 167.029 150.594 170.936 149.048C174.923 147.42 178.341 144.45 181.189 140.137C184.119 135.742 186.398 129.761 188.025 122.192C189.734 114.543 190.589 104.655 190.589 92.5293C190.589 83.0078 190.141 74.8698 189.246 68.1152C188.432 61.3607 187.252 55.7048 185.706 51.1475C184.241 46.5088 182.451 42.8467 180.335 40.1611C178.3 37.3942 176.062 35.319 173.621 33.9355C171.261 32.4707 168.779 31.5348 166.175 31.1279C163.571 30.721 160.926 30.5176 158.24 30.5176C155.555 30.5176 152.91 30.721 150.306 31.1279C147.701 31.5348 145.179 32.4707 142.737 33.9355C140.377 35.319 138.139 37.3942 136.023 40.1611C133.989 42.8467 132.199 46.5088 130.652 51.1475C129.188 55.7048 128.007 61.3607 127.112 68.1152C126.299 74.8698 125.892 83.0078 125.892 92.5293C125.892 104.655 126.705 114.543 128.333 122.192C130.042 129.761 132.321 135.742 135.169 140.137C138.099 144.45 141.517 147.42 145.423 149.048C149.41 150.594 153.683 151.367 158.24 151.367Z" fill="#195E4B"/>
<rect x="0.246094" y="193" width="44" height="13" fill="#F33501"/>
<path d="M1 214H44V227H10C5.02944 227 1 222.971 1 218V214Z" fill="#F33501"/>
<rect x="272" y="193" width="43" height="13" fill="#F33501"/>
<path d="M272 212H315V218C315 222.971 310.971 227 306 227H272V212Z" fill="#F33501"/>
<path d="M63.0983 215.687C60.5352 215.687 58.472 215.257 56.9087 214.398C55.3636 213.525 54.2366 212.409 53.5276 211.051C52.8187 209.679 52.3915 208.244 52.2461 206.747C52.2461 205.278 52.4188 203.802 52.7642 202.319C53.1277 200.836 53.9821 199.541 55.3273 198.432C56.6361 197.323 58.2266 196.526 60.099 196.041C61.9713 195.542 63.88 195.293 65.825 195.293C68.588 195.293 70.7694 195.764 72.3691 196.706C73.9687 197.635 75.1139 198.841 75.8047 200.324C76.5136 201.793 76.8681 203.324 76.8681 204.918C76.8681 206.304 76.6318 207.662 76.1591 208.993C75.7047 210.323 74.8685 211.515 73.6506 212.568C72.3418 213.705 70.7512 214.509 68.8789 214.98C67.0066 215.451 65.0797 215.687 63.0983 215.687ZM57.5086 201.633C57.3632 202.174 57.245 202.714 57.1541 203.255C57.0814 203.795 57.0451 204.35 57.0451 204.918C57.0451 205.791 57.1541 206.754 57.3723 207.808C57.6086 208.861 57.9903 209.852 58.5175 210.78C59.0628 211.695 59.8263 212.45 60.8079 213.046C61.8077 213.642 63.071 213.94 64.598 213.94C66.1249 213.94 67.361 213.684 68.3063 213.171C69.2515 212.658 69.9877 211.993 70.5149 211.175C71.0421 210.344 71.4056 209.45 71.6056 208.494C71.8055 207.523 71.9055 206.595 71.9055 205.708C71.9055 204.835 71.8146 203.899 71.6328 202.901C71.4511 201.89 71.1057 200.926 70.5967 200.012C70.0877 199.097 69.3424 198.362 68.3608 197.808C67.3792 197.24 66.1068 196.956 64.5435 196.956C63.0529 196.956 61.635 197.337 60.2898 198.099C58.9628 198.861 58.0358 200.039 57.5086 201.633Z" fill="#195E4B"/>
<path d="M99.2269 200.656L98.5453 200.428C98.3998 199.832 98.0999 199.277 97.6455 198.764C97.2092 198.238 96.5275 197.974 95.6004 197.974C94.4552 197.974 93.5191 198.272 92.7919 198.868C92.083 199.464 91.5831 200.046 91.2923 200.615C91.0378 201.072 90.8924 201.723 90.856 202.569C90.8196 203.414 90.8196 204.315 90.856 205.271C90.8924 206.228 90.9105 207.087 90.9105 207.849C90.9105 209.983 90.9651 212.139 91.0741 214.314L87.175 215.208L86.3297 214.834C86.5115 213.324 86.666 211.688 86.7932 209.928C86.9205 208.168 86.9841 206.436 86.9841 204.731C86.9841 203.622 86.9659 202.52 86.9296 201.425C86.8932 200.317 86.7023 199.395 86.357 198.66C86.0298 197.912 85.439 197.538 84.5846 197.538C83.9484 197.538 83.2394 197.683 82.4578 197.974C81.6761 198.252 80.9399 198.55 80.2492 198.868L79.5675 198.141C80.3128 197.683 81.1217 197.212 81.9943 196.727C82.8668 196.242 83.7484 195.826 84.6391 195.48C85.548 195.119 86.3661 194.939 87.0932 194.939C88.3656 194.939 89.32 195.223 89.9562 195.792C90.5924 196.36 90.9832 197.101 91.1287 198.016L91.674 198.182C92.2375 197.78 92.8647 197.351 93.5554 196.893C94.2462 196.422 94.9642 196.027 95.7095 195.708C96.4548 195.376 97.1637 195.209 97.8363 195.209C100.472 195.209 101.935 196.325 102.226 198.557L99.2269 200.656Z" fill="#195E4B"/>
<path d="M121.204 212.88C119.75 213.504 118.232 214.107 116.65 214.689C115.069 215.271 113.406 215.562 111.661 215.562C110.134 215.562 108.752 215.215 107.516 214.522C106.298 213.816 105.335 212.838 104.626 211.591C103.917 210.344 103.562 208.896 103.562 207.246C103.562 204.724 104.126 202.569 105.253 200.781C106.398 198.993 107.934 197.635 109.861 196.706C111.806 195.764 113.969 195.293 116.351 195.293C117.496 195.293 118.632 195.397 119.759 195.604C120.904 195.812 121.949 196.187 122.895 196.727L125.73 195.501L126.521 195.75C126.448 196.72 126.376 197.683 126.303 198.64C126.248 199.582 126.194 200.635 126.139 201.8C126.085 202.964 126.048 204.336 126.03 205.916C126.012 207.482 126.003 209.374 126.003 211.591C126.003 212.409 125.939 213.497 125.812 214.855C125.685 216.199 125.34 217.495 124.776 218.743C124.322 219.685 123.667 220.503 122.813 221.196C121.958 221.889 121.259 222.394 120.713 222.713C119.295 223.531 117.859 224.113 116.405 224.459C114.951 224.82 113.369 225 111.661 225C110.425 225 109.17 224.841 107.898 224.522C106.644 224.217 105.326 223.579 103.944 222.609L106.698 219.99H107.462C107.789 220.503 108.27 221.002 108.907 221.487C109.543 221.986 110.225 222.401 110.952 222.734C111.679 223.08 112.379 223.254 113.051 223.254C115.033 223.254 116.641 222.796 117.877 221.882C119.132 220.981 120.059 219.761 120.659 218.223C121.277 216.698 121.631 215.014 121.722 213.171L121.204 212.88ZM121.722 210.864V199.638C121.649 198.64 121.095 197.905 120.059 197.434C119.041 196.963 117.932 196.727 116.732 196.727C115.096 196.727 113.733 197.046 112.642 197.683C111.57 198.321 110.715 199.146 110.079 200.157C109.461 201.169 109.016 202.229 108.743 203.338C108.489 204.447 108.361 205.479 108.361 206.436C108.361 207.711 108.698 208.833 109.37 209.803C110.043 210.773 110.87 211.529 111.851 212.069C112.833 212.61 113.797 212.88 114.742 212.88C115.596 212.88 116.478 212.769 117.387 212.547C118.296 212.312 119.141 212.035 119.922 211.716C120.704 211.397 121.304 211.113 121.722 210.864Z" fill="#195E4B"/>
<path d="M151.334 196.727L154.306 195.417L154.579 195.625C154.361 198.716 154.251 201.813 154.251 204.918C154.251 205.569 154.224 206.352 154.17 207.267C154.115 208.168 154.124 209.048 154.197 209.907C154.27 210.753 154.47 211.459 154.797 212.028C155.142 212.596 155.688 212.88 156.433 212.88C156.851 212.88 157.405 212.797 158.096 212.631C158.805 212.45 159.459 212.277 160.059 212.111L160.441 213.13C159.696 213.476 158.896 213.843 158.042 214.231C157.187 214.606 156.351 214.924 155.533 215.188C154.715 215.465 154.006 215.603 153.406 215.603C152.37 215.603 151.625 215.361 151.17 214.876C150.734 214.391 150.425 213.795 150.243 213.088L149.398 212.922C148.016 213.601 146.562 214.217 145.035 214.772C143.508 215.326 141.927 215.603 140.291 215.603C138.728 215.603 137.419 215.347 136.364 214.834C135.328 214.321 134.492 213.656 133.856 212.838C133.238 212.007 132.783 211.106 132.493 210.136C132.22 209.152 132.084 208.175 132.084 207.205C132.084 205.694 132.329 204.232 132.82 202.818C133.329 201.405 134.11 200.123 135.165 198.972C136.237 197.822 137.61 196.914 139.282 196.249C140.954 195.584 142.981 195.251 145.362 195.251C146.253 195.251 147.244 195.376 148.335 195.625C149.443 195.875 150.443 196.242 151.334 196.727ZM150.107 210.864V201.072C150.107 200.504 150.071 199.97 149.998 199.471C149.925 198.958 149.671 198.515 149.234 198.141C148.744 197.739 148.162 197.406 147.489 197.143C146.817 196.866 146.126 196.727 145.417 196.727C143.363 196.727 141.6 197.268 140.127 198.349C139.491 198.806 138.846 199.644 138.191 200.864C137.537 202.084 137.173 203.775 137.101 205.937C137.064 206.81 137.155 207.697 137.373 208.598C137.61 209.485 138.046 210.295 138.682 211.03C139.282 211.737 140.091 212.208 141.109 212.443C142.127 212.665 143.154 212.776 144.19 212.776C145.263 212.776 146.308 212.582 147.326 212.194C148.362 211.792 149.289 211.349 150.107 210.864Z" fill="#195E4B"/>
<path d="M171.321 214.314L167.421 215.333L166.576 215.042C166.612 214.502 166.658 213.705 166.712 212.651C166.767 211.598 166.822 210.441 166.876 209.18C166.949 207.918 167.003 206.685 167.04 205.479C167.076 204.273 167.094 203.248 167.094 202.402C167.094 200.989 166.976 199.818 166.74 198.889C166.522 197.961 165.949 197.496 165.022 197.496C164.422 197.496 163.777 197.649 163.086 197.954C162.395 198.245 161.641 198.591 160.823 198.993L159.896 198.058C160.677 197.628 161.514 197.178 162.404 196.706C163.295 196.235 164.186 195.84 165.076 195.521C165.967 195.189 166.749 195.022 167.421 195.022C168.839 195.022 169.821 195.307 170.366 195.875C170.93 196.443 171.284 197.129 171.43 197.933L171.893 198.182C173.456 197.448 175.156 196.755 176.992 196.103C178.846 195.438 180.664 195.106 182.445 195.106C183.263 195.106 184.054 195.196 184.818 195.376C185.581 195.542 186.226 195.868 186.754 196.353C187.117 196.699 187.372 197.316 187.517 198.203C187.663 199.09 187.753 200.081 187.79 201.176C187.844 202.271 187.872 203.276 187.872 204.19C187.872 206.325 187.881 208.002 187.899 209.221C187.917 210.427 188.099 211.279 188.444 211.778C188.808 212.277 189.508 212.527 190.544 212.527C191.18 212.527 191.907 212.346 192.725 211.986C193.543 211.612 194.307 211.224 195.015 210.822H195.724L196.242 211.716C194.97 212.686 193.525 213.559 191.907 214.335C190.289 215.111 188.808 215.499 187.463 215.499C185.936 215.499 184.881 215.132 184.3 214.398C183.736 213.663 183.454 212.783 183.454 211.757L183.727 204.481C183.727 202.347 183.382 200.67 182.691 199.45C182 198.231 180.673 197.621 178.71 197.621C177.437 197.621 176.165 197.898 174.893 198.453C173.638 199.007 172.511 199.596 171.511 200.22C171.439 201.758 171.357 203.407 171.266 205.167C171.193 206.928 171.157 208.584 171.157 210.136C171.157 210.732 171.175 211.369 171.211 212.049C171.248 212.714 171.284 213.469 171.321 214.314Z" fill="#195E4B"/>
<path d="M207.177 188.474C207.14 189.181 206.795 189.756 206.14 190.199C205.486 190.643 204.713 190.865 203.823 190.865C202.932 190.865 202.168 190.622 201.532 190.137C200.896 189.652 200.578 189.07 200.578 188.391C200.578 187.656 200.969 187.074 201.75 186.644C202.532 186.215 203.332 186 204.15 186C205.113 186 205.859 186.249 206.386 186.748C206.913 187.247 207.177 187.822 207.177 188.474ZM206.386 198.39L205.95 207.329C205.95 208.896 206.113 210.122 206.44 211.009C206.786 211.882 207.44 212.319 208.404 212.319C209.476 212.319 210.412 212.132 211.212 211.757C212.012 211.369 212.784 210.919 213.53 210.406L214.266 210.822V211.3C213.63 211.924 212.893 212.554 212.057 213.192C211.221 213.829 210.33 214.363 209.385 214.793C208.44 215.208 207.44 215.416 206.386 215.416C205.604 215.416 204.868 215.312 204.177 215.104C203.486 214.897 202.932 214.453 202.514 213.774C202.114 213.081 201.914 212.042 201.914 210.656L202.268 201.238C202.268 200.13 202.123 199.249 201.832 198.598C201.56 197.947 201.051 197.621 200.305 197.621C199.705 197.621 198.978 197.773 198.124 198.078C197.27 198.369 196.506 198.674 195.833 198.993L195.125 198.224C196.397 197.462 197.742 196.741 199.16 196.062C200.596 195.369 201.85 195.022 202.923 195.022C204.195 195.022 205.086 195.348 205.595 195.999C206.122 196.651 206.386 197.448 206.386 198.39Z" fill="#195E4B"/>
<path d="M236.161 195.417H236.516L237.279 195.958C235.752 197.205 234.089 198.64 232.289 200.261C230.49 201.883 228.636 203.615 226.727 205.458C224.836 207.302 222.955 209.173 221.083 211.071L221.383 211.425C223.2 211.563 224.955 211.674 226.645 211.757C228.336 211.841 229.744 211.896 230.871 211.924C232.017 211.951 232.662 211.965 232.807 211.965C234.407 211.965 235.661 211.605 236.57 210.884C237.497 210.164 238.279 209.422 238.915 208.66L240.142 209.159L237.852 212.568C237.288 213.414 236.597 214.107 235.779 214.647C234.961 215.188 233.844 215.444 232.426 215.416C232.244 215.416 231.726 215.389 230.871 215.333C230.017 215.278 229.063 215.201 228.008 215.104C226.972 215.007 226.045 214.931 225.227 214.876L218.683 214.398C218.011 214.398 217.374 214.585 216.774 214.959C216.193 215.319 215.675 215.742 215.22 216.227H214.893L214.048 215.416L230.517 199.201C230.262 199.229 229.99 199.249 229.699 199.263C229.426 199.277 229.145 199.284 228.854 199.284C227.927 199.284 226.827 199.152 225.554 198.889C224.3 198.612 223.164 198.473 222.146 198.473C221.11 198.473 220.237 198.751 219.528 199.305C218.819 199.859 218.038 200.594 217.183 201.509L216.066 200.947L218.847 197.164C219.41 196.512 219.919 196.062 220.374 195.812C220.846 195.549 221.492 195.417 222.31 195.417C223.273 195.417 224.3 195.528 225.391 195.75C226.5 195.958 227.627 196.173 228.772 196.394C229.935 196.616 231.044 196.727 232.098 196.727C232.916 196.727 233.644 196.602 234.28 196.353C234.934 196.103 235.561 195.792 236.161 195.417Z" fill="#195E4B"/>
<path d="M262.855 201.509L247.095 206.706C247.204 207.579 247.513 208.487 248.022 209.429C248.531 210.358 249.295 211.134 250.313 211.757C251.349 212.381 252.685 212.693 254.321 212.693C255.848 212.693 257.338 212.395 258.793 211.799C260.265 211.203 261.638 210.538 262.91 209.803L263.537 209.886L264.246 210.656C263.101 211.473 261.847 212.263 260.483 213.026C259.12 213.774 257.684 214.391 256.175 214.876C254.666 215.361 253.112 215.603 251.512 215.603C249.658 215.603 248.122 215.305 246.904 214.709C245.705 214.114 244.768 213.324 244.096 212.34C243.423 211.356 242.942 210.261 242.651 209.055C242.378 207.849 242.242 206.65 242.242 205.458C242.242 204.211 242.442 202.991 242.842 201.8C243.26 200.608 244.014 199.527 245.105 198.557C246.486 197.337 248.131 196.394 250.04 195.729C251.949 195.064 253.966 194.731 256.093 194.731C258.511 194.731 260.438 195.3 261.874 196.436C263.31 197.572 264.028 198.965 264.028 200.615C264.028 200.864 263.901 201.051 263.646 201.176C263.41 201.287 263.146 201.398 262.855 201.509ZM249.44 198.224C248.368 199.097 247.668 200.019 247.341 200.989C247.032 201.959 246.877 202.971 246.877 204.024C246.877 204.135 246.886 204.253 246.904 204.377C246.923 204.502 246.95 204.634 246.986 204.772L247.232 204.959L258.493 201.55C258.675 201.495 258.838 201.384 258.984 201.217C259.147 201.037 259.229 200.774 259.229 200.428C259.229 199.832 259.02 199.222 258.602 198.598C258.202 197.974 257.62 197.462 256.857 197.06C256.093 196.644 255.193 196.436 254.157 196.436C253.23 196.436 252.358 196.595 251.54 196.914C250.74 197.219 250.04 197.656 249.44 198.224Z" fill="#195E4B"/>
</svg>
