<svg width="317" height="277" viewBox="0 0 317 277" fill="none" xmlns="http://www.w3.org/2000/svg">
<rect x="1.5" y="0.5" width="315" height="276" rx="11.5" stroke="#F33501"/>
<path d="M66.8311 194.508C68.3773 192.392 69.8014 188.079 71.1035 181.568C72.4056 174.977 73.0566 166.025 73.0566 154.713C73.0566 149.586 72.3649 145.68 70.9814 142.994C69.598 140.227 67.6042 138.396 65 137.501C66.4648 137.094 67.7262 136.158 68.7842 134.693C69.8421 133.229 70.7373 131.438 71.4697 129.322C72.2021 127.206 72.7311 124.887 73.0566 122.364C73.3822 119.76 73.5449 117.115 73.5449 114.43C73.5449 107.431 72.9346 101.246 71.7139 95.875C70.5745 90.4225 68.9469 86.5163 66.8311 84.1562H67.8076C70.5745 84.1562 73.6263 83.5459 76.9629 82.3252C80.3809 81.1045 83.8395 79.5176 87.3389 77.5645C90.8382 75.5299 94.2562 73.292 97.5928 70.8506C100.929 68.3278 103.9 65.7643 106.504 63.1602C109.189 60.556 111.346 58.0332 112.974 55.5918C114.683 53.069 115.618 50.8717 115.781 49C117.083 49.7324 119.077 50.5055 121.763 51.3193C124.53 52.0518 127.785 52.7842 131.528 53.5166C135.353 54.1676 139.585 54.6966 144.224 55.1035C148.944 55.5104 153.867 55.7139 158.994 55.7139C164.121 55.7139 169.004 55.5104 173.643 55.1035C178.363 54.6966 182.594 54.1676 186.338 53.5166C190.163 52.7842 193.418 52.0518 196.104 51.3193C198.87 50.5055 200.905 49.7324 202.207 49C202.37 50.8717 203.265 53.069 204.893 55.5918C206.602 58.0332 208.758 60.556 211.362 63.1602C214.048 65.7643 217.059 68.3278 220.396 70.8506C223.732 73.292 227.15 75.5299 230.649 77.5645C234.149 79.5176 237.567 81.1045 240.903 82.3252C244.321 83.5459 247.414 84.1562 250.181 84.1562H251.157C249.041 86.5163 247.373 90.4225 246.152 95.875C245.013 101.246 244.443 107.431 244.443 114.43C244.443 117.115 244.606 119.76 244.932 122.364C245.257 124.887 245.786 127.206 246.519 129.322C247.251 131.438 248.146 133.229 249.204 134.693C250.262 136.158 251.523 137.094 252.988 137.501C250.384 138.396 248.39 140.227 247.007 142.994C245.623 145.68 244.932 149.586 244.932 154.713C244.932 166.025 245.583 174.977 246.885 181.568C248.187 188.079 249.611 192.392 251.157 194.508C246.763 194.996 241.961 196.38 236.753 198.658C231.545 200.937 226.58 203.744 221.86 207.081C217.222 210.418 213.153 214.08 209.653 218.067C206.154 221.974 203.916 225.839 202.939 229.664C201.637 228.932 199.562 228.24 196.714 227.589C193.947 226.938 190.61 226.368 186.704 225.88C182.879 225.31 178.566 224.903 173.765 224.659C169.045 224.334 164.121 224.171 158.994 224.171C153.867 224.171 148.903 224.334 144.102 224.659C139.382 224.903 135.068 225.31 131.162 225.88C127.337 226.368 124.001 226.938 121.152 227.589C118.385 228.24 116.351 228.932 115.049 229.664C114.072 225.839 111.834 221.974 108.335 218.067C104.836 214.08 100.726 210.418 96.0059 207.081C91.3672 203.744 86.4437 200.937 81.2354 198.658C76.027 196.38 71.2256 194.996 66.8311 194.508ZM158.994 200.367C163.551 200.367 167.783 199.594 171.689 198.048C175.677 196.42 179.095 193.45 181.943 189.137C184.873 184.742 187.152 178.761 188.779 171.192C190.488 163.543 191.343 153.655 191.343 141.529C191.343 132.008 190.895 123.87 190 117.115C189.186 110.361 188.006 104.705 186.46 100.147C184.995 95.5088 183.205 91.8467 181.089 89.1611C179.054 86.3942 176.816 84.319 174.375 82.9355C172.015 81.4707 169.533 80.5348 166.929 80.1279C164.325 79.721 161.68 79.5176 158.994 79.5176C156.309 79.5176 153.664 79.721 151.06 80.1279C148.455 80.5348 145.933 81.4707 143.491 82.9355C141.131 84.319 138.893 86.3942 136.777 89.1611C134.743 91.8467 132.952 95.5088 131.406 100.147C129.941 104.705 128.761 110.361 127.866 117.115C127.052 123.87 126.646 132.008 126.646 141.529C126.646 153.655 127.459 163.543 129.087 171.192C130.796 178.761 133.075 184.742 135.923 189.137C138.853 193.45 142.271 196.42 146.177 198.048C150.164 199.594 154.437 200.367 158.994 200.367Z" fill="#195E4B"/>
<path d="M1 7C1 3.13401 4.13401 0 8 0H310C313.866 0 317 3.13401 317 7V13H1V7Z" fill="#F33501"/>
<rect x="1" y="22" width="316" height="13" fill="#F33501"/>
<path d="M1 44H102L80 57H1V44Z" fill="#F33501"/>
<path d="M215 44H317V57H237L215 44Z" fill="#F33501"/>
<path d="M245.5 66H317V79H253.5L245.5 66Z" fill="#F33501"/>
<path d="M1 66H71.5L63.5 79H1V66Z" fill="#F33501"/>
<path d="M1 88H60L57.3912 101H1V88Z" fill="#F33501"/>
<path d="M257 88H317V101H259.62L257 88Z" fill="#F33501"/>
<rect x="1" y="110" width="56" height="13" fill="#F33501"/>
<rect x="260" y="110" width="57" height="13" fill="#F33501"/>
<rect x="1" y="132" width="56" height="13" fill="#F33501"/>
<rect x="260" y="132" width="57" height="13" fill="#F33501"/>
<rect x="1" y="154" width="56" height="13" fill="#F33501"/>
<rect x="1" y="242" width="44" height="13" fill="#F33501"/>
<path d="M1 264H45V277H8C4.13401 277 1 273.866 1 270V264Z" fill="#F33501"/>
<rect x="260" y="154" width="57" height="13" fill="#F33501"/>
<rect x="273" y="242" width="44" height="13" fill="#F33501"/>
<path d="M273 264H317V270C317 273.866 313.866 277 310 277H273V264Z" fill="#F33501"/>
<path d="M0.753958 176H57.2989L59.754 189H0.753958V176Z" fill="#F33501"/>
<path d="M259.641 176H317V189H257.24L259.641 176Z" fill="#F33501"/>
<path d="M1 198H63L70.7697 211H1V198Z" fill="#F33501"/>
<path d="M254 198H316.999V211H246.223L254 198Z" fill="#F33501"/>
<path d="M238 220H317V233H217.5L238 220Z" fill="#F33501"/>
<path d="M1 220H79L99.5 233H1V220Z" fill="#F33501"/>
<path d="M63.8522 264.687C61.2891 264.687 59.2259 264.257 57.6626 263.398C56.1175 262.525 54.9905 261.409 54.2815 260.051C53.5726 258.679 53.1454 257.244 53 255.747C53 254.278 53.1727 252.802 53.5181 251.319C53.8816 249.836 54.736 248.541 56.0812 247.432C57.39 246.323 58.9805 245.526 60.8529 245.041C62.7252 244.542 64.6339 244.293 66.5789 244.293C69.342 244.293 71.5233 244.764 73.123 245.706C74.7226 246.635 75.8678 247.841 76.5586 249.324C77.2675 250.793 77.622 252.324 77.622 253.918C77.622 255.304 77.3857 256.662 76.9131 257.993C76.4586 259.323 75.6224 260.515 74.4045 261.568C73.0957 262.705 71.5051 263.509 69.6328 263.98C67.7605 264.451 65.8336 264.687 63.8522 264.687ZM58.2625 250.633C58.1171 251.174 57.9989 251.714 57.908 252.255C57.8353 252.795 57.799 253.35 57.799 253.918C57.799 254.791 57.908 255.754 58.1262 256.808C58.3625 257.861 58.7442 258.852 59.2714 259.78C59.8167 260.695 60.5802 261.45 61.5618 262.046C62.5616 262.642 63.825 262.94 65.3519 262.94C66.8788 262.94 68.1149 262.684 69.0602 262.171C70.0054 261.658 70.7417 260.993 71.2688 260.175C71.796 259.344 72.1595 258.45 72.3595 257.494C72.5594 256.523 72.6594 255.595 72.6594 254.708C72.6594 253.835 72.5685 252.899 72.3868 251.901C72.205 250.89 71.8596 249.926 71.3506 249.012C70.8416 248.097 70.0963 247.362 69.1147 246.808C68.1331 246.24 66.8607 245.956 65.2974 245.956C63.8068 245.956 62.3889 246.337 61.0437 247.099C59.7167 247.861 58.7897 249.039 58.2625 250.633Z" fill="#195E4B"/>
<path d="M99.9808 249.656L99.2992 249.428C99.1537 248.832 98.8538 248.277 98.3994 247.764C97.9631 247.238 97.2814 246.974 96.3543 246.974C95.2091 246.974 94.273 247.272 93.5459 247.868C92.8369 248.464 92.337 249.046 92.0462 249.615C91.7917 250.072 91.6463 250.723 91.6099 251.569C91.5735 252.414 91.5735 253.315 91.6099 254.271C91.6463 255.228 91.6644 256.087 91.6644 256.849C91.6644 258.983 91.719 261.139 91.828 263.314L87.9289 264.208L87.0836 263.834C87.2654 262.324 87.4199 260.688 87.5471 258.928C87.6744 257.168 87.738 255.436 87.738 253.731C87.738 252.622 87.7198 251.52 87.6835 250.425C87.6471 249.317 87.4562 248.395 87.1109 247.66C86.7837 246.912 86.1929 246.538 85.3385 246.538C84.7023 246.538 83.9934 246.683 83.2117 246.974C82.4301 247.252 81.6938 247.55 81.0031 247.868L80.3214 247.141C81.0667 246.683 81.8756 246.212 82.7482 245.727C83.6207 245.242 84.5023 244.826 85.3931 244.48C86.302 244.119 87.12 243.939 87.8471 243.939C89.1195 243.939 90.0739 244.223 90.7101 244.792C91.3463 245.36 91.7371 246.101 91.8826 247.016L92.4279 247.182C92.9914 246.78 93.6186 246.351 94.3093 245.893C95.0001 245.422 95.7181 245.027 96.4634 244.708C97.2087 244.376 97.9176 244.209 98.5902 244.209C101.226 244.209 102.689 245.325 102.98 247.557L99.9808 249.656Z" fill="#195E4B"/>
<path d="M121.958 261.88C120.504 262.504 118.986 263.107 117.404 263.689C115.823 264.271 114.16 264.562 112.415 264.562C110.888 264.562 109.506 264.215 108.27 263.522C107.052 262.816 106.089 261.838 105.38 260.591C104.671 259.344 104.316 257.896 104.316 256.246C104.316 253.724 104.88 251.569 106.007 249.781C107.152 247.993 108.688 246.635 110.615 245.706C112.56 244.764 114.723 244.293 117.104 244.293C118.25 244.293 119.386 244.397 120.513 244.604C121.658 244.812 122.703 245.187 123.648 245.727L126.484 244.501L127.275 244.75C127.202 245.72 127.13 246.683 127.057 247.64C127.002 248.582 126.948 249.635 126.893 250.8C126.839 251.964 126.802 253.336 126.784 254.916C126.766 256.482 126.757 258.374 126.757 260.591C126.757 261.409 126.693 262.497 126.566 263.855C126.439 265.199 126.093 266.495 125.53 267.743C125.075 268.685 124.421 269.503 123.567 270.196C122.712 270.889 122.012 271.394 121.467 271.713C120.049 272.531 118.613 273.113 117.159 273.459C115.705 273.82 114.123 274 112.415 274C111.178 274 109.924 273.841 108.652 273.522C107.397 273.217 106.08 272.579 104.698 271.609L107.452 268.99H108.215C108.543 269.503 109.024 270.002 109.661 270.487C110.297 270.986 110.978 271.401 111.706 271.734C112.433 272.08 113.133 272.254 113.805 272.254C115.787 272.254 117.395 271.796 118.631 270.882C119.886 269.981 120.813 268.761 121.413 267.223C122.031 265.698 122.385 264.014 122.476 262.171L121.958 261.88ZM122.476 259.864V248.638C122.403 247.64 121.849 246.905 120.813 246.434C119.795 245.963 118.686 245.727 117.486 245.727C115.85 245.727 114.487 246.046 113.396 246.683C112.324 247.321 111.469 248.146 110.833 249.157C110.215 250.169 109.77 251.229 109.497 252.338C109.242 253.447 109.115 254.479 109.115 255.436C109.115 256.711 109.452 257.833 110.124 258.803C110.797 259.773 111.624 260.529 112.605 261.069C113.587 261.61 114.55 261.88 115.496 261.88C116.35 261.88 117.232 261.769 118.141 261.547C119.049 261.312 119.895 261.035 120.676 260.716C121.458 260.397 122.058 260.113 122.476 259.864Z" fill="#195E4B"/>
<path d="M152.088 245.727L155.06 244.417L155.333 244.625C155.114 247.716 155.005 250.813 155.005 253.918C155.005 254.569 154.978 255.352 154.924 256.267C154.869 257.168 154.878 258.048 154.951 258.907C155.024 259.753 155.224 260.459 155.551 261.028C155.896 261.596 156.441 261.88 157.187 261.88C157.605 261.88 158.159 261.797 158.85 261.631C159.559 261.45 160.213 261.277 160.813 261.111L161.195 262.13C160.45 262.476 159.65 262.843 158.795 263.231C157.941 263.606 157.105 263.924 156.287 264.188C155.469 264.465 154.76 264.603 154.16 264.603C153.124 264.603 152.379 264.361 151.924 263.876C151.488 263.391 151.179 262.795 150.997 262.088L150.152 261.922C148.77 262.601 147.316 263.217 145.789 263.772C144.262 264.326 142.681 264.603 141.045 264.603C139.481 264.603 138.173 264.347 137.118 263.834C136.082 263.321 135.246 262.656 134.61 261.838C133.992 261.007 133.537 260.106 133.246 259.136C132.974 258.152 132.837 257.175 132.837 256.205C132.837 254.694 133.083 253.232 133.574 251.818C134.083 250.405 134.864 249.123 135.919 247.972C136.991 246.822 138.364 245.914 140.036 245.249C141.708 244.584 143.735 244.251 146.116 244.251C147.007 244.251 147.998 244.376 149.088 244.625C150.197 244.875 151.197 245.242 152.088 245.727ZM150.861 259.864V250.072C150.861 249.504 150.824 248.97 150.752 248.471C150.679 247.958 150.425 247.515 149.988 247.141C149.497 246.739 148.916 246.406 148.243 246.143C147.571 245.866 146.88 245.727 146.171 245.727C144.117 245.727 142.354 246.268 140.881 247.349C140.245 247.806 139.6 248.644 138.945 249.864C138.291 251.084 137.927 252.775 137.855 254.937C137.818 255.81 137.909 256.697 138.127 257.598C138.364 258.485 138.8 259.295 139.436 260.03C140.036 260.737 140.845 261.208 141.863 261.443C142.881 261.665 143.908 261.776 144.944 261.776C146.016 261.776 147.062 261.582 148.08 261.194C149.116 260.792 150.043 260.349 150.861 259.864Z" fill="#195E4B"/>
<path d="M172.074 263.314L168.175 264.333L167.33 264.042C167.366 263.502 167.412 262.705 167.466 261.651C167.521 260.598 167.575 259.441 167.63 258.18C167.703 256.918 167.757 255.685 167.794 254.479C167.83 253.273 167.848 252.248 167.848 251.402C167.848 249.989 167.73 248.818 167.494 247.889C167.275 246.961 166.703 246.496 165.776 246.496C165.176 246.496 164.531 246.649 163.84 246.954C163.149 247.245 162.395 247.591 161.577 247.993L160.65 247.058C161.431 246.628 162.267 246.178 163.158 245.706C164.049 245.235 164.94 244.84 165.83 244.521C166.721 244.189 167.503 244.022 168.175 244.022C169.593 244.022 170.575 244.307 171.12 244.875C171.684 245.443 172.038 246.129 172.184 246.933L172.647 247.182C174.21 246.448 175.91 245.755 177.746 245.103C179.6 244.438 181.418 244.106 183.199 244.106C184.017 244.106 184.808 244.196 185.572 244.376C186.335 244.542 186.98 244.868 187.508 245.353C187.871 245.699 188.126 246.316 188.271 247.203C188.416 248.09 188.507 249.081 188.544 250.176C188.598 251.271 188.625 252.276 188.625 253.19C188.625 255.325 188.635 257.002 188.653 258.221C188.671 259.427 188.853 260.279 189.198 260.778C189.562 261.277 190.261 261.527 191.298 261.527C191.934 261.527 192.661 261.346 193.479 260.986C194.297 260.612 195.06 260.224 195.769 259.822H196.478L196.996 260.716C195.724 261.686 194.279 262.559 192.661 263.335C191.043 264.111 189.562 264.499 188.216 264.499C186.69 264.499 185.635 264.132 185.054 263.398C184.49 262.663 184.208 261.783 184.208 260.757L184.481 253.481C184.481 251.347 184.136 249.67 183.445 248.45C182.754 247.231 181.427 246.621 179.464 246.621C178.191 246.621 176.919 246.898 175.646 247.453C174.392 248.007 173.265 248.596 172.265 249.22C172.193 250.758 172.111 252.407 172.02 254.167C171.947 255.928 171.911 257.584 171.911 259.136C171.911 259.732 171.929 260.369 171.965 261.049C172.002 261.714 172.038 262.469 172.074 263.314Z" fill="#195E4B"/>
<path d="M207.93 237.474C207.894 238.181 207.549 238.756 206.894 239.199C206.24 239.643 205.467 239.865 204.577 239.865C203.686 239.865 202.922 239.622 202.286 239.137C201.65 238.652 201.332 238.07 201.332 237.391C201.332 236.656 201.723 236.074 202.504 235.644C203.286 235.215 204.086 235 204.904 235C205.867 235 206.613 235.249 207.14 235.748C207.667 236.247 207.93 236.822 207.93 237.474ZM207.14 247.39L206.703 256.329C206.703 257.896 206.867 259.122 207.194 260.009C207.54 260.882 208.194 261.319 209.157 261.319C210.23 261.319 211.166 261.132 211.966 260.757C212.766 260.369 213.538 259.919 214.284 259.406L215.02 259.822V260.3C214.384 260.924 213.647 261.554 212.811 262.192C211.975 262.829 211.084 263.363 210.139 263.793C209.194 264.208 208.194 264.416 207.14 264.416C206.358 264.416 205.622 264.312 204.931 264.104C204.24 263.897 203.686 263.453 203.268 262.774C202.868 262.081 202.668 261.042 202.668 259.656L203.022 250.238C203.022 249.13 202.877 248.249 202.586 247.598C202.313 246.947 201.804 246.621 201.059 246.621C200.459 246.621 199.732 246.773 198.878 247.078C198.023 247.369 197.26 247.674 196.587 247.993L195.878 247.224C197.151 246.462 198.496 245.741 199.914 245.062C201.35 244.369 202.604 244.022 203.677 244.022C204.949 244.022 205.84 244.348 206.349 244.999C206.876 245.651 207.14 246.448 207.14 247.39Z" fill="#195E4B"/>
<path d="M236.915 244.417H237.27L238.033 244.958C236.506 246.205 234.843 247.64 233.043 249.261C231.244 250.883 229.389 252.615 227.481 254.458C225.59 256.302 223.709 258.173 221.837 260.071L222.136 260.425C223.954 260.563 225.708 260.674 227.399 260.757C229.09 260.841 230.498 260.896 231.625 260.924C232.771 260.951 233.416 260.965 233.561 260.965C235.161 260.965 236.415 260.605 237.324 259.884C238.251 259.164 239.033 258.422 239.669 257.66L240.896 258.159L238.606 261.568C238.042 262.414 237.351 263.107 236.533 263.647C235.715 264.188 234.597 264.444 233.18 264.416C232.998 264.416 232.48 264.389 231.625 264.333C230.771 264.278 229.817 264.201 228.762 264.104C227.726 264.007 226.799 263.931 225.981 263.876L219.437 263.398C218.764 263.398 218.128 263.585 217.528 263.959C216.947 264.319 216.429 264.742 215.974 265.227H215.647L214.802 264.416L231.271 248.201C231.016 248.229 230.744 248.249 230.453 248.263C230.18 248.277 229.898 248.284 229.608 248.284C228.681 248.284 227.581 248.152 226.308 247.889C225.054 247.612 223.918 247.473 222.9 247.473C221.864 247.473 220.991 247.751 220.282 248.305C219.573 248.859 218.792 249.594 217.937 250.509L216.819 249.947L219.601 246.164C220.164 245.512 220.673 245.062 221.128 244.812C221.6 244.549 222.246 244.417 223.064 244.417C224.027 244.417 225.054 244.528 226.145 244.75C227.254 244.958 228.381 245.173 229.526 245.394C230.689 245.616 231.798 245.727 232.852 245.727C233.67 245.727 234.397 245.602 235.034 245.353C235.688 245.103 236.315 244.792 236.915 244.417Z" fill="#195E4B"/>
<path d="M263.609 250.509L247.849 255.706C247.958 256.579 248.267 257.487 248.776 258.429C249.285 259.358 250.049 260.134 251.067 260.757C252.103 261.381 253.439 261.693 255.075 261.693C256.602 261.693 258.092 261.395 259.547 260.799C261.019 260.203 262.391 259.538 263.664 258.803L264.291 258.886L265 259.656C263.855 260.473 262.601 261.263 261.237 262.026C259.874 262.774 258.438 263.391 256.929 263.876C255.42 264.361 253.866 264.603 252.266 264.603C250.412 264.603 248.876 264.305 247.658 263.709C246.459 263.114 245.522 262.324 244.85 261.34C244.177 260.356 243.695 259.261 243.405 258.055C243.132 256.849 242.996 255.65 242.996 254.458C242.996 253.211 243.196 251.991 243.595 250.8C244.014 249.608 244.768 248.527 245.859 247.557C247.24 246.337 248.885 245.394 250.794 244.729C252.703 244.064 254.72 243.731 256.847 243.731C259.265 243.731 261.192 244.3 262.628 245.436C264.064 246.572 264.782 247.965 264.782 249.615C264.782 249.864 264.655 250.051 264.4 250.176C264.164 250.287 263.9 250.398 263.609 250.509ZM250.194 247.224C249.122 248.097 248.422 249.019 248.095 249.989C247.786 250.959 247.631 251.971 247.631 253.024C247.631 253.135 247.64 253.253 247.658 253.377C247.676 253.502 247.704 253.634 247.74 253.772L247.985 253.959L259.247 250.55C259.428 250.495 259.592 250.384 259.737 250.217C259.901 250.037 259.983 249.774 259.983 249.428C259.983 248.832 259.774 248.222 259.356 247.598C258.956 246.974 258.374 246.462 257.611 246.06C256.847 245.644 255.947 245.436 254.911 245.436C253.984 245.436 253.112 245.595 252.294 245.914C251.494 246.219 250.794 246.656 250.194 247.224Z" fill="#195E4B"/>
</svg>
