<svg width="443" height="429" viewBox="0 0 443 429" fill="none" xmlns="http://www.w3.org/2000/svg">
<path d="M70.0782 76.7578C70.0782 76.7578 25.9184 234.993 1.1121 317.103C-0.0632548 320.993 -0.311003 325.104 0.388135 329.108C1.08727 333.111 2.714 336.895 5.13832 340.157C7.56265 343.418 10.7171 346.067 14.3489 347.89C17.9807 349.713 21.9888 350.66 26.0525 350.656H181.019C187.713 350.653 194.149 348.074 198.993 343.455C203.837 338.835 206.717 332.528 207.038 325.842L217.483 105.569L70.0782 76.7578Z" fill="#0F1011"/>
<path d="M307.571 428.744C307.571 428.744 262.496 404.897 272.447 282.208L179.356 265.032C179.356 265.032 189.913 375.015 142.857 409.978L307.571 428.744Z" fill="#EDA59F"/>
<path opacity="0.15" d="M161.906 386.97L239.174 327.74L178.446 327.157C176.703 347.95 171.094 368.236 161.906 386.97V386.97Z" fill="black"/>
<path d="M325.216 234.594C318.808 271.818 298.528 307.084 265.706 319.133C229.935 333.373 191.222 338.639 152.947 334.473C51.0481 326.212 70.9955 94.4954 119.332 49.4467C167.669 4.39809 309.661 32.7721 326.999 108.03C335.965 146.955 331.316 199.188 325.216 234.594Z" fill="#EDA59F"/>
<path d="M179.426 206.05C184.088 206.05 187.867 202.271 187.867 197.608C187.867 192.946 184.088 189.166 179.426 189.166C174.764 189.166 170.984 192.946 170.984 197.608C170.984 202.271 174.764 206.05 179.426 206.05Z" fill="#0F1011"/>
<path d="M112.828 200.651C117.49 200.651 121.27 196.871 121.27 192.209C121.27 187.546 117.49 183.767 112.828 183.767C108.166 183.767 104.387 187.546 104.387 192.209C104.387 196.871 108.166 200.651 112.828 200.651Z" fill="#0F1011"/>
<path d="M120.551 169.963L98.1855 170.266" stroke="#0F1011" stroke-width="1.362" stroke-miterlimit="10" stroke-linecap="round"/>
<path d="M197.633 178.329L175.582 173.045" stroke="#0F1011" stroke-width="1.362" stroke-miterlimit="10" stroke-linecap="round"/>
<path d="M175.585 264.098C175.585 264.098 144.429 267.413 122.57 259.804C122.57 259.804 122.763 280.324 147.423 282.328C172.084 284.332 175.585 264.098 175.585 264.098Z" fill="white"/>
<g opacity="0.15">
<path opacity="0.15" d="M141.989 244.47C142.69 244.475 143.37 244.227 143.903 243.771C144.436 243.315 144.786 242.683 144.89 241.989C144.995 241.296 144.845 240.588 144.469 239.996C144.094 239.403 143.517 238.967 142.845 238.766L125.676 233.522L137.66 206.762C137.836 206.41 137.938 206.027 137.962 205.635C137.985 205.243 137.929 204.85 137.797 204.48C137.664 204.11 137.458 203.77 137.192 203.482C136.925 203.194 136.602 202.962 136.244 202.802C135.885 202.641 135.497 202.555 135.105 202.548C134.712 202.541 134.322 202.614 133.958 202.762C133.594 202.91 133.263 203.13 132.986 203.409C132.71 203.688 132.492 204.02 132.347 204.385L117.666 237.164L141.138 244.353C141.414 244.434 141.701 244.473 141.989 244.47V244.47Z" fill="black"/>
</g>
<path d="M64.7656 95.726C64.7656 95.726 79.6855 -24.9532 273.039 4.68491C321.241 12.0726 389.555 49.7102 400.624 173.064C405.681 229.648 425.185 282.999 440.065 316.768C441.826 320.733 442.569 325.074 442.226 329.399C441.884 333.724 440.467 337.894 438.104 341.532C435.741 345.17 432.507 348.161 428.696 350.232C424.884 352.303 420.616 353.389 416.278 353.392L280.362 353.439C276.946 353.445 273.563 352.778 270.406 351.477C267.248 350.175 264.378 348.265 261.959 345.854C259.539 343.443 257.619 340.579 256.306 337.426C254.993 334.273 254.314 330.892 254.308 327.477C254.308 327.092 254.308 326.708 254.308 326.312C255.287 303.176 256.056 264.006 254.74 204.135C247.673 169.964 266.496 145.873 239.173 153.726C137.722 182.84 72.3858 97.6778 64.7656 95.726Z" fill="#0F1011"/>
<path d="M222.088 233.961C221.321 243.422 224.343 252.801 230.49 260.033C236.637 267.266 245.406 271.76 254.867 272.527C264.327 273.295 273.705 270.272 280.937 264.124C288.169 257.976 292.663 249.207 293.43 239.746C294.337 230.458 291.519 221.191 285.596 213.98C279.673 206.77 271.129 202.206 261.843 201.293C261.447 201.258 261.051 201.223 260.678 201.2C235.143 200.355 223.69 214.256 222.088 233.961Z" fill="#EDA59F"/>
</svg>
