<svg width="563" height="360" viewBox="0 0 563 360" fill="none" xmlns="http://www.w3.org/2000/svg">
<path d="M492.672 24.7092L513.261 331.631C513.502 335.249 512.998 338.878 511.78 342.294C510.562 345.709 508.655 348.838 506.178 351.486C503.701 354.134 500.706 356.245 497.38 357.688C494.054 359.132 490.466 359.877 486.84 359.877H58.1945C51.6442 359.878 45.3258 357.45 40.4618 353.062C35.5978 348.675 32.5336 342.639 31.8617 336.123L0.140118 29.2012C-0.240745 25.5138 0.156964 21.7876 1.30713 18.2636C2.4573 14.7396 4.33446 11.4964 6.81719 8.74384C9.29993 5.99126 12.3329 3.79063 15.7198 2.28442C19.1068 0.778203 22.7719 -4.55445e-05 26.4786 8.26537e-09H466.258C472.974 -0.00016771 479.438 2.55207 484.342 7.13987C489.247 11.7277 492.224 18.0081 492.672 24.7092V24.7092Z" fill="#9EBCEA"/>
<path d="M94.0015 359.889L544.372 359.889C554.578 359.889 562.852 351.614 562.852 341.408C562.852 331.201 554.578 322.927 544.372 322.927L94.0015 322.927C83.7956 322.927 75.5221 331.201 75.5221 341.408C75.5221 351.614 83.7956 359.889 94.0015 359.889Z" fill="#9EBCEA"/>
<path d="M245.345 220.735C267.868 220.735 286.126 202.475 286.126 179.951C286.126 157.427 267.868 139.167 245.345 139.167C222.823 139.167 204.564 157.427 204.564 179.951C204.564 202.475 222.823 220.735 245.345 220.735Z" fill="white"/>
</svg>
