<svg width="925" height="2185" viewBox="0 0 925 2185" fill="none" xmlns="http://www.w3.org/2000/svg">
<path d="M589.433 2135.5L495.387 2124.32C499.621 2088.72 504.406 2045.96 504.726 2038.95C504.726 2039.4 504.726 2039.77 504.726 2040.06H599.431C599.413 2042.89 599.413 2051.53 589.433 2135.5Z" fill="#EDA59F"/>
<path d="M212.074 2146.82L117.369 2146.51C117.369 2146.51 117.685 2048.71 117.685 2040.05H212.39C212.39 2048.74 212.074 2146.82 212.074 2146.82Z" fill="#EDA59F"/>
<path d="M624.372 2102.75C616.534 1904.28 616.06 1695.82 613.603 1496.81C581.033 1282.17 563.91 1046.75 523.705 833.63L522.501 833.986L518.979 809.949L175.891 788.774L162.542 1012.92H163.823C146.55 1313.19 113.165 1795.91 92.9609 2100.21L259.231 2114.26C288.928 1814.99 332.839 1338.22 359.672 1043.25C389.121 1193.55 421.397 1362.8 447.544 1514.89C453.267 1709.17 458.057 1911.63 457.534 2105.59L624.372 2102.75Z" fill="#55AFFC"/>
<path d="M327.203 2183.45C329.636 2183.44 332.043 2182.95 334.286 2182.01C336.529 2181.07 338.565 2179.69 340.277 2177.96C341.989 2176.24 343.343 2174.19 344.263 2171.93C345.183 2169.68 345.651 2167.27 345.639 2164.84C345.639 2164.39 345.639 2163.94 345.585 2163.48C345.312 2159.97 344.039 2156.6 341.915 2153.78C339.791 2150.96 336.905 2148.8 333.598 2147.57L223.366 2110.65C221.231 2109.94 218.968 2109.71 216.733 2109.95C214.497 2110.2 212.342 2110.93 210.414 2112.09C195.261 2122.61 177.133 2127.98 158.696 2127.42C144.338 2126.4 130.556 2121.37 118.92 2112.89C117.897 2112.05 116.657 2111.52 115.344 2111.36C114.031 2111.2 112.699 2111.42 111.504 2111.98C110.309 2112.55 109.3 2113.45 108.595 2114.57C107.889 2115.68 107.516 2116.98 107.52 2118.3V2172.21C107.52 2175.41 108.792 2178.48 111.057 2180.75C113.322 2183.01 116.394 2184.28 119.597 2184.28H119.646L327.203 2183.45Z" fill="#C1D8ED"/>
<path d="M704.818 2183.45C707.251 2183.44 709.658 2182.95 711.901 2182.01C714.144 2181.07 716.18 2179.69 717.892 2177.96C719.604 2176.23 720.959 2174.19 721.879 2171.93C722.799 2169.68 723.266 2167.27 723.254 2164.84C723.254 2164.39 723.254 2163.93 723.2 2163.48C722.93 2159.96 721.657 2156.59 719.532 2153.77C717.407 2150.95 714.519 2148.8 711.209 2147.57L600.981 2110.65C598.846 2109.94 596.582 2109.7 594.346 2109.95C592.11 2110.2 589.954 2110.93 588.025 2112.08C572.872 2122.6 554.746 2127.97 536.312 2127.42C521.952 2126.4 508.169 2121.36 496.531 2112.89C495.509 2112.05 494.269 2111.52 492.956 2111.36C491.643 2111.19 490.311 2111.41 489.116 2111.98C487.921 2112.54 486.912 2113.44 486.207 2114.56C485.503 2115.68 485.13 2116.98 485.135 2118.3V2172.2C485.135 2175.4 486.407 2178.48 488.672 2180.74C490.937 2183.01 494.009 2184.28 497.212 2184.28H497.262L704.818 2183.45Z" fill="#C1D8ED"/>
<path d="M342.912 117.303L327.471 122.489C327.471 122.489 329.487 177.258 335.191 205.12C340.896 232.983 345.343 269.287 363.071 273.274C386.598 278.569 414.662 280.522 435.051 273.234C450.469 267.722 452.837 215.371 454.343 189.516C455.015 178.029 453.554 179.03 442.077 179.815C418.59 181.429 382.061 182.67 368.613 176.207C348.125 166.375 342.912 117.303 342.912 117.303Z" fill="#0F1011"/>
<path d="M285.824 322.554C285.824 322.554 320.698 304.063 312.91 209.102L384.958 195.739C384.958 195.739 376.84 280.882 413.315 307.91L285.824 322.554Z" fill="#EDA59F"/>
<path d="M272.028 172.279C277.015 201.089 292.736 228.374 318.153 237.673C348.319 248.722 370.665 249.471 405.449 249.471C452.914 249.471 451.344 199.966 452.679 150.077C454.032 100.016 453.725 57.6996 434.965 40.2462C397.534 5.40693 283.929 16.0369 270.557 74.3052C263.644 104.441 267.279 144.854 272.028 172.279Z" fill="#EDA59F"/>
<path d="M249.171 135.22C256.102 179.016 265.18 192.83 278.286 213.765C286.052 226.849 296.48 238.156 308.893 246.954C318.553 253.173 413.312 251.883 429.669 249.493C453.805 245.961 457.463 177.194 453.151 177.194C447.785 177.194 446.508 177.05 440.465 177.05C429.439 177.05 428.339 111.353 426.26 82.2869C427.954 82.0511 429.663 81.932 431.374 81.9306C483.258 81.9125 237.536 61.699 249.171 135.22Z" fill="#0F1011"/>
<path d="M416.968 178.453C409.903 178.633 403.038 176.103 397.78 171.382C392.522 166.66 389.27 160.105 388.692 153.062C388.333 149.506 388.679 145.915 389.709 142.493C390.739 139.071 392.433 135.886 394.695 133.119C396.957 130.352 399.741 128.058 402.89 126.368C406.038 124.678 409.489 123.625 413.044 123.269C413.288 123.242 413.536 123.224 413.779 123.206C414.42 142.869 415.434 163.565 416.968 178.453Z" fill="#EDA59F"/>
<path d="M249.17 135.221C249.17 135.221 224.845 12.1945 342.4 0.824913C459.956 -10.5446 452.889 99.3714 452.889 99.3714L406.249 123.166C406.249 123.166 354.184 137.449 249.17 135.221Z" fill="#55AFFC"/>
<path d="M265.934 120.911C265.65 110.218 269.621 99.8493 276.976 92.0821C284.33 84.3148 294.467 79.7843 305.159 79.4855C315.852 79.1867 326.225 83.1442 334.002 90.4886C341.779 97.8331 346.323 107.964 346.636 118.656" fill="#0F1011"/>
<path d="M406.273 123.139C406.273 123.139 444.633 110.205 465.162 98.0822C487.021 85.1702 516.573 61.7141 516.424 54.7327C516.154 42.5559 473.631 39.1599 438.892 40.5354L439.159 41.0541C444.949 52.5207 446.564 65.6469 443.724 78.1752C440.885 90.7035 433.769 101.851 423.6 109.7L406.273 123.139Z" fill="#55AFFC"/>
<path d="M74.9014 951.28C74.9014 964.72 81.9952 1009.65 70.581 1012.86C63.7397 1014.78 55.6582 981.289 55.6582 981.289" fill="#EDA59F"/>
<path d="M21.0318 944.223C21.0318 944.223 -16.2367 1034.94 26.2721 1087.05C27.3549 1088.37 28.8117 1089.34 30.4525 1089.82C32.0933 1090.31 33.842 1090.29 35.4708 1089.76C37.0995 1089.24 38.5327 1088.24 39.5835 1086.89C40.6342 1085.54 41.254 1083.9 41.3617 1082.2C43.4272 1047.06 50.5119 974.886 73.6785 983.315V926.634" fill="#EDA59F"/>
<path d="M861.403 460.92C861.403 460.92 913.455 419.572 917.135 404.721C920.814 389.87 884.159 360.659 884.159 360.659C884.159 360.659 932.901 311.501 923.182 304.402C911.709 295.996 855.153 367.46 855.153 367.46C855.153 367.46 863.144 341.754 853.186 340.062C849.096 339.372 845.853 343.386 839.45 361.584C832.153 382.329 817.568 413.516 817.568 413.516L861.403 460.92Z" fill="#EDA59F"/>
<path d="M806.592 405.939L652.638 579.166L532.227 363.591C520.827 329.536 494.868 306.725 441.929 304.457C423.822 303.681 335.471 303.555 270.784 303.555C227.328 303.555 191.651 316.886 171.046 337.492C160.668 347.719 152.903 360.294 148.407 374.153L147.78 373.923L44.2678 655.42C43.1084 658.577 42.2743 661.844 41.7784 665.17L0 946.653L97.2708 961.085L138.31 684.604L180.115 570.922C184.466 588.396 186.844 606.302 187.204 624.306C187.204 719.014 144.362 761.489 147.518 810.115C152.479 886.536 523.762 868.478 542.681 825.07C562.159 780.305 522.626 752.722 524.358 606.293C524.543 590.36 525.774 573.691 527.47 556.72L600.527 687.508C604.352 694.358 609.76 700.193 616.301 704.525C622.841 708.858 630.323 711.562 638.122 712.412C645.92 713.261 653.809 712.232 661.129 709.41C668.449 706.588 674.987 702.055 680.197 696.19L882.612 459.418L806.592 405.939Z" fill="#2F3235"/>
</svg>
