<svg width="968" height="2254" viewBox="0 0 968 2254" fill="none" xmlns="http://www.w3.org/2000/svg">
<path d="M711.17 121.122L727.115 126.478C727.115 126.478 725.033 183.032 719.142 211.798C713.251 240.564 708.66 278.057 690.359 282.178C666.06 287.645 637.081 289.662 616.028 282.136C600.106 276.445 597.661 222.387 596.106 195.685C595.412 183.828 596.921 184.857 608.772 185.672C633.025 187.339 670.744 188.62 684.631 181.947C705.768 171.799 711.17 121.122 711.17 121.122Z" fill="#0F1011"/>
<path d="M770.129 333.06C770.129 333.06 734.118 313.967 742.16 215.905L667.764 202.111C667.764 202.111 676.123 290.025 638.482 317.939L770.129 333.06Z" fill="#EDA59F"/>
<path d="M784.37 177.891C779.22 207.644 762.986 235.814 736.741 245.417C705.592 256.826 682.517 257.595 646.6 257.595C597.588 257.595 599.208 206.48 597.83 154.965C596.433 103.273 596.749 59.572 616.121 41.5496C654.773 5.57929 772.081 16.5557 785.888 76.7235C793.027 107.851 789.274 149.577 784.37 177.891Z" fill="#EDA59F"/>
<path d="M807.973 139.629C800.815 184.852 791.441 199.112 777.909 220.734C769.888 234.237 759.12 245.904 746.303 254.981C736.329 261.408 638.481 260.076 621.591 257.603C596.668 253.961 592.891 182.952 597.343 182.952C602.885 182.952 604.202 182.803 610.443 182.803C621.828 182.803 622.965 114.965 625.111 84.9512C623.362 84.7086 621.597 84.5857 619.831 84.5833C566.255 84.5833 819.987 63.7109 807.973 139.629Z" fill="#0F1011"/>
<path d="M634.701 184.265C641.995 184.453 649.085 181.841 654.514 176.967C659.944 172.092 663.302 165.324 663.899 158.051C664.275 154.317 663.899 150.545 662.793 146.959C661.687 143.373 659.874 140.044 657.46 137.17C655.047 134.296 652.082 131.934 648.741 130.225C645.4 128.516 641.75 127.493 638.008 127.218C637.356 147.522 636.284 168.897 634.701 184.265Z" fill="#EDA59F"/>
<path d="M807.97 139.629C807.97 139.629 833.089 12.592 711.702 0.851804C590.314 -10.8884 597.611 102.611 597.611 102.611L645.776 127.158C645.776 127.158 699.533 141.929 807.97 139.629Z" fill="#55AFFC"/>
<path d="M790.659 124.856C790.819 119.379 789.898 113.925 787.949 108.805C786 103.684 783.06 98.9987 779.299 95.0154C775.537 91.0321 771.027 87.8293 766.027 85.5905C761.027 83.3516 755.634 82.1205 750.158 81.9674C744.682 81.8144 739.229 82.7426 734.112 84.6987C728.994 86.6549 724.312 89.6007 720.334 93.3678C716.356 97.1348 713.16 101.649 710.928 106.653C708.696 111.656 707.472 117.05 707.326 122.527" fill="#0F1011"/>
<path d="M645.752 127.148C645.752 127.148 606.137 113.792 584.94 101.274C562.369 87.9461 531.853 63.7253 532.006 56.5164C532.286 43.9426 576.194 40.4359 612.065 41.8563L611.791 42.3918C605.817 54.2292 604.152 67.7779 607.083 80.7093C610.014 93.6408 617.358 105.148 627.852 113.252L645.752 127.148Z" fill="#55AFFC"/>
<path d="M454.712 2203.46C444.402 2116.76 444.402 2107.84 444.402 2104.91H542.194C542.194 2104.61 542.194 2104.23 542.194 2103.76C542.539 2111 547.475 2155.15 551.848 2191.91L454.712 2203.46Z" fill="#EDA59F"/>
<path d="M844.385 2215.15C844.385 2215.15 844.055 2113.87 844.055 2104.91H941.846C941.846 2113.85 942.177 2214.81 942.177 2214.83L844.385 2215.15Z" fill="#EDA59F"/>
<path d="M390.352 626.103C376.54 624.771 331.063 613.021 326.634 624.435C323.975 631.281 357.587 642.905 357.587 642.905" fill="#EDA59F"/>
<path d="M392.256 682.186C392.256 682.186 295.326 711.497 245.983 662.627C244.726 661.381 243.874 659.785 243.539 658.047C243.205 656.309 243.403 654.51 244.107 652.886C244.812 651.263 245.99 649.89 247.488 648.947C248.986 648.005 250.734 647.536 252.502 647.603C288.825 648.963 363.706 648.838 357.335 624.188L415.545 629.809" fill="#EDA59F"/>
<path d="M795.681 2181.53L967.371 2167.03C946.452 1847.02 912.789 1325.03 895.526 1044.31C891.964 986.443 881.742 812.827 881.742 812.827L527.466 834.715L523.829 859.536L522.586 859.169C481.048 1079.38 463.37 1322.59 429.698 1544.36C427.327 1749.74 426.675 1964.85 418.643 2169.66L590.914 2172.6C590.369 1972.68 595.334 1763.51 601.22 1563C630.604 1403.1 662.935 1235.76 696.748 1074.29C726.281 1406.83 764.56 1863.92 795.681 2181.53Z" fill="#55AFFC"/>
<path d="M725.492 2252.98C722.862 2252.96 720.263 2252.41 717.857 2251.35C715.451 2250.28 713.291 2248.74 711.51 2246.8C709.728 2244.87 708.365 2242.58 707.505 2240.1C706.645 2237.61 706.307 2234.98 706.511 2232.36C706.794 2228.72 708.11 2225.24 710.304 2222.33C712.497 2219.42 715.478 2217.2 718.893 2215.92L832.713 2177.8C834.919 2177.07 837.256 2176.82 839.565 2177.08C841.875 2177.33 844.101 2178.09 846.092 2179.29C861.739 2190.14 880.456 2195.69 899.491 2195.12C914.319 2194.07 928.552 2188.87 940.568 2180.11C941.624 2179.25 942.904 2178.7 944.26 2178.53C945.616 2178.37 946.991 2178.59 948.225 2179.17C949.459 2179.76 950.5 2180.69 951.228 2181.84C951.956 2183 952.34 2184.34 952.336 2185.7V2241.36C952.337 2243 952.013 2244.63 951.383 2246.15C950.753 2247.66 949.83 2249.04 948.667 2250.2C947.503 2251.36 946.122 2252.28 944.603 2252.9C943.083 2253.52 941.456 2253.84 939.814 2253.83L725.492 2252.98Z" fill="#C1D8ED"/>
<path d="M335.57 2252.98C332.94 2252.96 330.341 2252.41 327.935 2251.35C325.529 2250.29 323.368 2248.74 321.586 2246.8C319.805 2244.87 318.442 2242.59 317.582 2240.1C316.723 2237.61 316.384 2234.98 316.589 2232.36C316.873 2228.72 318.188 2225.24 320.381 2222.33C322.574 2219.42 325.553 2217.2 328.967 2215.92L442.792 2177.8C444.996 2177.07 447.333 2176.82 449.642 2177.08C451.95 2177.33 454.176 2178.09 456.166 2179.29C471.815 2190.14 490.533 2195.69 509.57 2195.12C524.396 2194.07 538.628 2188.87 550.642 2180.11C551.698 2179.25 552.979 2178.7 554.335 2178.53C555.691 2178.37 557.066 2178.59 558.3 2179.18C559.534 2179.76 560.576 2180.69 561.304 2181.84C562.033 2183 562.418 2184.34 562.415 2185.7V2241.36C562.415 2243 562.09 2244.63 561.46 2246.15C560.83 2247.66 559.907 2249.04 558.744 2250.2C557.58 2251.36 556.2 2252.28 554.681 2252.9C553.162 2253.52 551.535 2253.84 549.893 2253.83L335.57 2252.98Z" fill="#C1D8ED"/>
<path d="M146.234 646.31C132.361 646.678 85.7893 640.577 82.7903 652.448C80.9882 659.564 115.774 666.992 115.774 666.992" fill="#EDA59F"/>
<path d="M207.663 689.9C208.194 709.99 167.936 723.249 110.588 724.762C53.2405 726.276 0.535413 715.448 0.00454366 695.386C-0.526326 675.324 45.529 657.786 102.872 656.268C160.215 654.749 207.132 669.81 207.663 689.9Z" fill="#EDA59F"/>
<path d="M927.57 690.247L915.257 429.98C915.828 420.129 915.36 410.245 913.86 400.492L913.819 399.588H913.688C910.568 379.575 901.121 361.087 886.73 346.834C865.458 325.557 828.619 311.786 783.741 311.786C716.945 311.786 625.719 311.931 607.023 312.718C545.819 315.339 519.532 344.543 510.162 386.87L397.394 630.638L128.998 636.282L131.052 734.078L429.973 727.787C436.818 727.642 443.556 726.061 449.752 723.147C455.947 720.232 461.461 716.049 465.937 710.868L517.161 714.943C507.466 790.474 487.796 815.338 503.019 850.316C522.549 895.139 905.935 913.785 911.057 834.873C912.92 805.842 898.95 778.92 886.791 742.466C898.714 740.094 909.389 733.521 916.876 723.943C924.363 714.366 928.165 702.419 927.588 690.275L927.57 690.247ZM521.613 613.734L513.292 613.04L520.742 596.945C521.133 602.617 521.408 608.206 521.613 613.743V613.734Z" fill="#2F3235"/>
</svg>
