<svg width="8772" height="2949" viewBox="0 0 8772 2949" fill="none" xmlns="http://www.w3.org/2000/svg">
<g id="Group 68">
<g id="girl-head">
<path id="Vector" d="M7769.08 1565.76C7769.08 1565.76 7724.92 1723.99 7700.11 1806.1C7698.94 1809.99 7698.69 1814.1 7699.39 1818.11C7700.09 1822.11 7701.71 1825.9 7704.14 1829.16C7706.56 1832.42 7709.72 1835.07 7713.35 1836.89C7716.98 1838.71 7720.99 1839.66 7725.05 1839.66H7880.02C7886.71 1839.65 7893.15 1837.07 7897.99 1832.45C7902.84 1827.83 7905.72 1821.53 7906.04 1814.84L7916.48 1594.57L7769.08 1565.76Z" fill="#0F1011"/>
<path id="Vector_2" d="M8006.57 1917.74C8006.57 1917.74 7961.5 1893.9 7971.45 1771.21L7878.36 1754.03C7878.36 1754.03 7888.91 1864.01 7841.86 1898.98L8006.57 1917.74Z" fill="#FFDEDB"/>
<path id="Vector_3" opacity="0.15" d="M7860.91 1875.97L7938.17 1816.74L7877.45 1816.16C7875.7 1836.95 7870.09 1857.24 7860.91 1875.97Z" fill="black"/>
<path id="Vector_4" d="M8024.22 1723.59C8017.81 1760.82 7997.53 1796.08 7964.71 1808.13C7928.93 1822.37 7890.22 1827.64 7851.95 1823.47C7750.05 1815.21 7770 1583.5 7818.33 1538.45C7866.67 1493.4 8008.66 1521.77 8026 1597.03C8034.97 1635.96 8030.32 1688.19 8024.22 1723.59Z" fill="#FFDEDB"/>
<g id="Group">
<path id="Vector_5" d="M7875.24 1693.09C7879.9 1693.09 7883.68 1689.31 7883.68 1684.65C7883.68 1679.98 7879.9 1676.2 7875.24 1676.2C7870.58 1676.2 7866.8 1679.98 7866.8 1684.65C7866.8 1689.31 7870.58 1693.09 7875.24 1693.09Z" fill="#0F1011"/>
<path id="Vector_6" d="M7808.64 1687.69C7813.3 1687.69 7817.08 1683.91 7817.08 1679.25C7817.08 1674.58 7813.3 1670.8 7808.64 1670.8C7803.98 1670.8 7800.2 1674.58 7800.2 1679.25C7800.2 1683.91 7803.98 1687.69 7808.64 1687.69Z" fill="#0F1011"/>
<path id="Vector_7" d="M7816.37 1657L7794 1657.3" stroke="#0F1011" stroke-width="1.362" stroke-miterlimit="10" stroke-linecap="round"/>
<path id="Vector_8" d="M7893.45 1665.37L7871.4 1660.08" stroke="#0F1011" stroke-width="1.362" stroke-miterlimit="10" stroke-linecap="round"/>
<path id="Vector_9" d="M7871.4 1751.13C7871.4 1751.13 7840.24 1754.45 7818.38 1746.84C7818.38 1746.84 7818.58 1767.36 7843.24 1769.36C7867.9 1771.37 7871.4 1751.13 7871.4 1751.13Z" fill="white"/>
</g>
<g id="Group_2" opacity="0.15">
<path id="Vector_10" opacity="0.15" d="M7840.99 1733.47C7841.69 1733.47 7842.37 1733.23 7842.9 1732.77C7843.44 1732.32 7843.79 1731.68 7843.89 1730.99C7843.99 1730.3 7843.85 1729.59 7843.47 1729C7843.09 1728.4 7842.52 1727.97 7841.85 1727.77L7824.68 1722.52L7836.66 1695.76C7836.84 1695.41 7836.94 1695.03 7836.96 1694.63C7836.99 1694.24 7836.93 1693.85 7836.8 1693.48C7836.66 1693.11 7836.46 1692.77 7836.19 1692.48C7835.92 1692.19 7835.6 1691.96 7835.24 1691.8C7834.88 1691.64 7834.5 1691.56 7834.1 1691.55C7833.71 1691.54 7833.32 1691.61 7832.96 1691.76C7832.59 1691.91 7832.26 1692.13 7831.99 1692.41C7831.71 1692.69 7831.49 1693.02 7831.35 1693.38L7816.67 1726.16L7840.14 1733.35C7840.41 1733.43 7840.7 1733.47 7840.99 1733.47Z" fill="black"/>
</g>
<path id="Vector_11" d="M7763.77 1584.73C7763.77 1584.73 7778.69 1464.05 7972.04 1493.68C8020.24 1501.07 8088.55 1538.71 8099.62 1662.06C8104.68 1718.65 8124.19 1772 8139.06 1805.77C8140.83 1809.73 8141.57 1814.07 8141.23 1818.4C8140.88 1822.72 8139.47 1826.89 8137.1 1830.53C8134.74 1834.17 8131.51 1837.16 8127.7 1839.23C8123.88 1841.3 8119.62 1842.39 8115.28 1842.39L7979.36 1842.44C7975.95 1842.44 7972.56 1841.78 7969.41 1840.48C7966.25 1839.18 7963.38 1837.26 7960.96 1834.85C7958.54 1832.44 7956.62 1829.58 7955.31 1826.43C7953.99 1823.27 7953.31 1819.89 7953.31 1816.48C7953.31 1816.09 7953.31 1815.71 7953.31 1815.31C7954.29 1792.18 7955.06 1753.01 7953.74 1693.14C7946.67 1658.96 7965.5 1634.87 7938.17 1642.73C7836.72 1671.84 7771.39 1586.68 7763.77 1584.73Z" fill="#0F1011"/>
<path id="Vector_12" d="M7921.09 1722.96C7920.32 1732.42 7923.34 1741.8 7929.49 1749.03C7935.64 1756.27 7944.41 1760.76 7953.87 1761.53C7963.33 1762.29 7972.71 1759.27 7979.94 1753.12C7987.17 1746.98 7991.66 1738.21 7992.43 1728.75C7993.34 1719.46 7990.52 1710.19 7984.6 1702.98C7978.67 1695.77 7970.13 1691.21 7960.84 1690.29C7960.45 1690.26 7960.05 1690.22 7959.68 1690.2C7934.14 1689.35 7922.69 1703.26 7921.09 1722.96Z" fill="#FFDEDB"/>
</g>
<g id="Layer 8">
<path id="Vector_13" d="M759.94 2775.61C651.608 2775.71 554.871 2710.06 518.143 2611.54C439.383 2399.43 369.993 2006.52 678.363 1581.53C1019.34 1111.61 1701.44 625.815 2181.22 576.048C2932.85 498.121 3142.94 1345.32 3480.18 1542.46C3771.57 1712.8 4193.54 1968.22 4248.69 2502.06C4262.9 2638.71 4159.83 2760.62 4018.49 2774.35C4009.99 2775.18 4001.45 2775.59 3992.9 2775.6L759.94 2775.61Z" fill="#F3F5FD"/>
</g>
<path id="Vector_14" d="M784.181 58.1839H2292.97V2770.82H784.181V58.1839ZM726 0V2829H2351.15V0H726Z" fill="#C1D8ED"/>
<g id="Vector_15" filter="url(#filter0_d)">
<path d="M764.001 2771.63H2272.79L2272.79 58.9998H764.001L764.001 2771.63Z" fill="#DEE8F5"/>
</g>
<path id="Vector_16" d="M239.019 2750.83C174.53 2730.84 111.962 2704.72 54.9519 2631.62C43.2529 2616.64 32.2605 2597.45 38.6717 2579.52C43.4971 2566.03 57.4558 2557.38 71.6391 2555.18C76.922 2554.41 82.2766 2554.27 87.5938 2554.74C87.6198 2554.74 87.6458 2554.76 87.6556 2554.74C95.8254 2555.58 103.902 2557.16 111.783 2559.47L114.036 2560.12C151.662 2570.82 187.505 2587.01 220.405 2608.17C223.386 2610.07 226.922 2610.9 230.439 2610.54C233.955 2610.17 237.244 2608.63 239.772 2606.16C242.3 2603.68 243.917 2600.43 244.362 2596.92C244.806 2593.42 244.052 2589.86 242.22 2586.84C238.864 2581.35 234.958 2576.23 230.563 2571.53C224.083 2564.75 216.982 2558.6 209.354 2553.14C199.217 2545.74 188.398 2539.14 177.812 2532.39C138.46 2507.32 101.179 2479.15 66.3253 2448.13C41.4491 2425.97 17.1199 2401.38 5.29722 2370.22C-0.137121 2355.89 -2.60846 2339.37 3.87107 2325.49C14.5639 2302.69 44.8549 2296.31 69.6236 2301.04C113.027 2309.35 147.7 2341.17 178.447 2372.88C203.945 2399.23 232.514 2428.41 269.148 2430.03C275.393 2430.61 281.672 2429.35 287.209 2426.41C297.657 2420.08 300.344 2405.41 296.619 2393.77C292.894 2382.12 284.278 2372.82 275.956 2363.88C227.61 2312 180.023 2258.03 148.625 2194.45C117.227 2130.88 103.317 2055.83 125.136 1988.34C131.534 1968.6 141.146 1949.41 156.14 1935.07C171.134 1920.74 192.162 1911.75 212.746 1914.49C240.791 1918.18 261.913 1941.86 276.122 1966.29C324.963 2050.15 321.977 2152.9 335.734 2248.96C339.586 2275.85 345.176 2303.43 361.196 2325.57C362.673 2327.69 364.589 2329.48 366.816 2330.81C379.996 2338.44 391.826 2323.05 396.771 2309.99C416.308 2258.32 421.192 2199.22 456.171 2156.46C469.521 2140.17 488.406 2126.57 509.453 2126.7C535.16 2126.88 557.171 2148.35 564.673 2172.94C572.175 2197.53 567.685 2224.25 559.649 2248.66C544.729 2293.94 517.991 2334.63 486.482 2370.38C469.876 2389.27 451.086 2408.33 446.107 2432.96C444.581 2441.33 445.219 2449.95 447.962 2458.01C450.705 2466.06 455.461 2473.28 461.778 2478.98C464.732 2481.55 468.172 2483.5 471.893 2484.72C475.615 2485.94 479.542 2486.39 483.444 2486.07C491.884 2485.29 499.516 2480.99 506.871 2476.81C509.961 2475.05 513.058 2473.26 516.174 2471.51C528.46 2464.52 540.748 2457.51 553.039 2450.5C584.281 2432.68 622.005 2414.47 654.546 2429.82C671.152 2437.66 682.034 2453.09 687.149 2470.8C691.731 2486.87 691.731 2503.9 687.149 2519.97C677.456 2553.38 616.359 2646.38 591.161 2670.36C561.736 2698.38 459.691 2819.22 239.019 2750.83Z" fill="#8DDBE0"/>
<g id="Group_3">
<g id="Group_4">
<path id="Vector_17" d="M2843.66 2262.76L2741.13 2762.86C2740.47 2765.47 2738.96 2767.78 2736.84 2769.44C2734.71 2771.09 2732.1 2771.99 2729.41 2771.99C2727.57 2771.99 2725.76 2771.57 2724.1 2770.77C2722.45 2769.96 2721.01 2768.79 2719.88 2767.34C2718.75 2765.89 2717.96 2764.21 2717.58 2762.41C2717.2 2760.61 2717.24 2758.75 2717.68 2756.97L2821.69 2251.09L2843.66 2262.76Z" fill="#C1D8ED"/>
<path id="Vector_18" d="M3084.55 2261.95L3187.08 2762.05C3187.73 2764.66 3189.24 2766.98 3191.37 2768.63C3193.49 2770.29 3196.11 2771.19 3198.8 2771.19C3200.64 2771.19 3202.45 2770.77 3204.1 2769.96C3205.75 2769.16 3207.2 2767.99 3208.33 2766.54C3209.46 2765.09 3210.24 2763.4 3210.62 2761.6C3211 2759.81 3210.97 2757.95 3210.52 2756.16L3106.53 2250.29L3084.55 2261.95Z" fill="#C1D8ED"/>
</g>
<path id="Vector_19" d="M3192.31 2213.84H2735.89C2724.35 2213.84 2715 2223.2 2715 2234.74V2280.74C2715 2292.28 2724.35 2301.63 2735.89 2301.63H3192.31C3203.85 2301.63 3213.21 2292.28 3213.21 2280.74V2234.74C3213.21 2223.2 3203.85 2213.84 3192.31 2213.84Z" fill="#DEE8F5"/>
</g>
<g id="Group_5">
<path id="Vector_20" d="M3062.58 1982.54C3048.93 1978.07 3034.93 1983.08 3021.53 1993.28C3039.18 1948.71 3046.47 1908.46 3016.3 1906.65C2995.18 1905.38 2979.01 1921.58 2966.73 1944.6C2962.41 1904.12 2951.26 1873.92 2926.29 1883.93C2898.87 1894.92 2894.7 1932.59 2898.86 1972C2886.78 1951.87 2873.79 1940.65 2861.97 1952.46C2826.73 1987.7 2913.23 2087.02 2913.23 2087.02H2934.72L2946.97 2100.33C2944.49 2105.57 2943.14 2108.7 2943.14 2108.7L2958.71 2140.39C2958.71 2140.39 3119.21 2001.08 3062.58 1982.54Z" fill="#8DDBE0"/>
<path id="Vector_21" d="M3024.07 2211.34H2902.49L2882.14 2069.41H3044.42L3024.07 2211.34Z" fill="#C1D8ED"/>
</g>
<g id="Group_6">
<path id="Vector_22" d="M6003 176H3509V1663.34H6003V176Z" fill="#DEE8F5"/>
<path id="Vector_23" d="M6003 176H3509V298.519H6003V176Z" fill="#C1D8ED"/>
<path id="Vector_24" d="M5919.47 268.001C5940.08 268.001 5956.8 254.238 5956.8 237.261C5956.8 220.284 5940.08 206.521 5919.47 206.521C5898.85 206.521 5882.14 220.284 5882.14 237.261C5882.14 254.238 5898.85 268.001 5919.47 268.001Z" fill="white"/>
</g>
<g id="Group_7">
<path id="Vector_25" d="M4071.56 399.987H3759.05V712.512H4071.56V399.987Z" fill="white"/>
<path id="Vector_26" d="M4491.91 399.987H4179.4V712.512H4491.91V399.987Z" fill="white"/>
<path id="Vector_27" d="M4912.25 399.987H4599.74V712.512H4912.25V399.987Z" fill="white"/>
<path id="Vector_28" d="M5332.6 399.987H5020.09V712.512H5332.6V399.987Z" fill="white"/>
<path id="Vector_29" d="M4071.56 816.529H3759.05V1129.05H4071.56V816.529Z" fill="white"/>
<path id="Vector_30" d="M4491.91 816.529H4179.4V1129.05H4491.91V816.529Z" fill="white"/>
<path id="Vector_31" d="M4912.25 816.529H4599.74V1129.05H4912.25V816.529Z" fill="white"/>
<path id="Vector_32" d="M5332.6 816.529H5020.09V1129.05H5332.6V816.529Z" fill="white"/>
<path id="Vector_33" d="M4071.56 1233.07H3759.05V1545.59H4071.56V1233.07Z" fill="white"/>
<path id="Vector_34" d="M4491.91 1233.07H4179.4V1545.59H4491.91V1233.07Z" fill="white"/>
<path id="Vector_35" d="M4912.25 1233.07H4599.74V1545.59H4912.25V1233.07Z" fill="white"/>
<path id="Vector_36" d="M5332.6 1233.07H5020.09V1545.59H5332.6V1233.07Z" fill="white"/>
<path id="Vector_37" d="M5752.95 399.987H5440.44V712.512H5752.95V399.987Z" fill="white"/>
<path id="Vector_38" d="M5752.95 816.529H5440.44V1129.05H5752.95V816.529Z" fill="white"/>
<path id="Vector_39" d="M5752.95 1233.07H5440.44V1545.59H5752.95V1233.07Z" fill="white"/>
</g>
<path id="Vector_40" d="M8772 2749.89H4134C4184.82 2620.28 4278.65 2510.33 4410.97 2477.71C4604.51 2430.06 4809.32 2561.09 5002.42 2511.82C5112.13 2483.86 5198.5 2402.37 5289.26 2334.71C5631.66 2079.41 6100.88 2003.96 6506.04 2139.09C6717.82 2209.68 6910.79 2333.15 7127.74 2385.63C7408.27 2453.53 7701.64 2397.23 7990.14 2387.95C8271.11 2378.92 8673.68 2493.41 8772 2749.89Z" fill="#F3F5FD"/>
<g id="Group_8">
<path id="Vector_41" d="M7683.8 2745.19C7672.73 2743.34 7548.06 2722.03 7548.06 2722.03" stroke="#FFDEDB" stroke-width="21" stroke-miterlimit="10"/>
<path id="Vector_42" d="M7466.51 2921.21C7465.99 2924.46 7466.13 2927.78 7466.94 2930.97C7467.76 2934.16 7469.22 2937.15 7471.24 2939.74C7473.26 2942.34 7475.79 2944.5 7478.68 2946.07C7481.57 2947.64 7484.75 2948.61 7488.03 2948.89C7492.57 2949.3 7497.13 2948.39 7501.18 2946.29C7505.22 2944.18 7508.58 2940.97 7510.86 2937.02L7581.42 2804.44C7582.78 2801.87 7583.57 2799.04 7583.73 2796.14C7583.89 2793.24 7583.42 2790.33 7582.35 2787.63C7572.19 2766.08 7569.21 2741.83 7573.85 2718.46C7578.21 2700.38 7587.57 2683.89 7600.85 2670.88C7602.13 2669.75 7603.08 2668.29 7603.56 2666.65C7604.05 2665.01 7604.06 2663.26 7603.59 2661.62C7603.12 2659.98 7602.19 2658.5 7600.92 2657.36C7599.64 2656.22 7598.06 2655.47 7596.38 2655.2L7527.7 2643.69C7525.68 2643.35 7523.6 2643.42 7521.6 2643.88C7519.6 2644.35 7517.71 2645.2 7516.04 2646.4C7514.37 2647.59 7512.96 2649.11 7511.87 2650.85C7510.79 2652.6 7510.06 2654.54 7509.73 2656.57L7466.51 2921.21Z" fill="#C1D8ED"/>
</g>
<path id="Vector_43" d="M8060.27 2479.33C8112.12 2481.48 8164.88 2483 8217.66 2484.3L8296.98 2486.05L8376.21 2487.47L8384.1 2487.62C8416.83 2488.24 8448.1 2501.24 8471.62 2524C8495.13 2546.77 8509.15 2577.6 8510.83 2610.29C8512.51 2642.98 8501.74 2675.09 8480.68 2700.15C8459.62 2725.21 8429.85 2741.35 8397.36 2745.33L7614.37 2840.4L7582.47 2608.99L8361.96 2488.64L8383.12 2746.49L8302.67 2751.69L8222.28 2756.55C8168.6 2759.65 8114.89 2762.56 8060.23 2764.8L8060.27 2479.33Z" fill="#55AFFC"/>
<g id="Group_9">
<path id="Vector_44" d="M8151.27 2676.2C8162.09 2679.12 8266.62 2694.31 8266.62 2694.31" stroke="#FFDEDB" stroke-width="21" stroke-miterlimit="10"/>
<path id="Vector_45" d="M8392.83 2860.01C8393.96 2863.1 8394.45 2866.39 8394.25 2869.68C8394.06 2872.96 8393.19 2876.17 8391.7 2879.11C8390.21 2882.04 8388.14 2884.63 8385.6 2886.73C8383.06 2888.82 8380.12 2890.37 8376.96 2891.28C8372.57 2892.54 8367.92 2892.51 8363.55 2891.21C8359.18 2889.92 8355.27 2887.4 8352.28 2883.95L8257.84 2767.18C8256.03 2764.91 8254.72 2762.28 8254.02 2759.47C8253.32 2756.65 8253.23 2753.72 8253.76 2750.87C8259.65 2727.78 8257.98 2703.41 8248.99 2681.34C8241.27 2664.42 8228.96 2650.01 8213.45 2639.75C8211.97 2638.89 8210.77 2637.62 8209.98 2636.11C8209.2 2634.59 8208.86 2632.88 8209.01 2631.18C8209.16 2629.47 8209.78 2627.85 8210.82 2626.49C8211.86 2625.13 8213.26 2624.1 8214.86 2623.5L8280.11 2599.17C8282.04 2598.46 8284.08 2598.13 8286.14 2598.2C8288.19 2598.28 8290.21 2598.76 8292.07 2599.62C8293.94 2600.47 8295.62 2601.69 8297.01 2603.2C8298.41 2604.71 8299.49 2606.47 8300.2 2608.4L8392.83 2860.01Z" fill="#C1D8ED"/>
</g>
<path id="Vector_46" d="M7886.42 2743.83C7853.61 2741.04 7820.82 2739.03 7788.02 2737.14C7755.24 2735.39 7722.44 2733.64 7689.67 2732.48L7640.49 2730.58L7591.33 2729.16C7558.56 2728.07 7525.79 2727.62 7493.02 2727L7504.38 2491.56C7565.72 2500.14 7627.14 2508.02 7688.54 2516.1C7749.94 2524.18 7811.42 2531.61 7872.88 2539.17L7965.12 2550.05L8057.43 2560.39C8119 2567.01 8180.57 2573.58 8242.29 2579L8215.2 2811.06C8153.9 2802.12 8092.47 2794.34 8031.04 2786.59L7938.82 2775.4L7846.56 2764.73C7785.01 2757.93 7723.47 2751.02 7661.88 2744.72C7600.29 2738.43 7538.68 2731.97 7477.01 2726.19C7447.44 2723.41 7420.01 2709.57 7400.2 2687.43C7380.4 2665.29 7369.68 2636.49 7370.2 2606.79C7370.71 2577.09 7382.42 2548.68 7402.98 2527.24C7423.54 2505.81 7451.44 2492.92 7481.09 2491.17L7488.38 2490.76C7521.1 2488.84 7553.83 2487.09 7586.53 2484.71L7635.6 2481.35L7684.66 2477.52C7717.36 2475.05 7750.06 2472 7782.75 2468.97C7815.45 2465.78 7848.13 2462.47 7880.81 2458.38L7886.42 2743.83Z" fill="#55AFFC"/>
<path id="Vector_47" d="M8179.32 2443.58L8196.57 2733.18L7698.52 2727.33L7736.11 2470.94L8179.32 2443.58Z" fill="#55AFFC"/>
<path id="Vector_48" d="M7407.76 1901.98C7407.76 1901.98 7406.89 1832 7356.87 1835.64C7325.32 1837.94 7175.39 1830.98 7173.16 1844.64C7167.64 1878.43 7304.77 1886.69 7317.22 1918.18L7407.76 1901.98Z" fill="#FFDEDB"/>
<path id="girl-body" d="M8354.38 2386.78L8213.1 1966.65C8207.36 1946.19 8196.2 1927.67 8180.81 1913.04C8154.18 1886.42 8108.22 1869.23 8052.17 1869.17C8047.98 1901.86 7849.55 1901.97 7848.03 1869.93C7840.46 1870.05 7834.58 1870.16 7830.91 1870.34C7776.11 1872.7 7743.69 1887.87 7725.38 1912.06L7538.37 2094.04L7413.64 1861.07L7305.79 1918.83L7468.91 2223.43C7473.39 2231.78 7479.74 2238.98 7487.48 2244.46C7495.21 2249.94 7504.11 2253.55 7513.48 2255C7522.84 2256.45 7532.42 2255.7 7541.44 2252.82C7550.47 2249.94 7558.71 2245 7565.5 2238.39L7713.89 2093.98C7719.71 2131.69 7723.23 2169.71 7724.42 2207.85C7726.69 2396.97 7675.6 2432.62 7700.77 2490.42C7725.18 2546.53 8204.82 2569.83 8211.23 2471.14C8211.3 2470.1 8211.3 2469.07 8211.34 2468.04L8292.26 2470.5C8292.91 2470.5 8293.55 2470.5 8294.2 2470.5C8304.28 2470.5 8314.21 2468.1 8323.18 2463.51C8332.15 2458.91 8339.9 2452.24 8345.78 2444.05C8351.66 2435.87 8355.51 2426.4 8357.01 2416.43C8358.5 2406.46 8357.61 2396.28 8354.39 2386.73L8354.38 2386.78ZM8204.89 2340.76L8175.92 2339.87C8165.24 2304.61 8159.86 2267.95 8159.95 2231.11C8159.95 2224.12 8160.36 2217.2 8161.03 2210.33L8204.89 2340.76Z" fill="#2F3235"/>
<path id="Vector_49" d="M7848.04 1869.95C7849.55 1901.99 7866.97 1949.13 7920.74 1952.68C7992.4 1957.4 8047.98 1901.87 8052.17 1869.19H8052C7981.45 1869.19 7889.17 1869.31 7848.04 1869.95Z" fill="#FFDEDB"/>
<path id="Vector_50" d="M7825.07 2404.19C7851.23 2420.34 7891.72 2427.97 7927.02 2430.77L7929 2366.44C7912.4 2365.97 7886.88 2364.22 7861.89 2365.22C7850.6 2356.01 7844.1 2353.27 7832.5 2341.68C7820.17 2329.34 7787.79 2321.93 7781.67 2341.68C7775.55 2361.43 7802.12 2389.98 7825.07 2404.19Z" fill="#FFDEDB"/>
<g id="Group_10">
<path id="Vector_51" d="M4424.59 1761.02L4378.4 1750.1L4320.48 1995.07L4366.68 2006L4424.59 1761.02Z" fill="#F0F6FF"/>
<g id="Group_11">
<path id="Vector_52" d="M4327.6 1731.08L4301.95 1735.81L4341.62 1950.83L4367.26 1946.1L4327.6 1731.08Z" fill="#C1D8ED"/>
<path id="Vector_53" d="M4327.59 1731L4301.97 1735.88L4306.48 1759.59L4332.1 1754.72L4327.59 1731Z" fill="#DEE8F5"/>
</g>
<path id="Vector_54" d="M4406.98 1785.75L4323.88 1996.73L4338.12 2002.34L4421.22 1791.37L4406.98 1785.75Z" fill="#FDB754"/>
<path id="Vector_55" d="M4425.18 1878.05H4299.9V2038.17H4425.18V1878.05Z" fill="#55AFFC"/>
</g>
<g id="Group_12">
<g id="Group_13">
<path id="Vector_56" d="M4558.73 2688.09H4507.06V2745.05H4558.73V2688.09Z" fill="#C1D8ED"/>
<path id="Vector_57" d="M4067.15 2688.09H4015.48V2745.05H4067.15V2688.09Z" fill="#C1D8ED"/>
</g>
<path id="Vector_58" d="M3971 2694.7H4187.79V2038.65H3971V2694.7Z" fill="#C1D8ED"/>
<path id="Vector_59" d="M4559.39 2688.09H4781.39V2053.17H4559.39V2688.09Z" fill="#C1D8ED"/>
<path id="Vector_60" d="M4173.19 2038.65H4795.99V2694.7H4173.19V2038.65ZM4766.79 2067.85H4202.39V2665.49H4766.79V2067.85Z" fill="#DEE8F5"/>
<path id="Vector_61" d="M4173.19 2332.99H4795.99V2694.7H4173.19V2332.99ZM4766.79 2362.2H4202.39V2665.49H4766.79V2362.2Z" fill="#DEE8F5"/>
<g id="Group_14">
<path id="Vector_62" d="M4513.65 2119.89V2161.67V2332.75H4249.08V2161.67V2119.89H4513.65Z" fill="#C1D8ED"/>
<path id="Vector_63" d="M4600.36 2161.67H4335.8V2332.75H4600.36V2161.67Z" fill="#DEE8F5"/>
<path id="Vector_64" d="M4600.36 2161.67H4335.8V2174.49H4600.36V2161.67Z" fill="#C1D8ED"/>
<path id="Vector_65" d="M4335.8 2161.67H4600.36V2119.89H4335.8V2161.67Z" fill="#DEE8F5"/>
<path id="Vector_66" d="M4438.76 2221.72H4497.4C4500.77 2221.72 4503.5 2218.99 4503.5 2215.62V2202.12C4503.5 2198.76 4500.77 2196.03 4497.4 2196.03H4438.76C4435.39 2196.03 4432.67 2198.76 4432.67 2202.12V2215.62C4432.67 2218.99 4435.39 2221.72 4438.76 2221.72Z" fill="white"/>
</g>
<g id="Group_15">
<path id="Vector_67" d="M4756.21 2688.09H4704.54V2745.05H4756.21V2688.09Z" fill="#DEE8F5"/>
<path id="Vector_68" d="M4264.63 2688.09H4212.96V2745.05H4264.63V2688.09Z" fill="#DEE8F5"/>
</g>
<g id="Group_16">
<path id="Vector_69" d="M4271.74 2665.49H4559.36V2600.36H4271.74V2665.49Z" fill="#C1D8ED"/>
<path id="Vector_70" d="M4266.8 2535.37H4554.43V2470.23H4266.8V2535.37Z" fill="#C1D8ED"/>
<g id="Group_17">
<path id="Vector_71" d="M4369.89 2665.49H4674.06V2600.36H4369.89V2665.49Z" fill="#DEE8F5"/>
<path id="Vector_72" opacity="0.62" d="M4394.72 2665.49H4409.48V2600.36H4394.72V2665.49Z" fill="#C1D8ED"/>
<path id="Vector_73" opacity="0.62" d="M4424.24 2665.49H4439V2600.36H4424.24V2665.49Z" fill="#C1D8ED"/>
<path id="Vector_74" d="M4639.19 2653.93C4650.79 2653.93 4660.19 2644.53 4660.19 2632.93C4660.19 2621.32 4650.79 2611.92 4639.19 2611.92C4627.59 2611.92 4618.18 2621.32 4618.18 2632.93C4618.18 2644.53 4627.59 2653.93 4639.19 2653.93Z" fill="#F3F5FD"/>
</g>
<g id="Group_18">
<path id="Vector_75" d="M4364.95 2535.37H4669.12V2470.23H4364.95V2535.37Z" fill="#DEE8F5"/>
<path id="Vector_76" d="M4437.27 2520.7H4649.53V2484.9H4437.27V2520.7Z" fill="#F3F5FD"/>
<path id="Vector_77" opacity="0.62" d="M4389.77 2535.37H4417.71V2470.23H4389.77V2535.37Z" fill="#C1D8ED"/>
</g>
<g id="Group_19">
<path id="Vector_78" d="M4535.9 2535.3H4248.28V2600.43H4535.9V2535.3Z" fill="#C1D8ED"/>
<g id="Group_20">
<path id="Vector_79" d="M4650.59 2535.3H4346.43V2600.43H4650.59V2535.3Z" fill="#F3F5FD"/>
<path id="Vector_80" d="M4625.77 2535.3H4611.01V2600.43H4625.77V2535.3Z" fill="#DEE8F5"/>
<path id="Vector_81" d="M4596.24 2535.3H4581.48V2600.43H4596.24V2535.3Z" fill="#DEE8F5"/>
<path id="Vector_82" d="M4381.3 2588.87C4392.9 2588.87 4402.3 2579.47 4402.3 2567.86C4402.3 2556.26 4392.9 2546.86 4381.3 2546.86C4369.7 2546.86 4360.29 2556.26 4360.29 2567.86C4360.29 2579.47 4369.7 2588.87 4381.3 2588.87Z" fill="#DEE8F5"/>
</g>
<path id="Vector_83" d="M4424.46 2583.83H4558.72V2551.9H4424.46V2583.83Z" fill="#DEE8F5"/>
</g>
</g>
</g>
<g id="Group_21">
<g id="Group_22">
<path id="Vector_84" d="M8164.67 2091.71L8185.26 2398.63C8185.5 2402.25 8185 2405.88 8183.78 2409.29C8182.56 2412.71 8180.65 2415.84 8178.18 2418.49C8175.7 2421.13 8172.71 2423.25 8169.38 2424.69C8166.05 2426.13 8162.47 2426.88 8158.84 2426.88H7730.19C7723.64 2426.88 7717.33 2424.45 7712.46 2420.06C7707.6 2415.67 7704.53 2409.64 7703.86 2403.12L7672.14 2096.2C7671.76 2092.51 7672.16 2088.79 7673.31 2085.26C7674.46 2081.74 7676.33 2078.5 7678.82 2075.74C7681.3 2072.99 7684.33 2070.79 7687.72 2069.28C7691.11 2067.78 7694.77 2067 7698.48 2067H8138.26C8144.97 2067 8151.44 2069.55 8156.34 2074.14C8161.25 2078.73 8164.22 2085.01 8164.67 2091.71Z" fill="#9EBCEA"/>
<path id="Vector_85" d="M7766 2426.89H8216.37C8226.58 2426.89 8234.85 2418.61 8234.85 2408.41C8234.85 2398.2 8226.58 2389.93 8216.37 2389.93H7766C7755.8 2389.93 7747.52 2398.2 7747.52 2408.41C7747.52 2418.61 7755.8 2426.89 7766 2426.89Z" fill="#9EBCEA"/>
</g>
<path id="Vector_86" d="M7917.35 2287.73C7939.87 2287.73 7958.13 2269.48 7958.13 2246.95C7958.13 2224.43 7939.87 2206.17 7917.35 2206.17C7894.82 2206.17 7876.56 2224.43 7876.56 2246.95C7876.56 2269.48 7894.82 2287.73 7917.35 2287.73Z" fill="white"/>
</g>
<g id="check-1">
<rect id="Rectangle 58" x="4179.33" y="816.197" width="312.768" height="312.768" fill="#35B158"/>
<path id="Vector_87" d="M4439.11 889.729C4434.55 885.83 4428.62 883.903 4422.64 884.372C4416.65 884.841 4411.09 887.667 4407.19 892.23L4309.7 1006.24L4257.26 962.462C4255.18 960.676 4252.77 959.32 4250.17 958.474C4247.56 957.628 4244.81 957.308 4242.08 957.532C4239.35 957.757 4236.7 958.522 4234.27 959.783C4231.83 961.044 4229.68 962.776 4227.92 964.878C4226.17 966.979 4224.85 969.409 4224.04 972.026C4223.23 974.642 4222.95 977.394 4223.21 980.119C4223.48 982.845 4224.28 985.492 4225.57 987.905C4226.87 990.318 4228.63 992.449 4230.76 994.174L4301.02 1052.84C4303.19 1054.65 4305.71 1055.99 4308.41 1056.78C4311.12 1057.57 4313.96 1057.8 4316.76 1057.44C4319.73 1057.22 4322.62 1056.4 4325.28 1055.05C4327.93 1053.71 4330.29 1051.85 4332.23 1049.58L4441.6 921.642C4445.49 917.074 4447.42 911.147 4446.95 905.163C4446.48 899.178 4443.65 893.624 4439.09 889.72" fill="#F4F4F4"/>
</g>
<g id="check-2">
<rect id="Rectangle 58_2" x="4179.33" y="1229.96" width="312.768" height="312.768" fill="#35B158"/>
<path id="Vector_88" d="M4439.11 1303.5C4434.55 1299.6 4428.62 1297.67 4422.64 1298.14C4416.65 1298.61 4411.09 1301.43 4407.19 1306L4309.7 1420.01L4257.26 1376.23C4255.18 1374.44 4252.77 1373.09 4250.17 1372.24C4247.56 1371.39 4244.81 1371.07 4242.08 1371.3C4239.35 1371.52 4236.7 1372.29 4234.27 1373.55C4231.83 1374.81 4229.68 1376.54 4227.92 1378.64C4226.17 1380.74 4224.85 1383.17 4224.04 1385.79C4223.23 1388.41 4222.95 1391.16 4223.21 1393.89C4223.48 1396.61 4224.28 1399.26 4225.57 1401.67C4226.87 1404.08 4228.63 1406.21 4230.76 1407.94L4301.02 1466.61C4303.19 1468.41 4305.71 1469.76 4308.41 1470.55C4311.12 1471.34 4313.96 1471.56 4316.76 1471.21C4319.73 1470.98 4322.62 1470.17 4325.28 1468.82C4327.93 1467.47 4330.29 1465.61 4332.23 1463.35L4441.6 1335.41C4445.49 1330.84 4447.42 1324.91 4446.95 1318.93C4446.48 1312.94 4443.65 1307.39 4439.09 1303.49" fill="#F4F4F4"/>
</g>
<g id="check-3">
<rect id="Rectangle 58_3" x="4597.99" y="1228.33" width="312.768" height="312.768" fill="#35B158"/>
<path id="Vector_89" d="M4857.77 1301.87C4853.2 1297.97 4847.27 1296.04 4841.29 1296.51C4835.3 1296.98 4829.75 1299.8 4825.84 1304.37L4728.36 1418.38L4675.91 1374.6C4673.83 1372.81 4671.42 1371.46 4668.82 1370.61C4666.21 1369.76 4663.47 1369.44 4660.74 1369.67C4658.01 1369.89 4655.35 1370.66 4652.92 1371.92C4650.49 1373.18 4648.33 1374.91 4646.57 1377.01C4644.82 1379.12 4643.5 1381.55 4642.69 1384.16C4641.88 1386.78 4641.6 1389.53 4641.86 1392.26C4642.13 1394.98 4642.93 1397.63 4644.23 1400.04C4645.52 1402.45 4647.28 1404.59 4649.41 1406.31L4719.68 1464.98C4721.84 1466.79 4724.36 1468.13 4727.07 1468.92C4729.77 1469.71 4732.62 1469.94 4735.41 1469.58C4738.38 1469.35 4741.28 1468.54 4743.93 1467.19C4746.58 1465.84 4748.94 1463.98 4750.88 1461.72L4860.25 1333.78C4864.15 1329.21 4866.07 1323.28 4865.6 1317.3C4865.13 1311.31 4862.31 1305.76 4857.75 1301.86" fill="#F4F4F4"/>
</g>
<g id="man-left">
<path id="Vector_90" d="M3478.43 2714.5L3384.39 2703.32C3388.62 2667.72 3393.41 2624.96 3393.73 2617.95C3393.73 2618.4 3393.73 2618.77 3393.73 2619.06H3488.43C3488.41 2621.89 3488.41 2630.53 3478.43 2714.5Z" fill="#FFDEDB"/>
<path id="Vector_91" d="M3101.07 2725.82L3006.37 2725.51C3006.37 2725.51 3006.68 2627.71 3006.68 2619.05H3101.39C3101.39 2627.74 3101.07 2725.82 3101.07 2725.82Z" fill="#FFDEDB"/>
<path id="Vector_92" d="M3513.37 2681.75C3505.53 2483.28 3505.06 2274.82 3502.6 2075.81C3470.03 1861.17 3452.91 1625.75 3412.71 1412.63L3411.5 1412.99L3407.98 1388.95L3064.89 1367.77L3051.54 1591.92H3052.82C3035.55 1892.19 3002.16 2374.91 2981.96 2679.21L3148.23 2693.26C3177.93 2393.99 3221.84 1917.22 3248.67 1622.25C3278.12 1772.55 3310.4 1941.8 3336.54 2093.89C3342.27 2288.17 3347.06 2490.63 3346.53 2684.59L3513.37 2681.75Z" fill="#55AFFC"/>
<path id="Vector_93" d="M3216.2 2762.45C3218.64 2762.44 3221.04 2761.95 3223.29 2761.01C3225.53 2760.07 3227.56 2758.69 3229.28 2756.96C3230.99 2755.24 3232.34 2753.19 3233.26 2750.93C3234.18 2748.68 3234.65 2746.27 3234.64 2743.84C3234.64 2743.39 3234.64 2742.94 3234.58 2742.48C3234.31 2738.97 3233.04 2735.6 3230.92 2732.78C3228.79 2729.96 3225.91 2727.8 3222.6 2726.57L3112.37 2689.65C3110.23 2688.94 3107.97 2688.71 3105.73 2688.95C3103.5 2689.2 3101.34 2689.93 3099.41 2691.09C3084.26 2701.61 3066.13 2706.98 3047.7 2706.42C3033.34 2705.4 3019.56 2700.37 3007.92 2691.89C3006.9 2691.05 3005.66 2690.52 3004.34 2690.36C3003.03 2690.2 3001.7 2690.42 3000.5 2690.98C2999.31 2691.55 2998.3 2692.45 2997.59 2693.57C2996.89 2694.68 2996.52 2695.98 2996.52 2697.3V2751.21C2996.52 2754.41 2997.79 2757.48 3000.06 2759.75C3002.32 2762.01 3005.39 2763.28 3008.6 2763.28H3008.65L3216.2 2762.45Z" fill="#C1D8ED"/>
<path id="Vector_94" d="M3593.82 2762.45C3596.25 2762.44 3598.66 2761.95 3600.9 2761.01C3603.14 2760.07 3605.18 2758.69 3606.89 2756.96C3608.6 2755.23 3609.96 2753.19 3610.88 2750.93C3611.8 2748.68 3612.27 2746.27 3612.25 2743.84C3612.25 2743.39 3612.25 2742.93 3612.2 2742.48C3611.93 2738.96 3610.66 2735.59 3608.53 2732.77C3606.41 2729.95 3603.52 2727.8 3600.21 2726.57L3489.98 2689.65C3487.85 2688.94 3485.58 2688.7 3483.35 2688.95C3481.11 2689.2 3478.95 2689.93 3477.02 2691.08C3461.87 2701.6 3443.75 2706.97 3425.31 2706.42C3410.95 2705.4 3397.17 2700.36 3385.53 2691.89C3384.51 2691.05 3383.27 2690.52 3381.96 2690.36C3380.64 2690.19 3379.31 2690.41 3378.12 2690.98C3376.92 2691.54 3375.91 2692.44 3375.21 2693.56C3374.5 2694.68 3374.13 2695.98 3374.13 2697.3V2751.2C3374.13 2754.4 3375.41 2757.48 3377.67 2759.74C3379.94 2762.01 3383.01 2763.28 3386.21 2763.28H3386.26L3593.82 2762.45Z" fill="#C1D8ED"/>
<g id="Group_23">
<path id="Vector_95" d="M3231.91 696.303L3216.47 701.489C3216.47 701.489 3218.49 756.258 3224.19 784.12C3229.9 811.983 3234.34 848.287 3252.07 852.274C3275.6 857.569 3303.66 859.522 3324.05 852.234C3339.47 846.723 3341.84 794.371 3343.34 768.516C3344.02 757.029 3342.55 758.03 3331.08 758.815C3307.59 760.429 3271.06 761.67 3257.61 755.207C3237.13 745.375 3231.91 696.303 3231.91 696.303Z" fill="#0F1011"/>
<g id="Group_24">
<path id="Vector_96" d="M3174.82 901.554C3174.82 901.554 3209.7 883.063 3201.91 788.102L3273.96 774.739C3273.96 774.739 3265.84 859.882 3302.31 886.91L3174.82 901.554Z" fill="#FFDEDB"/>
<path id="Vector_97" d="M3161.03 751.279C3166.02 780.089 3181.74 807.374 3207.15 816.673C3237.32 827.722 3259.66 828.471 3294.45 828.471C3341.91 828.471 3340.34 778.966 3341.68 729.077C3343.03 679.016 3342.73 636.7 3323.96 619.246C3286.53 584.407 3172.93 595.037 3159.56 653.305C3152.64 683.441 3156.28 723.854 3161.03 751.279Z" fill="#FFDEDB"/>
</g>
<path id="Vector_98" d="M3138.17 714.22C3145.1 758.016 3154.18 771.83 3167.29 792.765C3175.05 805.849 3185.48 817.156 3197.89 825.954C3207.55 832.173 3302.31 830.883 3318.67 828.493C3342.81 824.961 3346.46 756.194 3342.15 756.194C3336.78 756.194 3335.51 756.05 3329.47 756.05C3318.44 756.05 3317.34 690.353 3315.26 661.287C3316.95 661.051 3318.66 660.932 3320.37 660.931C3372.26 660.913 3126.54 640.699 3138.17 714.22Z" fill="#0F1011"/>
<path id="Vector_99" d="M3305.97 757.453C3298.9 757.633 3292.04 755.103 3286.78 750.382C3281.52 745.66 3278.27 739.105 3277.69 732.062C3277.33 728.506 3277.68 724.915 3278.71 721.493C3279.74 718.071 3281.43 714.886 3283.69 712.119C3285.96 709.352 3288.74 707.058 3291.89 705.368C3295.04 703.678 3298.49 702.625 3302.04 702.269C3302.29 702.242 3302.54 702.224 3302.78 702.206C3303.42 721.869 3304.43 742.565 3305.97 757.453Z" fill="#FFDEDB"/>
<path id="Vector_100" d="M3138.17 714.221C3138.17 714.221 3113.84 591.194 3231.4 579.825C3348.96 568.455 3341.89 678.371 3341.89 678.371L3295.25 702.166C3295.25 702.166 3243.18 716.449 3138.17 714.221Z" fill="#55AFFC"/>
<path id="Vector_101" d="M3154.93 699.911C3154.65 689.218 3158.62 678.849 3165.98 671.082C3173.33 663.315 3183.47 658.784 3194.16 658.485C3204.85 658.187 3215.23 662.144 3223 669.489C3230.78 676.833 3235.32 686.964 3235.64 697.656" fill="#0F1011"/>
<path id="Vector_102" d="M3295.27 702.139C3295.27 702.139 3333.63 689.205 3354.16 677.082C3376.02 664.17 3405.57 640.714 3405.42 633.733C3405.15 621.556 3362.63 618.16 3327.89 619.535L3328.16 620.054C3333.95 631.521 3335.56 644.647 3332.72 657.175C3329.88 669.703 3322.77 680.851 3312.6 688.7L3295.27 702.139Z" fill="#55AFFC"/>
</g>
<g id="l-m-body">
<g id="Group_25">
<path id="Vector_103" d="M2963.9 1530.28C2963.9 1543.72 2971 1588.65 2959.58 1591.86C2952.74 1593.78 2944.66 1560.29 2944.66 1560.29" fill="#FFDEDB"/>
<path id="Vector_104" d="M2910.03 1523.22C2910.03 1523.22 2872.76 1613.94 2915.27 1666.05C2916.35 1667.37 2917.81 1668.34 2919.45 1668.82C2921.09 1669.31 2922.84 1669.29 2924.47 1668.76C2926.1 1668.24 2927.53 1667.24 2928.58 1665.89C2929.63 1664.54 2930.25 1662.9 2930.36 1661.2C2932.43 1626.06 2939.51 1553.89 2962.68 1562.31V1505.63" fill="#FFDEDB"/>
</g>
<path id="Vector_105" d="M3750.4 1039.92C3750.4 1039.92 3802.45 998.572 3806.13 983.721C3809.81 968.87 3773.16 939.659 3773.16 939.659C3773.16 939.659 3821.9 890.501 3812.18 883.402C3800.71 874.996 3744.15 946.46 3744.15 946.46C3744.15 946.46 3752.14 920.754 3742.19 919.062C3738.1 918.372 3734.85 922.386 3728.45 940.584C3721.15 961.329 3706.57 992.516 3706.57 992.516L3750.4 1039.92Z" fill="#FFDEDB"/>
<path id="Vector_106" d="M3695.59 984.939L3541.64 1158.17L3421.23 942.591C3409.83 908.536 3383.87 885.725 3330.93 883.457C3312.82 882.681 3224.47 882.555 3159.78 882.555C3116.33 882.555 3080.65 895.886 3060.05 916.492C3049.67 926.719 3041.9 939.294 3037.41 953.153L3036.78 952.923L2933.27 1234.42C2932.11 1237.58 2931.27 1240.84 2930.78 1244.17L2889 1525.65L2986.27 1540.09L3027.31 1263.6L3069.11 1149.92C3073.47 1167.4 3075.84 1185.3 3076.2 1203.31C3076.2 1298.01 3033.36 1340.49 3036.52 1389.12C3041.48 1465.54 3412.76 1447.48 3431.68 1404.07C3451.16 1359.3 3411.63 1331.72 3413.36 1185.29C3413.54 1169.36 3414.77 1152.69 3416.47 1135.72L3489.53 1266.51C3493.35 1273.36 3498.76 1279.19 3505.3 1283.53C3511.84 1287.86 3519.32 1290.56 3527.12 1291.41C3534.92 1292.26 3542.81 1291.23 3550.13 1288.41C3557.45 1285.59 3563.99 1281.06 3569.2 1275.19L3771.61 1038.42L3695.59 984.939Z" fill="#2F3235"/>
</g>
</g>
<g id="man-right">
<g id="r-m-head">
<path id="Vector_107" d="M6760.17 613.122L6776.11 618.478C6776.11 618.478 6774.03 675.032 6768.14 703.798C6762.25 732.564 6757.66 770.057 6739.36 774.178C6715.06 779.645 6686.08 781.662 6665.03 774.136C6649.11 768.445 6646.66 714.387 6645.11 687.685C6644.41 675.828 6645.92 676.857 6657.77 677.672C6682.02 679.339 6719.74 680.62 6733.63 673.947C6754.77 663.799 6760.17 613.122 6760.17 613.122Z" fill="#0F1011"/>
<g id="Group_26">
<path id="Vector_108" d="M6819.13 825.06C6819.13 825.06 6783.12 805.967 6791.16 707.905L6716.76 694.111C6716.76 694.111 6725.12 782.025 6687.48 809.939L6819.13 825.06Z" fill="#FFDEDB"/>
<path id="Vector_109" d="M6833.37 669.891C6828.22 699.644 6811.99 727.814 6785.74 737.417C6754.59 748.826 6731.52 749.595 6695.6 749.595C6646.59 749.595 6648.21 698.48 6646.83 646.965C6645.43 595.273 6645.75 551.572 6665.12 533.55C6703.77 497.579 6821.08 508.556 6834.89 568.723C6842.03 599.851 6838.27 641.577 6833.37 669.891Z" fill="#FFDEDB"/>
</g>
<path id="Vector_110" d="M6856.97 631.629C6849.82 676.852 6840.44 691.112 6826.91 712.734C6818.89 726.237 6808.12 737.904 6795.3 746.981C6785.33 753.408 6687.48 752.076 6670.59 749.603C6645.67 745.961 6641.89 674.952 6646.34 674.952C6651.88 674.952 6653.2 674.803 6659.44 674.803C6670.83 674.803 6671.96 606.965 6674.11 576.951C6672.36 576.709 6670.6 576.586 6668.83 576.583C6615.25 576.583 6868.99 555.711 6856.97 631.629Z" fill="#0F1011"/>
<path id="Vector_111" d="M6683.7 676.265C6691 676.453 6698.08 673.841 6703.51 668.967C6708.94 664.092 6712.3 657.324 6712.9 650.051C6713.27 646.317 6712.9 642.545 6711.79 638.959C6710.69 635.373 6708.87 632.044 6706.46 629.17C6704.05 626.296 6701.08 623.934 6697.74 622.225C6694.4 620.516 6690.75 619.493 6687.01 619.218C6686.36 639.522 6685.28 660.897 6683.7 676.265Z" fill="#FFDEDB"/>
<path id="Vector_112" d="M6856.97 631.629C6856.97 631.629 6882.09 504.592 6760.7 492.852C6639.31 481.112 6646.61 594.611 6646.61 594.611L6694.78 619.158C6694.78 619.158 6748.53 633.93 6856.97 631.629Z" fill="#55AFFC"/>
<path id="Vector_113" d="M6839.66 616.856C6839.82 611.379 6838.9 605.925 6836.95 600.805C6835 595.684 6832.06 590.999 6828.3 587.015C6824.54 583.032 6820.03 579.829 6815.03 577.59C6810.03 575.352 6804.63 574.12 6799.16 573.967C6793.68 573.814 6788.23 574.743 6783.11 576.699C6777.99 578.655 6773.31 581.601 6769.33 585.368C6765.36 589.135 6762.16 593.649 6759.93 598.653C6757.7 603.656 6756.47 609.05 6756.33 614.527" fill="#0F1011"/>
<path id="Vector_114" d="M6694.75 619.148C6694.75 619.148 6655.14 605.792 6633.94 593.274C6611.37 579.946 6580.85 555.725 6581.01 548.516C6581.29 535.943 6625.19 532.436 6661.07 533.856L6660.79 534.392C6654.82 546.229 6653.15 559.778 6656.08 572.709C6659.01 585.641 6666.36 597.148 6676.85 605.252L6694.75 619.148Z" fill="#55AFFC"/>
</g>
<path id="Vector_115" d="M6503.71 2695.46C6493.4 2608.76 6493.4 2599.84 6493.4 2596.91H6591.19C6591.19 2596.61 6591.19 2596.23 6591.19 2595.76C6591.54 2603 6596.47 2647.15 6600.85 2683.91L6503.71 2695.46Z" fill="#FFDEDB"/>
<path id="Vector_116" d="M6893.39 2707.15C6893.39 2707.15 6893.05 2605.87 6893.05 2596.91H6990.85C6990.85 2605.85 6991.18 2706.81 6991.18 2706.83L6893.39 2707.15Z" fill="#FFDEDB"/>
<g id="Group_27">
<path id="Vector_117" d="M6439.35 1118.1C6425.54 1116.77 6380.06 1105.02 6375.63 1116.44C6372.98 1123.28 6406.59 1134.9 6406.59 1134.9" fill="#FFDEDB"/>
<path id="Vector_118" d="M6441.26 1174.19C6441.26 1174.19 6344.33 1203.5 6294.98 1154.63C6293.73 1153.38 6292.87 1151.78 6292.54 1150.05C6292.2 1148.31 6292.4 1146.51 6293.11 1144.89C6293.81 1143.26 6294.99 1141.89 6296.49 1140.95C6297.99 1140 6299.73 1139.54 6301.5 1139.6C6337.83 1140.96 6412.71 1140.84 6406.34 1116.19L6464.54 1121.81" fill="#FFDEDB"/>
</g>
<path id="Vector_119" d="M6844.68 2673.53L7016.37 2659.03C6995.45 2339.02 6961.79 1817.03 6944.53 1536.31C6940.96 1478.44 6930.74 1304.83 6930.74 1304.83L6576.47 1326.71L6572.83 1351.54L6571.59 1351.17C6530.05 1571.38 6512.37 1814.59 6478.7 2036.36C6476.33 2241.74 6475.68 2456.85 6467.64 2661.66L6639.91 2664.6C6639.37 2464.68 6644.33 2255.51 6650.22 2055C6679.6 1895.1 6711.94 1727.76 6745.75 1566.29C6775.28 1898.83 6813.56 2355.92 6844.68 2673.53Z" fill="#55AFFC"/>
<path id="Vector_120" d="M6774.49 2744.98C6771.86 2744.96 6769.26 2744.41 6766.86 2743.35C6764.45 2742.28 6762.29 2740.74 6760.51 2738.8C6758.73 2736.87 6757.37 2734.58 6756.51 2732.1C6755.65 2729.61 6755.31 2726.98 6755.51 2724.36C6755.79 2720.72 6757.11 2717.24 6759.3 2714.33C6761.5 2711.42 6764.48 2709.2 6767.89 2707.92L6881.71 2669.8C6883.92 2669.07 6886.26 2668.82 6888.57 2669.08C6890.87 2669.33 6893.1 2670.09 6895.09 2671.29C6910.74 2682.14 6929.46 2687.69 6948.49 2687.12C6963.32 2686.07 6977.55 2680.87 6989.57 2672.11C6990.62 2671.25 6991.9 2670.7 6993.26 2670.53C6994.62 2670.37 6995.99 2670.59 6997.22 2671.17C6998.46 2671.76 6999.5 2672.69 7000.23 2673.84C7000.96 2675 7001.34 2676.34 7001.34 2677.7V2733.36C7001.34 2735 7001.01 2736.63 7000.38 2738.15C6999.75 2739.66 6998.83 2741.04 6997.67 2742.2C6996.5 2743.36 6995.12 2744.28 6993.6 2744.9C6992.08 2745.52 6990.46 2745.84 6988.81 2745.83L6774.49 2744.98Z" fill="#C1D8ED"/>
<path id="Vector_121" d="M6384.57 2744.98C6381.94 2744.96 6379.34 2744.41 6376.94 2743.35C6374.53 2742.29 6372.37 2740.74 6370.59 2738.8C6368.81 2736.87 6367.44 2734.59 6366.58 2732.1C6365.72 2729.61 6365.38 2726.98 6365.59 2724.36C6365.87 2720.72 6367.19 2717.24 6369.38 2714.33C6371.57 2711.42 6374.55 2709.2 6377.97 2707.92L6491.79 2669.8C6494 2669.07 6496.33 2668.82 6498.64 2669.08C6500.95 2669.33 6503.18 2670.09 6505.17 2671.29C6520.81 2682.14 6539.53 2687.69 6558.57 2687.12C6573.4 2686.07 6587.63 2680.87 6599.64 2672.11C6600.7 2671.25 6601.98 2670.7 6603.34 2670.53C6604.69 2670.37 6606.07 2670.59 6607.3 2671.18C6608.53 2671.76 6609.58 2672.69 6610.3 2673.84C6611.03 2675 6611.42 2676.34 6611.41 2677.7V2733.36C6611.41 2735 6611.09 2736.63 6610.46 2738.15C6609.83 2739.66 6608.91 2741.04 6607.74 2742.2C6606.58 2743.36 6605.2 2744.28 6603.68 2744.9C6602.16 2745.52 6600.53 2745.84 6598.89 2745.83L6384.57 2744.98Z" fill="#C1D8ED"/>
<g id="Group_28">
<path id="Vector_122" d="M6195.23 1138.31C6181.36 1138.68 6134.79 1132.58 6131.79 1144.45C6129.99 1151.56 6164.77 1158.99 6164.77 1158.99" fill="#FFDEDB"/>
<path id="Vector_123" d="M6256.66 1181.9C6257.19 1201.99 6216.94 1215.25 6159.59 1216.76C6102.24 1218.28 6049.54 1207.45 6049 1187.39C6048.47 1167.32 6094.53 1149.79 6151.87 1148.27C6209.22 1146.75 6256.13 1161.81 6256.66 1181.9Z" fill="#FFDEDB"/>
</g>
<path id="Vector_124" d="M6976.57 1182.25L6964.26 921.98C6964.83 912.129 6964.36 902.245 6962.86 892.492L6962.82 891.588H6962.69C6959.57 871.575 6950.12 853.087 6935.73 838.834C6914.46 817.557 6877.62 803.786 6832.74 803.786C6765.95 803.786 6674.72 803.931 6656.02 804.718C6594.82 807.339 6568.53 836.543 6559.16 878.87L6446.39 1122.64L6178 1128.28L6180.05 1226.08L6478.97 1219.79C6485.82 1219.64 6492.56 1218.06 6498.75 1215.15C6504.95 1212.23 6510.46 1208.05 6514.94 1202.87L6566.16 1206.94C6556.47 1282.47 6536.8 1307.34 6552.02 1342.32C6571.55 1387.14 6954.93 1405.79 6960.06 1326.87C6961.92 1297.84 6947.95 1270.92 6935.79 1234.47C6947.71 1232.09 6958.39 1225.52 6965.88 1215.94C6973.36 1206.37 6977.16 1194.42 6976.59 1182.28L6976.57 1182.25ZM6570.61 1105.73L6562.29 1105.04L6569.74 1088.95C6570.13 1094.62 6570.41 1100.21 6570.61 1105.74V1105.73Z" fill="#2F3235"/>
</g>
</g>
<defs>
<filter id="filter0_d" x="749" y="44" width="1542.79" height="2746.63" filterUnits="userSpaceOnUse" color-interpolation-filters="sRGB">
<feFlood flood-opacity="0" result="BackgroundImageFix"/>
<feColorMatrix in="SourceAlpha" type="matrix" values="0 0 0 0 0 0 0 0 0 0 0 0 0 0 0 0 0 0 127 0"/>
<feOffset dx="2" dy="2"/>
<feGaussianBlur stdDeviation="8.5"/>
<feColorMatrix type="matrix" values="0 0 0 0 0.37375 0 0 0 0 0.423207 0 0 0 0 0.4875 0 0 0 1 0"/>
<feBlend mode="normal" in2="BackgroundImageFix" result="effect1_dropShadow"/>
<feBlend mode="normal" in="SourceGraphic" in2="effect1_dropShadow" result="shape"/>
</filter>
</defs>
</svg>
