<svg width="9422" height="3360" viewBox="0 0 9422 3360" fill="none" xmlns="http://www.w3.org/2000/svg">
<path d="M759.94 3182.61C651.608 3182.71 554.871 3117.06 518.143 3018.54C439.383 2806.43 369.993 2413.52 678.363 1988.53C1019.34 1518.61 1701.44 1032.81 2181.22 983.048C2932.85 905.121 3142.94 1752.32 3480.18 1949.46C3771.57 2119.8 4193.54 2375.22 4248.69 2909.06C4262.9 3045.71 4159.83 3167.62 4018.49 3181.35C4009.99 3182.18 4001.45 3182.59 3992.9 3182.6L759.94 3182.61Z" fill="#F3F5FD"/>
<path d="M784.181 469.184H2292.97V3181.82H784.181V469.184ZM726 411V3240H2351.15V411H726Z" fill="#C1D8ED"/>
<g filter="url(#filter0_d)">
<path d="M764.001 3182.63H2272.79L2272.79 470H764.001L764.001 3182.63Z" fill="#DEE8F5"/>
</g>
<path d="M239.019 3161.83C174.53 3141.84 111.962 3115.72 54.9519 3042.62C43.2529 3027.64 32.2605 3008.45 38.6717 2990.52C43.4971 2977.03 57.4558 2968.38 71.6391 2966.18C76.922 2965.41 82.2766 2965.27 87.5937 2965.74C87.6198 2965.74 87.6458 2965.76 87.6556 2965.74C95.8254 2966.58 103.902 2968.16 111.783 2970.47L114.036 2971.12C151.662 2981.82 187.505 2998.01 220.405 3019.17C223.386 3021.07 226.922 3021.9 230.439 3021.54C233.955 3021.17 237.244 3019.63 239.772 3017.16C242.3 3014.68 243.917 3011.43 244.362 3007.92C244.806 3004.42 244.052 3000.86 242.22 2997.84C238.864 2992.35 234.958 2987.23 230.563 2982.53C224.083 2975.75 216.982 2969.6 209.354 2964.14C199.217 2956.74 188.398 2950.14 177.812 2943.39C138.46 2918.32 101.179 2890.15 66.3253 2859.13C41.4491 2836.97 17.1199 2812.38 5.29722 2781.22C-0.137121 2766.89 -2.60846 2750.37 3.87107 2736.49C14.5639 2713.69 44.8549 2707.31 69.6236 2712.04C113.027 2720.35 147.7 2752.17 178.447 2783.88C203.945 2810.23 232.514 2839.41 269.148 2841.03C275.393 2841.61 281.672 2840.35 287.209 2837.41C297.657 2831.08 300.344 2816.41 296.619 2804.77C292.894 2793.12 284.278 2783.82 275.956 2774.88C227.61 2723 180.023 2669.03 148.625 2605.45C117.227 2541.88 103.317 2466.83 125.136 2399.34C131.534 2379.6 141.146 2360.41 156.14 2346.07C171.134 2331.74 192.162 2322.75 212.746 2325.49C240.791 2329.18 261.913 2352.86 276.122 2377.29C324.963 2461.15 321.977 2563.9 335.734 2659.96C339.586 2686.85 345.176 2714.43 361.196 2736.57C362.673 2738.69 364.589 2740.48 366.816 2741.81C379.996 2749.44 391.826 2734.05 396.771 2720.99C416.308 2669.32 421.192 2610.22 456.171 2567.46C469.521 2551.17 488.406 2537.57 509.453 2537.7C535.16 2537.88 557.171 2559.35 564.673 2583.94C572.175 2608.53 567.684 2635.25 559.649 2659.66C544.729 2704.94 517.991 2745.63 486.482 2781.38C469.876 2800.27 451.086 2819.33 446.107 2843.96C444.581 2852.33 445.219 2860.95 447.962 2869.01C450.705 2877.06 455.461 2884.28 461.778 2889.98C464.732 2892.55 468.172 2894.5 471.893 2895.72C475.615 2896.94 479.542 2897.39 483.444 2897.07C491.884 2896.29 499.516 2891.99 506.871 2887.81C509.961 2886.05 513.058 2884.26 516.174 2882.51C528.46 2875.52 540.748 2868.51 553.039 2861.5C584.281 2843.68 622.005 2825.47 654.546 2840.82C671.152 2848.66 682.034 2864.09 687.149 2881.8C691.731 2897.87 691.731 2914.9 687.149 2930.97C677.456 2964.38 616.359 3057.38 591.161 3081.36C561.736 3109.38 459.691 3230.22 239.019 3161.83Z" fill="#8DDBE0"/>
<path d="M2843.66 2673.76L2741.13 3173.86C2740.47 3176.47 2738.96 3178.78 2736.84 3180.44C2734.71 3182.09 2732.1 3182.99 2729.41 3182.99V3182.99C2727.57 3182.99 2725.76 3182.57 2724.1 3181.77C2722.45 3180.96 2721.01 3179.79 2719.88 3178.34C2718.75 3176.89 2717.96 3175.21 2717.58 3173.41C2717.2 3171.61 2717.24 3169.75 2717.68 3167.97L2821.69 2662.09L2843.66 2673.76Z" fill="#C1D8ED"/>
<path d="M3084.55 2672.95L3187.08 3173.05C3187.73 3175.66 3189.24 3177.98 3191.37 3179.63C3193.49 3181.29 3196.11 3182.19 3198.8 3182.19V3182.19C3200.64 3182.19 3202.45 3181.77 3204.1 3180.96C3205.75 3180.16 3207.2 3178.99 3208.33 3177.54C3209.46 3176.09 3210.24 3174.4 3210.62 3172.6C3211 3170.81 3210.97 3168.95 3210.52 3167.16L3106.53 2661.29L3084.55 2672.95Z" fill="#C1D8ED"/>
<path d="M3192.31 2624.84H2735.89C2724.35 2624.84 2715 2634.2 2715 2645.74V2691.74C2715 2703.28 2724.35 2712.63 2735.89 2712.63H3192.31C3203.85 2712.63 3213.21 2703.28 3213.21 2691.74V2645.74C3213.21 2634.2 3203.85 2624.84 3192.31 2624.84Z" fill="#DEE8F5"/>
<path d="M3062.58 2393.54C3048.93 2389.07 3034.93 2394.08 3021.53 2404.28C3039.18 2359.71 3046.47 2319.46 3016.3 2317.65C2995.18 2316.38 2979.01 2332.58 2966.73 2355.6C2962.41 2315.12 2951.26 2284.92 2926.29 2294.93C2898.87 2305.92 2894.7 2343.59 2898.86 2383C2886.78 2362.87 2873.79 2351.65 2861.97 2363.46C2826.73 2398.7 2913.23 2498.02 2913.23 2498.02H2934.72L2946.97 2511.33C2944.49 2516.57 2943.14 2519.7 2943.14 2519.7L2958.71 2551.39C2958.71 2551.39 3119.21 2412.08 3062.58 2393.54Z" fill="#8DDBE0"/>
<path d="M3024.07 2622.34H2902.49L2882.14 2480.41H3044.42L3024.07 2622.34Z" fill="#C1D8ED"/>
<path d="M6106 0H3044V1826.07H6106V0Z" fill="#DEE8F5"/>
<path d="M6106 0H3044V150.422H6106V0Z" fill="#C1D8ED"/>
<path d="M6003.44 112.954C6028.75 112.954 6049.27 96.0568 6049.27 75.2132C6049.27 54.3697 6028.75 37.4727 6003.44 37.4727C5978.13 37.4727 5957.61 54.3697 5957.61 75.2132C5957.61 96.0568 5978.13 112.954 6003.44 112.954Z" fill="white"/>
<path d="M3734.69 275H3351V658.701H3734.69V275Z" fill="white"/>
<path d="M4250.77 275H3867.08V658.701H4250.77V275Z" fill="white"/>
<path d="M4766.84 275H4383.15V658.701H4766.84V275Z" fill="white"/>
<path d="M5282.92 275H4899.23V658.701H5282.92V275Z" fill="white"/>
<path d="M3734.69 786.408H3351V1170.11H3734.69V786.408Z" fill="white"/>
<path d="M4250.77 786.408H3867.08V1170.11H4250.77V786.408Z" fill="white"/>
<path d="M4766.84 786.408H4383.15V1170.11H4766.84V786.408Z" fill="white"/>
<path d="M5282.92 786.408H4899.23V1170.11H5282.92V786.408Z" fill="white"/>
<path d="M3734.69 1297.81H3351V1681.51H3734.69V1297.81Z" fill="white"/>
<path d="M4250.77 1297.81H3867.08V1681.51H4250.77V1297.81Z" fill="white"/>
<path d="M4766.84 1297.81H4383.15V1681.51H4766.84V1297.81Z" fill="white"/>
<path d="M5282.92 1297.81H4899.23V1681.51H5282.92V1297.81Z" fill="white"/>
<path d="M5799 275H5415.31V658.701H5799V275Z" fill="white"/>
<path d="M5799 786.408H5415.31V1170.11H5799V786.408Z" fill="white"/>
<path d="M5799 1297.81H5415.31V1681.51H5799V1297.81Z" fill="white"/>
<path d="M8772 3156.89H4134C4184.82 3027.28 4278.65 2917.33 4410.97 2884.71C4604.51 2837.06 4809.32 2968.09 5002.42 2918.82C5112.13 2890.86 5198.5 2809.37 5289.26 2741.71C5631.66 2486.41 6100.88 2410.96 6506.04 2546.09C6717.82 2616.68 6910.79 2740.15 7127.74 2792.63C7408.27 2860.53 7701.64 2804.23 7990.14 2794.95C8271.11 2785.92 8673.68 2900.41 8772 3156.89Z" fill="#F3F5FD"/>
<path d="M7683.8 3156.19C7672.73 3154.34 7548.06 3133.03 7548.06 3133.03" stroke="#EDA59F" stroke-width="21" stroke-miterlimit="10"/>
<path d="M7466.51 3332.21C7465.99 3335.46 7466.13 3338.78 7466.94 3341.97C7467.76 3345.16 7469.22 3348.15 7471.24 3350.74C7473.26 3353.34 7475.79 3355.5 7478.68 3357.07C7481.57 3358.64 7484.75 3359.61 7488.03 3359.89C7492.57 3360.3 7497.13 3359.39 7501.18 3357.29C7505.22 3355.18 7508.58 3351.97 7510.86 3348.02L7581.42 3215.44C7582.78 3212.87 7583.57 3210.04 7583.73 3207.14C7583.89 3204.24 7583.42 3201.33 7582.35 3198.63C7572.19 3177.08 7569.21 3152.83 7573.85 3129.46C7578.21 3111.38 7587.57 3094.89 7600.85 3081.88C7602.13 3080.75 7603.08 3079.29 7603.56 3077.65C7604.05 3076.01 7604.06 3074.26 7603.59 3072.62C7603.12 3070.98 7602.19 3069.5 7600.92 3068.36C7599.64 3067.22 7598.06 3066.47 7596.38 3066.2L7527.7 3054.69C7525.68 3054.35 7523.6 3054.42 7521.6 3054.88C7519.6 3055.35 7517.71 3056.2 7516.04 3057.4C7514.37 3058.59 7512.96 3060.11 7511.87 3061.85C7510.79 3063.6 7510.06 3065.54 7509.73 3067.57L7466.51 3332.21Z" fill="#C1D8ED"/>
<path d="M8060.27 2890.33C8112.12 2892.48 8164.88 2894 8217.66 2895.3L8296.98 2897.05L8376.21 2898.47L8384.1 2898.62C8416.82 2899.24 8448.1 2912.24 8471.62 2935C8495.13 2957.77 8509.15 2988.6 8510.83 3021.29C8512.51 3053.98 8501.74 3086.09 8480.68 3111.15C8459.62 3136.21 8429.85 3152.35 8397.36 3156.33L7614.37 3251.4L7582.47 3019.99L8361.96 2899.64L8383.12 3157.49L8302.67 3162.69L8222.28 3167.55C8168.6 3170.65 8114.89 3173.56 8060.23 3175.8L8060.27 2890.33Z" fill="#55AFFC"/>
<path d="M8151.27 3087.2C8162.09 3090.12 8266.62 3105.31 8266.62 3105.31" stroke="#EDA59F" stroke-width="21" stroke-miterlimit="10"/>
<path d="M8392.83 3271.01C8393.96 3274.1 8394.45 3277.39 8394.25 3280.68C8394.06 3283.96 8393.19 3287.17 8391.7 3290.11C8390.21 3293.04 8388.14 3295.63 8385.6 3297.73C8383.06 3299.82 8380.12 3301.37 8376.96 3302.28V3302.28C8372.57 3303.54 8367.92 3303.51 8363.55 3302.21C8359.18 3300.92 8355.27 3298.4 8352.28 3294.95L8257.84 3178.18C8256.03 3175.91 8254.72 3173.28 8254.02 3170.47C8253.32 3167.65 8253.23 3164.72 8253.76 3161.87C8259.65 3138.78 8257.98 3114.41 8248.99 3092.34C8241.27 3075.42 8228.96 3061.01 8213.45 3050.75C8211.97 3049.89 8210.77 3048.62 8209.98 3047.11C8209.2 3045.59 8208.86 3043.88 8209.01 3042.18C8209.16 3040.47 8209.78 3038.85 8210.82 3037.49C8211.86 3036.13 8213.26 3035.1 8214.86 3034.5L8280.11 3010.17C8282.04 3009.46 8284.08 3009.13 8286.14 3009.2C8288.19 3009.28 8290.21 3009.76 8292.07 3010.62C8293.94 3011.47 8295.62 3012.69 8297.01 3014.2C8298.41 3015.71 8299.49 3017.47 8300.2 3019.4L8392.83 3271.01Z" fill="#C1D8ED"/>
<path d="M7886.42 3154.83C7853.61 3152.04 7820.82 3150.03 7788.02 3148.14C7755.24 3146.39 7722.44 3144.64 7689.67 3143.48L7640.49 3141.58L7591.33 3140.16C7558.56 3139.07 7525.79 3138.62 7493.02 3138L7504.38 2902.56C7565.72 2911.14 7627.14 2919.02 7688.54 2927.1C7749.94 2935.18 7811.42 2942.61 7872.88 2950.17L7965.12 2961.05L8057.43 2971.39C8119 2978.01 8180.57 2984.58 8242.29 2990L8215.2 3222.06C8153.9 3213.12 8092.47 3205.34 8031.04 3197.59L7938.82 3186.4L7846.56 3175.73C7785.01 3168.93 7723.47 3162.02 7661.88 3155.72C7600.29 3149.43 7538.68 3142.97 7477.01 3137.19C7447.44 3134.41 7420.01 3120.57 7400.2 3098.43C7380.4 3076.29 7369.68 3047.49 7370.2 3017.79C7370.71 2988.09 7382.42 2959.68 7402.98 2938.24C7423.54 2916.81 7451.44 2903.92 7481.09 2902.17L7488.38 2901.76C7521.1 2899.84 7553.83 2898.09 7586.53 2895.71L7635.6 2892.35L7684.66 2888.52C7717.36 2886.05 7750.06 2883 7782.75 2879.97C7815.45 2876.78 7848.13 2873.47 7880.81 2869.38L7886.42 3154.83Z" fill="#55AFFC"/>
<path d="M8179.32 2854.58L8196.57 3144.18L7698.52 3138.33L7736.11 2881.94L8179.32 2854.58Z" fill="#55AFFC"/>
<path d="M7407.76 2312.98C7407.76 2312.98 7406.89 2243 7356.87 2246.64C7325.32 2248.94 7175.39 2241.98 7173.16 2255.64C7167.64 2289.43 7304.77 2297.69 7317.22 2329.18L7407.76 2312.98Z" fill="#EDA59F"/>
<path d="M8354.38 2797.78L8213.1 2377.65C8207.36 2357.19 8196.2 2338.67 8180.81 2324.04C8154.18 2297.42 8108.22 2280.23 8052.17 2280.17C8047.98 2312.86 7849.55 2312.97 7848.03 2280.93C7840.46 2281.05 7834.58 2281.16 7830.91 2281.34C7776.11 2283.7 7743.69 2298.87 7725.38 2323.06L7538.37 2505.04L7413.64 2272.07L7305.79 2329.83L7468.91 2634.43C7473.39 2642.78 7479.74 2649.98 7487.48 2655.46C7495.21 2660.94 7504.11 2664.55 7513.48 2666C7522.84 2667.45 7532.42 2666.7 7541.44 2663.82C7550.47 2660.94 7558.71 2656 7565.5 2649.39L7713.89 2504.98C7719.71 2542.69 7723.23 2580.71 7724.42 2618.85C7726.69 2807.97 7675.6 2843.62 7700.77 2901.42C7725.18 2957.53 8204.82 2980.83 8211.23 2882.14C8211.3 2881.1 8211.3 2880.07 8211.34 2879.04L8292.26 2881.5C8292.91 2881.5 8293.55 2881.5 8294.2 2881.5C8304.28 2881.5 8314.21 2879.1 8323.18 2874.51C8332.15 2869.91 8339.9 2863.24 8345.78 2855.05C8351.66 2846.87 8355.51 2837.4 8357.01 2827.43C8358.5 2817.46 8357.61 2807.28 8354.39 2797.73L8354.38 2797.78ZM8204.89 2751.76L8175.92 2750.87C8165.24 2715.61 8159.86 2678.95 8159.95 2642.11C8159.95 2635.12 8160.36 2628.2 8161.03 2621.33L8204.89 2751.76Z" fill="#2F3235"/>
<path d="M7848.04 2280.95C7849.55 2312.99 7866.97 2360.13 7920.74 2363.68C7992.4 2368.4 8047.98 2312.87 8052.17 2280.19H8052C7981.45 2280.19 7889.17 2280.31 7848.04 2280.95Z" fill="#EDA59F"/>
<path d="M8798.14 3177.97C8709.05 3150.36 8622.62 3114.28 8543.88 3013.3C8527.72 2992.61 8512.54 2966.1 8521.39 2941.33C8528.05 2922.7 8547.34 2910.76 8566.93 2907.7C8574.22 2906.64 8581.62 2906.44 8588.96 2907.1C8589 2907.1 8589.03 2907.1 8589.05 2907.1C8600.34 2908.25 8611.5 2910.43 8622.39 2913.62L8625.5 2914.5C8677.48 2929.27 8726.99 2951.64 8772.44 2980.87C8776.56 2983.5 8781.45 2984.65 8786.31 2984.15C8791.17 2983.65 8795.71 2981.51 8799.21 2978.1C8802.7 2974.68 8804.94 2970.19 8805.55 2965.34C8806.16 2960.49 8805.12 2955.58 8802.59 2951.4C8797.95 2943.83 8792.55 2936.75 8786.48 2930.27C8777.53 2920.91 8767.72 2912.4 8757.18 2904.87C8743.18 2894.65 8728.24 2885.54 8713.61 2876.2C8659.25 2841.58 8607.75 2802.65 8559.6 2759.81C8525.24 2729.19 8491.61 2695.22 8475.31 2652.18C8467.81 2632.38 8464.39 2609.57 8473.35 2590.39C8488.12 2558.88 8529.96 2550.07 8564.18 2556.61C8624.14 2568.09 8672.03 2612.02 8714.5 2655.85C8749.73 2692.25 8789.2 2732.56 8839.8 2734.8C8848.43 2735.61 8857.1 2733.87 8864.75 2729.79C8879.19 2721.05 8882.91 2700.79 8877.76 2684.7C8872.6 2668.62 8860.7 2655.77 8849.21 2643.42C8782.41 2571.76 8716.68 2497.2 8673.3 2409.39C8629.92 2321.59 8610.71 2217.9 8640.85 2124.67C8649.7 2097.42 8662.97 2070.89 8683.69 2051.09C8704.42 2031.29 8733.46 2018.88 8761.9 2022.69C8800.64 2027.81 8829.81 2060.49 8849.44 2094.24C8916.91 2210.09 8912.77 2352.02 8931.79 2484.72C8937.11 2521.87 8944.83 2559.97 8966.96 2590.55C8969 2593.49 8971.65 2595.96 8974.73 2597.79C8992.94 2608.33 9009.27 2587.08 9016.12 2569.03C9043.13 2497.65 9049.85 2416.02 9098.17 2356.94C9116.6 2334.45 9142.71 2315.65 9171.78 2315.84C9207.29 2316.08 9237.69 2345.74 9248.06 2379.72C9258.42 2413.7 9252.22 2450.59 9241.12 2484.32C9220.51 2546.88 9183.57 2603.08 9140.04 2652.44C9117.09 2678.52 9091.15 2704.87 9084.26 2738.89C9082.15 2750.46 9083.03 2762.37 9086.82 2773.49C9090.61 2784.62 9097.18 2794.59 9105.91 2802.46C9109.99 2806.01 9114.74 2808.71 9119.88 2810.39C9125.02 2812.07 9130.45 2812.7 9135.84 2812.24C9147.48 2811.17 9158.04 2805.23 9168.2 2799.45C9172.47 2797.02 9176.75 2794.56 9181.05 2792.14C9198.02 2782.48 9215 2772.8 9231.98 2763.11C9275.13 2738.49 9327.25 2713.33 9372.2 2734.54C9395.16 2745.38 9410.17 2766.69 9417.24 2791.15C9423.56 2813.35 9423.56 2836.86 9417.24 2859.06C9403.85 2905.22 9319.45 3033.69 9284.64 3066.81C9243.94 3105.53 9102.97 3272.44 8798.14 3177.97Z" fill="#8DDBE0"/>
<path d="M7825.07 2815.19C7851.23 2831.34 7891.72 2838.97 7927.02 2841.77L7929 2777.44C7912.4 2776.97 7886.88 2775.22 7861.89 2776.22C7850.6 2767.01 7844.1 2764.27 7832.5 2752.68C7820.17 2740.34 7787.79 2732.93 7781.67 2752.68C7775.55 2772.43 7802.12 2800.98 7825.07 2815.19Z" fill="#EDA59F"/>
<path d="M4424.59 2172.02L4378.4 2161.1L4320.48 2406.07L4366.68 2417L4424.59 2172.02Z" fill="#F0F6FF"/>
<path d="M4327.6 2142.08L4301.95 2146.81L4341.62 2361.83L4367.26 2357.1L4327.6 2142.08Z" fill="#C1D8ED"/>
<path d="M4327.59 2142L4301.97 2146.88L4306.48 2170.59L4332.1 2165.72L4327.59 2142Z" fill="#DEE8F5"/>
<path d="M4406.98 2196.75L4323.88 2407.73L4338.12 2413.34L4421.22 2202.37L4406.98 2196.75Z" fill="#FDB754"/>
<path d="M4425.18 2289.05H4299.9V2449.17H4425.18V2289.05Z" fill="#55AFFC"/>
<path d="M4558.73 3099.09H4507.06V3156.05H4558.73V3099.09Z" fill="#C1D8ED"/>
<path d="M4067.15 3099.09H4015.48V3156.05H4067.15V3099.09Z" fill="#C1D8ED"/>
<path d="M3971 3105.7H4187.79V2449.65H3971V3105.7Z" fill="#C1D8ED"/>
<path d="M4559.39 3099.09H4781.39V2464.17H4559.39V3099.09Z" fill="#C1D8ED"/>
<path d="M4173.19 2449.65H4795.99V3105.7H4173.19V2449.65ZM4766.79 2478.85H4202.39V3076.49H4766.79V2478.85Z" fill="#DEE8F5"/>
<path d="M4173.19 2743.99H4795.99V3105.7H4173.19V2743.99ZM4766.79 2773.2H4202.39V3076.49H4766.79V2773.2Z" fill="#DEE8F5"/>
<path d="M4513.65 2530.89V2572.67V2743.75H4249.08V2572.67V2530.89H4513.65Z" fill="#C1D8ED"/>
<path d="M4600.36 2572.67H4335.8V2743.75H4600.36V2572.67Z" fill="#DEE8F5"/>
<path d="M4600.36 2572.67H4335.8V2585.49H4600.36V2572.67Z" fill="#C1D8ED"/>
<path d="M4335.8 2572.67H4600.36V2530.89H4335.8V2572.67Z" fill="#DEE8F5"/>
<path d="M4438.76 2632.72H4497.4C4500.77 2632.72 4503.5 2629.99 4503.5 2626.62V2613.12C4503.5 2609.76 4500.77 2607.03 4497.4 2607.03H4438.76C4435.39 2607.03 4432.67 2609.76 4432.67 2613.12V2626.62C4432.67 2629.99 4435.39 2632.72 4438.76 2632.72Z" fill="white"/>
<path d="M4756.21 3099.09H4704.54V3156.05H4756.21V3099.09Z" fill="#DEE8F5"/>
<path d="M4264.63 3099.09H4212.96V3156.05H4264.63V3099.09Z" fill="#DEE8F5"/>
<path d="M4271.74 3076.49H4559.36V3011.36H4271.74V3076.49Z" fill="#C1D8ED"/>
<path d="M4266.8 2946.37H4554.43V2881.23H4266.8V2946.37Z" fill="#C1D8ED"/>
<path d="M4369.89 3076.49H4674.06V3011.36H4369.89V3076.49Z" fill="#DEE8F5"/>
<path opacity="0.62" d="M4394.72 3076.49H4409.48V3011.36H4394.72V3076.49Z" fill="#C1D8ED"/>
<path opacity="0.62" d="M4424.24 3076.49H4439V3011.36H4424.24V3076.49Z" fill="#C1D8ED"/>
<path d="M4639.19 3064.93C4650.79 3064.93 4660.19 3055.53 4660.19 3043.93C4660.19 3032.32 4650.79 3022.92 4639.19 3022.92C4627.59 3022.92 4618.18 3032.32 4618.18 3043.93C4618.18 3055.53 4627.59 3064.93 4639.19 3064.93Z" fill="#F3F5FD"/>
<path d="M4364.95 2946.37H4669.12V2881.23H4364.95V2946.37Z" fill="#DEE8F5"/>
<path d="M4437.27 2931.7H4649.53V2895.9H4437.27V2931.7Z" fill="#F3F5FD"/>
<path opacity="0.62" d="M4389.77 2946.37H4417.71V2881.23H4389.77V2946.37Z" fill="#C1D8ED"/>
<path d="M4535.9 2946.3H4248.28V3011.43H4535.9V2946.3Z" fill="#C1D8ED"/>
<path d="M4650.59 2946.3H4346.43V3011.43H4650.59V2946.3Z" fill="#F3F5FD"/>
<path d="M4625.77 2946.3H4611.01V3011.43H4625.77V2946.3Z" fill="#DEE8F5"/>
<path d="M4596.24 2946.3H4581.48V3011.43H4596.24V2946.3Z" fill="#DEE8F5"/>
<path d="M4381.3 2999.87C4392.9 2999.87 4402.3 2990.47 4402.3 2978.86C4402.3 2967.26 4392.9 2957.86 4381.3 2957.86C4369.7 2957.86 4360.29 2967.26 4360.29 2978.86C4360.29 2990.47 4369.7 2999.87 4381.3 2999.87Z" fill="#DEE8F5"/>
<path d="M4424.46 2994.83H4558.72V2962.9H4424.46V2994.83Z" fill="#DEE8F5"/>
<defs>
<filter id="filter0_d" x="749" y="455" width="1542.79" height="2746.63" filterUnits="userSpaceOnUse" color-interpolation-filters="sRGB">
<feFlood flood-opacity="0" result="BackgroundImageFix"/>
<feColorMatrix in="SourceAlpha" type="matrix" values="0 0 0 0 0 0 0 0 0 0 0 0 0 0 0 0 0 0 127 0"/>
<feOffset dx="2" dy="2"/>
<feGaussianBlur stdDeviation="8.5"/>
<feColorMatrix type="matrix" values="0 0 0 0 0.37375 0 0 0 0 0.423207 0 0 0 0 0.4875 0 0 0 1 0"/>
<feBlend mode="normal" in2="BackgroundImageFix" result="effect1_dropShadow"/>
<feBlend mode="normal" in="SourceGraphic" in2="effect1_dropShadow" result="shape"/>
</filter>
</defs>
</svg>
